<?xml version="1.0" encoding="utf-8"?>
<svg version="1.1" xmlns:xlink="http://www.w3.org/1999/xlink" width="10px" height="36px" preserveAspectRatio="xMidYMin meet" viewBox="349 295 8 36" xmlns="http://www.w3.org/2000/svg">
  <path d="M 353.5 300  L 353.5 325  " stroke-width="1" stroke-dasharray="0" stroke="rgba(217, 0, 27, 1)" fill="none" class="stroke" />
  <path d="M 353.5 295  A 3 3 0 0 0 350.5 298 A 3 3 0 0 0 353.5 301 A 3 3 0 0 0 356.5 298 A 3 3 0 0 0 353.5 295 Z M 353.5 296  A 2 2 0 0 1 355.5 298 A 2 2 0 0 1 353.5 300 A 2 2 0 0 1 351.5 298 A 2 2 0 0 1 353.5 296 Z M 347.5 319.3  L 353.5 326  L 359.5 319.3  L 353.5 321.6  L 347.5 319.3  Z " fill-rule="nonzero" fill="rgba(217, 0, 27, 1)" stroke="none" class="fill" />
</svg>