<?xml version="1.0" encoding="utf-8"?>
<svg version="1.1" xmlns:xlink="http://www.w3.org/1999/xlink" width="31px" height="10px" preserveAspectRatio="xMinYMid meet" viewBox="605 258 31 8" xmlns="http://www.w3.org/2000/svg">
  <path d="M 589 272.5  L 605 272.5  A 5 5 0 0 0 610.5 267.5 A 5 5 0 0 1 615.5 262.5 L 635 262.5  " stroke-width="1" stroke-dasharray="0" stroke="rgba(217, 0, 27, 1)" fill="none" class="stroke" />
  <path d="M 587 269.5  A 3 3 0 0 0 584 272.5 A 3 3 0 0 0 587 275.5 A 3 3 0 0 0 590 272.5 A 3 3 0 0 0 587 269.5 Z M 587 270.5  A 2 2 0 0 1 589 272.5 A 2 2 0 0 1 587 274.5 A 2 2 0 0 1 585 272.5 A 2 2 0 0 1 587 270.5 Z M 629.3 268.5  L 636 262.5  L 629.3 256.5  L 631.6 262.5  L 629.3 268.5  Z " fill-rule="nonzero" fill="rgba(217, 0, 27, 1)" stroke="none" class="fill" />
</svg>