<?xml version="1.0" encoding="utf-8"?>
<svg version="1.1" xmlns:xlink="http://www.w3.org/1999/xlink" width="32px" height="32px" preserveAspectRatio="xMinYMid meet" viewBox="457 144 32 30" xmlns="http://www.w3.org/2000/svg">
  <path d="M 473.5 262  L 473.5 159  " stroke-width="1" stroke-dasharray="0" stroke="rgba(217, 0, 27, 1)" fill="none" class="stroke" />
  <path d="M 473.5 261  A 3 3 0 0 0 470.5 264 A 3 3 0 0 0 473.5 267 A 3 3 0 0 0 476.5 264 A 3 3 0 0 0 473.5 261 Z M 473.5 262  A 2 2 0 0 1 475.5 264 A 2 2 0 0 1 473.5 266 A 2 2 0 0 1 471.5 264 A 2 2 0 0 1 473.5 262 Z M 479.5 164.7  L 473.5 158  L 467.5 164.7  L 473.5 162.4  L 479.5 164.7  Z " fill-rule="nonzero" fill="rgba(217, 0, 27, 1)" stroke="none" class="fill" />
</svg>