<?xml version="1.0" encoding="utf-8"?>
<svg version="1.1" xmlns:xlink="http://www.w3.org/1999/xlink" width="54px" height="10px" preserveAspectRatio="xMinYMid meet" viewBox="586 273 54 8" xmlns="http://www.w3.org/2000/svg">
  <path d="M 591 277.5  L 634 277.5  " stroke-width="1" stroke-dasharray="0" stroke="rgba(217, 0, 27, 1)" fill="none" class="stroke" />
  <path d="M 589 274.5  A 3 3 0 0 0 586 277.5 A 3 3 0 0 0 589 280.5 A 3 3 0 0 0 592 277.5 A 3 3 0 0 0 589 274.5 Z M 589 275.5  A 2 2 0 0 1 591 277.5 A 2 2 0 0 1 589 279.5 A 2 2 0 0 1 587 277.5 A 2 2 0 0 1 589 275.5 Z M 628.3 283.5  L 635 277.5  L 628.3 271.5  L 630.6 277.5  L 628.3 283.5  Z " fill-rule="nonzero" fill="rgba(217, 0, 27, 1)" stroke="none" class="fill" />
</svg>