<?xml version="1.0" encoding="utf-8"?>
<svg version="1.1" xmlns:xlink="http://www.w3.org/1999/xlink" width="18px" height="18px" preserveAspectRatio="xMinYMid meet" viewBox="578 263 18 16" xmlns="http://www.w3.org/2000/svg">
  <path d="M 589 271.5  L 634 271.5  " stroke-width="1" stroke-dasharray="0" stroke="rgba(217, 0, 27, 1)" fill="none" class="stroke" />
  <path d="M 587 268.5  A 3 3 0 0 0 584 271.5 A 3 3 0 0 0 587 274.5 A 3 3 0 0 0 590 271.5 A 3 3 0 0 0 587 268.5 Z M 587 269.5  A 2 2 0 0 1 589 271.5 A 2 2 0 0 1 587 273.5 A 2 2 0 0 1 585 271.5 A 2 2 0 0 1 587 269.5 Z M 628.3 277.5  L 635 271.5  L 628.3 265.5  L 630.6 271.5  L 628.3 277.5  Z " fill-rule="nonzero" fill="rgba(217, 0, 27, 1)" stroke="none" class="fill" />
</svg>