<?xml version="1.0" encoding="utf-8"?>
<svg version="1.1" xmlns:xlink="http://www.w3.org/1999/xlink" width="32px" height="32px" preserveAspectRatio="xMinYMid meet" viewBox="243 253 32 30" xmlns="http://www.w3.org/2000/svg">
  <path d="M 288 268.5  L 259 268.5  " stroke-width="1" stroke-dasharray="0" stroke="rgba(217, 0, 27, 1)" fill="none" class="stroke" />
  <path d="M 290 265.5  A 3 3 0 0 0 287 268.5 A 3 3 0 0 0 290 271.5 A 3 3 0 0 0 293 268.5 A 3 3 0 0 0 290 265.5 Z M 290 266.5  A 2 2 0 0 1 292 268.5 A 2 2 0 0 1 290 270.5 A 2 2 0 0 1 288 268.5 A 2 2 0 0 1 290 266.5 Z M 264.7 262.5  L 258 268.5  L 264.7 274.5  L 262.4 268.5  L 264.7 262.5  Z " fill-rule="nonzero" fill="rgba(217, 0, 27, 1)" stroke="none" class="fill" />
</svg>