<?xml version="1.0" encoding="utf-8"?>
<svg version="1.1" xmlns:xlink="http://www.w3.org/1999/xlink" width="10px" height="61px" preserveAspectRatio="xMidYMin meet" viewBox="470 195 8 61" xmlns="http://www.w3.org/2000/svg">
  <path d="M 474.5 246  L 474.5 196  " stroke-width="1" stroke-dasharray="0" stroke="rgba(217, 0, 27, 1)" fill="none" class="stroke" />
  <path d="M 474.5 245  A 3 3 0 0 0 471.5 248 A 3 3 0 0 0 474.5 251 A 3 3 0 0 0 477.5 248 A 3 3 0 0 0 474.5 245 Z M 474.5 246  A 2 2 0 0 1 476.5 248 A 2 2 0 0 1 474.5 250 A 2 2 0 0 1 472.5 248 A 2 2 0 0 1 474.5 246 Z M 480.5 201.7  L 474.5 195  L 468.5 201.7  L 474.5 199.4  L 480.5 201.7  Z " fill-rule="nonzero" fill="rgba(217, 0, 27, 1)" stroke="none" class="fill" />
</svg>