<?xml version="1.0" encoding="utf-8"?>
<svg version="1.1" xmlns:xlink="http://www.w3.org/1999/xlink" width="18px" height="18px" preserveAspectRatio="xMinYMid meet" viewBox="283 270 18 16" xmlns="http://www.w3.org/2000/svg">
  <path d="M 290 278.5  L 227 278.5  " stroke-width="1" stroke-dasharray="0" stroke="rgba(217, 0, 27, 1)" fill="none" class="stroke" />
  <path d="M 292 275.5  A 3 3 0 0 0 289 278.5 A 3 3 0 0 0 292 281.5 A 3 3 0 0 0 295 278.5 A 3 3 0 0 0 292 275.5 Z M 292 276.5  A 2 2 0 0 1 294 278.5 A 2 2 0 0 1 292 280.5 A 2 2 0 0 1 290 278.5 A 2 2 0 0 1 292 276.5 Z M 232.7 272.5  L 226 278.5  L 232.7 284.5  L 230.4 278.5  L 232.7 272.5  Z " fill-rule="nonzero" fill="rgba(217, 0, 27, 1)" stroke="none" class="fill" />
</svg>