<?xml version="1.0" encoding="utf-8"?>
<svg version="1.1" xmlns:xlink="http://www.w3.org/1999/xlink" width="32px" height="32px" preserveAspectRatio="xMinYMid meet" viewBox="472 144 32 30" xmlns="http://www.w3.org/2000/svg">
  <path d="M 488.5 255  L 488.5 159  " stroke-width="1" stroke-dasharray="0" stroke="rgba(217, 0, 27, 1)" fill="none" class="stroke" />
  <path d="M 488.5 254  A 3 3 0 0 0 485.5 257 A 3 3 0 0 0 488.5 260 A 3 3 0 0 0 491.5 257 A 3 3 0 0 0 488.5 254 Z M 488.5 255  A 2 2 0 0 1 490.5 257 A 2 2 0 0 1 488.5 259 A 2 2 0 0 1 486.5 257 A 2 2 0 0 1 488.5 255 Z M 494.5 164.7  L 488.5 158  L 482.5 164.7  L 488.5 162.4  L 494.5 164.7  Z " fill-rule="nonzero" fill="rgba(217, 0, 27, 1)" stroke="none" class="fill" />
</svg>