<?xml version="1.0" encoding="utf-8"?>
<svg version="1.1" xmlns:xlink="http://www.w3.org/1999/xlink" width="13px" height="13px" viewBox="127 1585 13 13" xmlns="http://www.w3.org/2000/svg">
  <path d="M 133.5 1585  C 137.14 1585  140 1587.86  140 1591.5  C 140 1595.14  137.14 1598  133.5 1598  C 129.86 1598  127 1595.14  127 1591.5  C 127 1587.86  129.86 1585  133.5 1585  Z " fill-rule="nonzero" fill="rgba(240, 240, 240, 1)" stroke="none" class="fill" />
  <path d="M 133.5 1585.5  C 136.86 1585.5  139.5 1588.14  139.5 1591.5  C 139.5 1594.86  136.86 1597.5  133.5 1597.5  C 130.14 1597.5  127.5 1594.86  127.5 1591.5  C 127.5 1588.14  130.14 1585.5  133.5 1585.5  Z " stroke-width="1" stroke-dasharray="0" stroke="rgba(121, 121, 121, 1)" fill="none" class="stroke" stroke-dashoffset="0.5" />
  <path d="M 133.5 1594.75  C 131.68 1594.75  130.25 1593.32  130.25 1591.5  C 130.25 1589.68  131.68 1588.25  133.5 1588.25  C 135.32 1588.25  136.75 1589.68  136.75 1591.5  C 136.75 1593.32  135.32 1594.75  133.5 1594.75  " fill-rule="nonzero" fill="rgba(121, 121, 121, 1)" stroke="none" class="stroke btn_check" />
</svg>