<?xml version="1.0" encoding="utf-8"?>
<svg version="1.1" xmlns:xlink="http://www.w3.org/1999/xlink" width="13px" height="13px" viewBox="239 1585 13 13" xmlns="http://www.w3.org/2000/svg">
  <path d="M 245.5 1585  C 249.14 1585  252 1587.86  252 1591.5  C 252 1595.14  249.14 1598  245.5 1598  C 241.86 1598  239 1595.14  239 1591.5  C 239 1587.86  241.86 1585  245.5 1585  Z " fill-rule="nonzero" fill="rgba(255, 255, 255, 1)" stroke="none" class="fill" />
  <path d="M 245.5 1585.5  C 248.86 1585.5  251.5 1588.14  251.5 1591.5  C 251.5 1594.86  248.86 1597.5  245.5 1597.5  C 242.14 1597.5  239.5 1594.86  239.5 1591.5  C 239.5 1588.14  242.14 1585.5  245.5 1585.5  Z " stroke-width="1" stroke-dasharray="0" stroke="rgba(121, 121, 121, 1)" fill="none" class="stroke" stroke-dashoffset="0.5" />
  <path d="M 245.5 1594.75  C 243.68 1594.75  242.25 1593.32  242.25 1591.5  C 242.25 1589.68  243.68 1588.25  245.5 1588.25  C 247.32 1588.25  248.75 1589.68  248.75 1591.5  C 248.75 1593.32  247.32 1594.75  245.5 1594.75  " fill-rule="nonzero" fill="rgba(121, 121, 121, 1)" stroke="none" class="stroke btn_check" />
</svg>