<?xml version="1.0" encoding="utf-8"?>
<svg version="1.1" xmlns:xlink="http://www.w3.org/1999/xlink" width="13px" height="13px" viewBox="148 2103 13 13" xmlns="http://www.w3.org/2000/svg">
  <path d="M 154.5 2103  C 158.14 2103  161 2105.86  161 2109.5  C 161 2113.14  158.14 2116  154.5 2116  C 150.86 2116  148 2113.14  148 2109.5  C 148 2105.86  150.86 2103  154.5 2103  Z " fill-rule="nonzero" fill="rgba(255, 255, 255, 1)" stroke="none" class="fill" />
  <path d="M 154.5 2103.5  C 157.86 2103.5  160.5 2106.14  160.5 2109.5  C 160.5 2112.86  157.86 2115.5  154.5 2115.5  C 151.14 2115.5  148.5 2112.86  148.5 2109.5  C 148.5 2106.14  151.14 2103.5  154.5 2103.5  Z " stroke-width="1" stroke-dasharray="0" stroke="rgba(121, 121, 121, 1)" fill="none" class="stroke" stroke-dashoffset="0.5" />
  <path d="M 154.5 2112.75  C 152.68 2112.75  151.25 2111.32  151.25 2109.5  C 151.25 2107.68  152.68 2106.25  154.5 2106.25  C 156.32 2106.25  157.75 2107.68  157.75 2109.5  C 157.75 2111.32  156.32 2112.75  154.5 2112.75  " fill-rule="nonzero" fill="rgba(121, 121, 121, 1)" stroke="none" class="stroke btn_check" />
</svg>