<?xml version="1.0" encoding="utf-8"?>
<svg version="1.1" xmlns:xlink="http://www.w3.org/1999/xlink" width="13px" height="13px" viewBox="812 1384 13 13" xmlns="http://www.w3.org/2000/svg">
  <path d="M 818.5 1384  C 822.14 1384  825 1386.86  825 1390.5  C 825 1394.14  822.14 1397  818.5 1397  C 814.86 1397  812 1394.14  812 1390.5  C 812 1386.86  814.86 1384  818.5 1384  Z " fill-rule="nonzero" fill="rgba(240, 240, 240, 1)" stroke="none" class="fill" />
  <path d="M 818.5 1384.5  C 821.86 1384.5  824.5 1387.14  824.5 1390.5  C 824.5 1393.86  821.86 1396.5  818.5 1396.5  C 815.14 1396.5  812.5 1393.86  812.5 1390.5  C 812.5 1387.14  815.14 1384.5  818.5 1384.5  Z " stroke-width="1" stroke-dasharray="0" stroke="rgba(121, 121, 121, 1)" fill="none" class="stroke" stroke-dashoffset="0.5" />
  <path d="M 818.5 1393.75  C 816.68 1393.75  815.25 1392.32  815.25 1390.5  C 815.25 1388.68  816.68 1387.25  818.5 1387.25  C 820.32 1387.25  821.75 1388.68  821.75 1390.5  C 821.75 1392.32  820.32 1393.75  818.5 1393.75  " fill-rule="nonzero" fill="rgba(121, 121, 121, 1)" stroke="none" class="stroke btn_check" />
</svg>