<?xml version="1.0" encoding="utf-8"?>
<svg version="1.1" xmlns:xlink="http://www.w3.org/1999/xlink" width="13px" height="13px" viewBox="924 1384 13 13" xmlns="http://www.w3.org/2000/svg">
  <path d="M 930.5 1384  C 934.14 1384  937 1386.86  937 1390.5  C 937 1394.14  934.14 1397  930.5 1397  C 926.86 1397  924 1394.14  924 1390.5  C 924 1386.86  926.86 1384  930.5 1384  Z " fill-rule="nonzero" fill="rgba(255, 255, 255, 1)" stroke="none" class="fill" />
  <path d="M 930.5 1384.5  C 933.86 1384.5  936.5 1387.14  936.5 1390.5  C 936.5 1393.86  933.86 1396.5  930.5 1396.5  C 927.14 1396.5  924.5 1393.86  924.5 1390.5  C 924.5 1387.14  927.14 1384.5  930.5 1384.5  Z " stroke-width="1" stroke-dasharray="0" stroke="rgba(121, 121, 121, 1)" fill="none" class="stroke" stroke-dashoffset="0.5" />
  <path d="M 930.5 1393.75  C 928.68 1393.75  927.25 1392.32  927.25 1390.5  C 927.25 1388.68  928.68 1387.25  930.5 1387.25  C 932.32 1387.25  933.75 1388.68  933.75 1390.5  C 933.75 1392.32  932.32 1393.75  930.5 1393.75  " fill-rule="nonzero" fill="rgba(121, 121, 121, 1)" stroke="none" class="stroke btn_check" />
</svg>