<?xml version="1.0" encoding="utf-8"?>
<svg version="1.1" xmlns:xlink="http://www.w3.org/1999/xlink" width="20px" height="20px" preserveAspectRatio="xMinYMid meet" viewBox="277 852 20 18" xmlns="http://www.w3.org/2000/svg">
  <path d="M 363 861  L 288 861  " stroke-width="2" stroke-dasharray="0" stroke="rgba(217, 0, 27, 1)" fill="none" class="stroke" />
  <path d="M 365.5 857.5  A 3.5 3.5 0 0 0 362 861 A 3.5 3.5 0 0 0 365.5 864.5 A 3.5 3.5 0 0 0 369 861 A 3.5 3.5 0 0 0 365.5 857.5 Z M 365.5 859.5  A 1.5 1.5 0 0 1 367 861 A 1.5 1.5 0 0 1 365.5 862.5 A 1.5 1.5 0 0 1 364 861 A 1.5 1.5 0 0 1 365.5 859.5 Z M 289 853.4  L 282 861  L 289 868.6  L 289 853.4  Z " fill-rule="nonzero" fill="rgba(217, 0, 27, 1)" stroke="none" class="fill" />
</svg>