<?xml version="1.0" encoding="utf-8"?>
<svg version="1.1" xmlns:xlink="http://www.w3.org/1999/xlink" width="53px" height="10px" preserveAspectRatio="xMinYMid meet" viewBox="273 1083 53 8" xmlns="http://www.w3.org/2000/svg">
  <path d="M 363 954  L 326 954  A 5 5 0 0 0 321 959 L 321 1082  A 5 5 0 0 1 316 1087 L 275 1087  " stroke-width="2" stroke-dasharray="0" stroke="rgba(217, 0, 27, 1)" fill="none" class="stroke" />
  <path d="M 365.5 950.5  A 3.5 3.5 0 0 0 362 954 A 3.5 3.5 0 0 0 365.5 957.5 A 3.5 3.5 0 0 0 369 954 A 3.5 3.5 0 0 0 365.5 950.5 Z M 365.5 952.5  A 1.5 1.5 0 0 1 367 954 A 1.5 1.5 0 0 1 365.5 955.5 A 1.5 1.5 0 0 1 364 954 A 1.5 1.5 0 0 1 365.5 952.5 Z M 282.4 1079  L 273 1087  L 282.4 1095  L 278.8 1087  L 282.4 1079  Z " fill-rule="nonzero" fill="rgba(217, 0, 27, 1)" stroke="none" class="fill" />
</svg>