<?xml version="1.0" encoding="utf-8"?>
<svg version="1.1" xmlns:xlink="http://www.w3.org/1999/xlink" width="18px" height="18px" preserveAspectRatio="xMinYMid meet" viewBox="345 290 18 16" xmlns="http://www.w3.org/2000/svg">
  <path d="M 354.5 300  L 354.5 327  " stroke-width="1" stroke-dasharray="0" stroke="rgba(217, 0, 27, 1)" fill="none" class="stroke" />
  <path d="M 354.5 295  A 3 3 0 0 0 351.5 298 A 3 3 0 0 0 354.5 301 A 3 3 0 0 0 357.5 298 A 3 3 0 0 0 354.5 295 Z M 354.5 296  A 2 2 0 0 1 356.5 298 A 2 2 0 0 1 354.5 300 A 2 2 0 0 1 352.5 298 A 2 2 0 0 1 354.5 296 Z M 348.5 321.3  L 354.5 328  L 360.5 321.3  L 354.5 323.6  L 348.5 321.3  Z " fill-rule="nonzero" fill="rgba(217, 0, 27, 1)" stroke="none" class="fill" />
</svg>