<?xml version="1.0" encoding="utf-8"?>
<svg version="1.1" xmlns:xlink="http://www.w3.org/1999/xlink" width="32px" height="32px" preserveAspectRatio="xMinYMid meet" viewBox="619 179 32 30" xmlns="http://www.w3.org/2000/svg">
  <path d="M 589 273.5  L 605 273.5  A 5 5 0 0 0 610.5 268.5 L 610.5 199  A 5 5 0 0 1 615.5 194.5 L 635 194.5  " stroke-width="1" stroke-dasharray="0" stroke="rgba(217, 0, 27, 1)" fill="none" class="stroke" />
  <path d="M 587 270.5  A 3 3 0 0 0 584 273.5 A 3 3 0 0 0 587 276.5 A 3 3 0 0 0 590 273.5 A 3 3 0 0 0 587 270.5 Z M 587 271.5  A 2 2 0 0 1 589 273.5 A 2 2 0 0 1 587 275.5 A 2 2 0 0 1 585 273.5 A 2 2 0 0 1 587 271.5 Z M 629.3 200.5  L 636 194.5  L 629.3 188.5  L 631.6 194.5  L 629.3 200.5  Z " fill-rule="nonzero" fill="rgba(217, 0, 27, 1)" stroke="none" class="fill" />
</svg>