<?xml version="1.0" encoding="utf-8"?>
<svg version="1.1" xmlns:xlink="http://www.w3.org/1999/xlink" width="32px" height="32px" preserveAspectRatio="xMinYMid meet" viewBox="619 439 32 30" xmlns="http://www.w3.org/2000/svg">
  <path d="M 528.5 298  L 528.5 449  A 5 5 0 0 0 533.5 454.5 L 635 454.5  " stroke-width="1" stroke-dasharray="0" stroke="rgba(217, 0, 27, 1)" fill="none" class="stroke" />
  <path d="M 528.5 293  A 3 3 0 0 0 525.5 296 A 3 3 0 0 0 528.5 299 A 3 3 0 0 0 531.5 296 A 3 3 0 0 0 528.5 293 Z M 528.5 294  A 2 2 0 0 1 530.5 296 A 2 2 0 0 1 528.5 298 A 2 2 0 0 1 526.5 296 A 2 2 0 0 1 528.5 294 Z M 629.3 460.5  L 636 454.5  L 629.3 448.5  L 631.6 454.5  L 629.3 460.5  Z " fill-rule="nonzero" fill="rgba(217, 0, 27, 1)" stroke="none" class="fill" />
</svg>