<?xml version="1.0" encoding="utf-8"?>
<svg version="1.1" xmlns:xlink="http://www.w3.org/1999/xlink" width="13px" height="13px" viewBox="99 3186 13 13" xmlns="http://www.w3.org/2000/svg">
  <path d="M 105.5 3186  C 109.14 3186  112 3188.86  112 3192.5  C 112 3196.14  109.14 3199  105.5 3199  C 101.86 3199  99 3196.14  99 3192.5  C 99 3188.86  101.86 3186  105.5 3186  Z " fill-rule="nonzero" fill="rgba(255, 255, 255, 1)" stroke="none" class="fill" />
  <path d="M 105.5 3186.5  C 108.86 3186.5  111.5 3189.14  111.5 3192.5  C 111.5 3195.86  108.86 3198.5  105.5 3198.5  C 102.14 3198.5  99.5 3195.86  99.5 3192.5  C 99.5 3189.14  102.14 3186.5  105.5 3186.5  Z " stroke-width="1" stroke-dasharray="0" stroke="rgba(121, 121, 121, 1)" fill="none" class="stroke" stroke-dashoffset="0.5" />
  <path d="M 105.5 3195.75  C 103.68 3195.75  102.25 3194.32  102.25 3192.5  C 102.25 3190.68  103.68 3189.25  105.5 3189.25  C 107.32 3189.25  108.75 3190.68  108.75 3192.5  C 108.75 3194.32  107.32 3195.75  105.5 3195.75  " fill-rule="nonzero" fill="rgba(121, 121, 121, 1)" stroke="none" class="stroke btn_check" />
</svg>