<?xml version="1.0" encoding="utf-8"?>
<svg version="1.1" xmlns:xlink="http://www.w3.org/1999/xlink" width="13px" height="13px" viewBox="218 3186 13 13" xmlns="http://www.w3.org/2000/svg">
  <path d="M 224.5 3186  C 228.14 3186  231 3188.86  231 3192.5  C 231 3196.14  228.14 3199  224.5 3199  C 220.86 3199  218 3196.14  218 3192.5  C 218 3188.86  220.86 3186  224.5 3186  Z " fill-rule="nonzero" fill="rgba(255, 255, 255, 1)" stroke="none" class="fill" />
  <path d="M 224.5 3186.5  C 227.86 3186.5  230.5 3189.14  230.5 3192.5  C 230.5 3195.86  227.86 3198.5  224.5 3198.5  C 221.14 3198.5  218.5 3195.86  218.5 3192.5  C 218.5 3189.14  221.14 3186.5  224.5 3186.5  Z " stroke-width="1" stroke-dasharray="0" stroke="rgba(121, 121, 121, 1)" fill="none" class="stroke" stroke-dashoffset="0.5" />
  <path d="M 224.5 3195.75  C 222.68 3195.75  221.25 3194.32  221.25 3192.5  C 221.25 3190.68  222.68 3189.25  224.5 3189.25  C 226.32 3189.25  227.75 3190.68  227.75 3192.5  C 227.75 3194.32  226.32 3195.75  224.5 3195.75  " fill-rule="nonzero" fill="rgba(121, 121, 121, 1)" stroke="none" class="stroke btn_check" />
</svg>