<?xml version="1.0" encoding="utf-8"?>
<svg version="1.1" xmlns:xlink="http://www.w3.org/1999/xlink" width="7px" height="7px" xmlns="http://www.w3.org/2000/svg">
  <defs>
    <pattern id="BGPattern" patternUnits="userSpaceOnUse" alignment="0 0" imageRepeat="None" />
    <mask fill="white" id="Clip10">
      <path d="M 5.37972027972028 3.5  L 6.681818181818182 4.201822916666667  C 6.831934731934732 4.280815972222221  6.929020979020979 4.398546006944444  6.973076923076923 4.555013020833333  C 7.017132867132867 4.711480034722221  6.996736596736597 4.859592013888889  6.911888111888112 4.999348958333333  L 6.5986013986013985 5.500651041666666  C 6.513752913752914 5.640407986111112  6.387296037296038 5.730794270833334  6.219230769230769 5.771809895833334  C 6.051165501165502 5.812825520833334  5.892074592074593 5.793836805555555  5.741958041958042 5.71484375  L 4.43986013986014 5.017578125  L 4.43986013986014 6.416666666666666  C 4.43986013986014 6.574652777777779  4.377855477855478 6.711371527777779  4.253846153846154 6.826822916666666  C 4.12983682983683 6.942274305555555  3.982983682983683 7  3.813286713286713 7  L 3.1867132867132866 7  C 3.017016317016317 7  2.8701631701631705 6.942274305555555  2.746153846153846 6.826822916666666  C 2.6221445221445228 6.711371527777779  2.56013986013986 6.574652777777779  2.56013986013986 6.416666666666666  L 2.56013986013986 5.017578125  L 1.258041958041958 5.71484375  C 1.1079254079254082 5.793836805555555  0.948834498834499 5.812825520833334  0.7807692307692308 5.771809895833334  C 0.6127039627039628 5.730794270833334  0.48624708624708646 5.640407986111112  0.4013986013986014 5.500651041666666  L 0.08811188811188812 4.999348958333333  C 0.0032634032634032864 4.859592013888889  -0.017132867132867134 4.711480034722221  0.026923076923076925 4.555013020833333  C 0.07097902097902098 4.398546006944444  0.16806526806526811 4.280815972222221  0.3181818181818182 4.201822916666667  L 1.6202797202797203 3.5  L 0.3181818181818182 2.7981770833333335  C 0.16806526806526811 2.7191840277777772  0.07097902097902098 2.6014539930555554  0.026923076923076925 2.4449869791666665  C -0.017132867132867134 2.2885199652777772  0.0032634032634032864 2.1404079861111103  0.08811188811188812 2.0006510416666665  L 0.4013986013986014 1.4993489583333335  C 0.48624708624708646 1.3595920138888884  0.6127039627039628 1.2692057291666665  0.7807692307692308 1.2281901041666665  C 0.948834498834499 1.1871744791666665  1.1079254079254082 1.2061631944444438  1.258041958041958 1.28515625  L 2.56013986013986 1.982421875  L 2.56013986013986 0.5833333333333336  C 2.56013986013986 0.4253472222222219  2.6221445221445228 0.2886284722222219  2.746153846153846 0.1731770833333336  C 2.8701631701631705 0.057725694444443754  3.017016317016317 0  3.1867132867132866 0  L 3.813286713286713 0  C 3.982983682983683 0  4.12983682983683 0.057725694444443754  4.253846153846154 0.1731770833333336  C 4.377855477855478 0.2886284722222219  4.43986013986014 0.4253472222222219  4.43986013986014 0.5833333333333336  L 4.43986013986014 1.982421875  L 5.741958041958042 1.28515625  C 5.892074592074593 1.2061631944444438  6.051165501165502 1.1871744791666665  6.219230769230769 1.2281901041666665  C 6.387296037296038 1.2692057291666665  6.513752913752914 1.3595920138888884  6.5986013986013985 1.4993489583333335  L 6.911888111888112 2.0006510416666665  C 6.996736596736597 2.1404079861111103  7.017132867132867 2.2885199652777772  6.973076923076923 2.4449869791666665  C 6.929020979020979 2.6014539930555554  6.831934731934732 2.7191840277777772  6.681818181818182 2.7981770833333335  L 5.37972027972028 3.5  Z " fill-rule="evenodd" />
    </mask>
  </defs>
  <g transform="matrix(1 0 0 1 -102 -3037 )">
    <path d="M 5.37972027972028 3.5  L 6.681818181818182 4.201822916666667  C 6.831934731934732 4.280815972222221  6.929020979020979 4.398546006944444  6.973076923076923 4.555013020833333  C 7.017132867132867 4.711480034722221  6.996736596736597 4.859592013888889  6.911888111888112 4.999348958333333  L 6.5986013986013985 5.500651041666666  C 6.513752913752914 5.640407986111112  6.387296037296038 5.730794270833334  6.219230769230769 5.771809895833334  C 6.051165501165502 5.812825520833334  5.892074592074593 5.793836805555555  5.741958041958042 5.71484375  L 4.43986013986014 5.017578125  L 4.43986013986014 6.416666666666666  C 4.43986013986014 6.574652777777779  4.377855477855478 6.711371527777779  4.253846153846154 6.826822916666666  C 4.12983682983683 6.942274305555555  3.982983682983683 7  3.813286713286713 7  L 3.1867132867132866 7  C 3.017016317016317 7  2.8701631701631705 6.942274305555555  2.746153846153846 6.826822916666666  C 2.6221445221445228 6.711371527777779  2.56013986013986 6.574652777777779  2.56013986013986 6.416666666666666  L 2.56013986013986 5.017578125  L 1.258041958041958 5.71484375  C 1.1079254079254082 5.793836805555555  0.948834498834499 5.812825520833334  0.7807692307692308 5.771809895833334  C 0.6127039627039628 5.730794270833334  0.48624708624708646 5.640407986111112  0.4013986013986014 5.500651041666666  L 0.08811188811188812 4.999348958333333  C 0.0032634032634032864 4.859592013888889  -0.017132867132867134 4.711480034722221  0.026923076923076925 4.555013020833333  C 0.07097902097902098 4.398546006944444  0.16806526806526811 4.280815972222221  0.3181818181818182 4.201822916666667  L 1.6202797202797203 3.5  L 0.3181818181818182 2.7981770833333335  C 0.16806526806526811 2.7191840277777772  0.07097902097902098 2.6014539930555554  0.026923076923076925 2.4449869791666665  C -0.017132867132867134 2.2885199652777772  0.0032634032634032864 2.1404079861111103  0.08811188811188812 2.0006510416666665  L 0.4013986013986014 1.4993489583333335  C 0.48624708624708646 1.3595920138888884  0.6127039627039628 1.2692057291666665  0.7807692307692308 1.2281901041666665  C 0.948834498834499 1.1871744791666665  1.1079254079254082 1.2061631944444438  1.258041958041958 1.28515625  L 2.56013986013986 1.982421875  L 2.56013986013986 0.5833333333333336  C 2.56013986013986 0.4253472222222219  2.6221445221445228 0.2886284722222219  2.746153846153846 0.1731770833333336  C 2.8701631701631705 0.057725694444443754  3.017016317016317 0  3.1867132867132866 0  L 3.813286713286713 0  C 3.982983682983683 0  4.12983682983683 0.057725694444443754  4.253846153846154 0.1731770833333336  C 4.377855477855478 0.2886284722222219  4.43986013986014 0.4253472222222219  4.43986013986014 0.5833333333333336  L 4.43986013986014 1.982421875  L 5.741958041958042 1.28515625  C 5.892074592074593 1.2061631944444438  6.051165501165502 1.1871744791666665  6.219230769230769 1.2281901041666665  C 6.387296037296038 1.2692057291666665  6.513752913752914 1.3595920138888884  6.5986013986013985 1.4993489583333335  L 6.911888111888112 2.0006510416666665  C 6.996736596736597 2.1404079861111103  7.017132867132867 2.2885199652777772  6.973076923076923 2.4449869791666665  C 6.929020979020979 2.6014539930555554  6.831934731934732 2.7191840277777772  6.681818181818182 2.7981770833333335  L 5.37972027972028 3.5  Z " fill-rule="nonzero" fill="rgba(217, 0, 27, 1)" stroke="none" transform="matrix(1 0 0 1 102 3037 )" class="fill" />
    <path d="M 5.37972027972028 3.5  L 6.681818181818182 4.201822916666667  C 6.831934731934732 4.280815972222221  6.929020979020979 4.398546006944444  6.973076923076923 4.555013020833333  C 7.017132867132867 4.711480034722221  6.996736596736597 4.859592013888889  6.911888111888112 4.999348958333333  L 6.5986013986013985 5.500651041666666  C 6.513752913752914 5.640407986111112  6.387296037296038 5.730794270833334  6.219230769230769 5.771809895833334  C 6.051165501165502 5.812825520833334  5.892074592074593 5.793836805555555  5.741958041958042 5.71484375  L 4.43986013986014 5.017578125  L 4.43986013986014 6.416666666666666  C 4.43986013986014 6.574652777777779  4.377855477855478 6.711371527777779  4.253846153846154 6.826822916666666  C 4.12983682983683 6.942274305555555  3.982983682983683 7  3.813286713286713 7  L 3.1867132867132866 7  C 3.017016317016317 7  2.8701631701631705 6.942274305555555  2.746153846153846 6.826822916666666  C 2.6221445221445228 6.711371527777779  2.56013986013986 6.574652777777779  2.56013986013986 6.416666666666666  L 2.56013986013986 5.017578125  L 1.258041958041958 5.71484375  C 1.1079254079254082 5.793836805555555  0.948834498834499 5.812825520833334  0.7807692307692308 5.771809895833334  C 0.6127039627039628 5.730794270833334  0.48624708624708646 5.640407986111112  0.4013986013986014 5.500651041666666  L 0.08811188811188812 4.999348958333333  C 0.0032634032634032864 4.859592013888889  -0.017132867132867134 4.711480034722221  0.026923076923076925 4.555013020833333  C 0.07097902097902098 4.398546006944444  0.16806526806526811 4.280815972222221  0.3181818181818182 4.201822916666667  L 1.6202797202797203 3.5  L 0.3181818181818182 2.7981770833333335  C 0.16806526806526811 2.7191840277777772  0.07097902097902098 2.6014539930555554  0.026923076923076925 2.4449869791666665  C -0.017132867132867134 2.2885199652777772  0.0032634032634032864 2.1404079861111103  0.08811188811188812 2.0006510416666665  L 0.4013986013986014 1.4993489583333335  C 0.48624708624708646 1.3595920138888884  0.6127039627039628 1.2692057291666665  0.7807692307692308 1.2281901041666665  C 0.948834498834499 1.1871744791666665  1.1079254079254082 1.2061631944444438  1.258041958041958 1.28515625  L 2.56013986013986 1.982421875  L 2.56013986013986 0.5833333333333336  C 2.56013986013986 0.4253472222222219  2.6221445221445228 0.2886284722222219  2.746153846153846 0.1731770833333336  C 2.8701631701631705 0.057725694444443754  3.017016317016317 0  3.1867132867132866 0  L 3.813286713286713 0  C 3.982983682983683 0  4.12983682983683 0.057725694444443754  4.253846153846154 0.1731770833333336  C 4.377855477855478 0.2886284722222219  4.43986013986014 0.4253472222222219  4.43986013986014 0.5833333333333336  L 4.43986013986014 1.982421875  L 5.741958041958042 1.28515625  C 5.892074592074593 1.2061631944444438  6.051165501165502 1.1871744791666665  6.219230769230769 1.2281901041666665  C 6.387296037296038 1.2692057291666665  6.513752913752914 1.3595920138888884  6.5986013986013985 1.4993489583333335  L 6.911888111888112 2.0006510416666665  C 6.996736596736597 2.1404079861111103  7.017132867132867 2.2885199652777772  6.973076923076923 2.4449869791666665  C 6.929020979020979 2.6014539930555554  6.831934731934732 2.7191840277777772  6.681818181818182 2.7981770833333335  L 5.37972027972028 3.5  Z " stroke-width="0" stroke-dasharray="0" stroke="rgba(255, 255, 255, 0)" fill="none" transform="matrix(1 0 0 1 102 3037 )" class="stroke" mask="url(#Clip10)" />
  </g>
</svg>