<?xml version="1.0" encoding="utf-8"?>
<svg version="1.1" xmlns:xlink="http://www.w3.org/1999/xlink" width="13px" height="13px" viewBox="79 866 13 13" xmlns="http://www.w3.org/2000/svg">
  <path d="M 85.5 866  C 89.14 866  92 868.86  92 872.5  C 92 876.14  89.14 879  85.5 879  C 81.86 879  79 876.14  79 872.5  C 79 868.86  81.86 866  85.5 866  Z " fill-rule="nonzero" fill="rgba(255, 255, 255, 1)" stroke="none" class="fill" />
  <path d="M 85.5 866.5  C 88.86 866.5  91.5 869.14  91.5 872.5  C 91.5 875.86  88.86 878.5  85.5 878.5  C 82.14 878.5  79.5 875.86  79.5 872.5  C 79.5 869.14  82.14 866.5  85.5 866.5  Z " stroke-width="1" stroke-dasharray="0" stroke="rgba(121, 121, 121, 1)" fill="none" class="stroke" stroke-dashoffset="0.5" />
  <path d="M 85.5 875.75  C 83.68 875.75  82.25 874.32  82.25 872.5  C 82.25 870.68  83.68 869.25  85.5 869.25  C 87.32 869.25  88.75 870.68  88.75 872.5  C 88.75 874.32  87.32 875.75  85.5 875.75  " fill-rule="nonzero" fill="rgba(121, 121, 121, 1)" stroke="none" class="stroke btn_check" />
</svg>