<?xml version="1.0" encoding="utf-8"?>
<svg version="1.1" xmlns:xlink="http://www.w3.org/1999/xlink" width="13px" height="13px" viewBox="316 866 13 13" xmlns="http://www.w3.org/2000/svg">
  <path d="M 322.5 866  C 326.14 866  329 868.86  329 872.5  C 329 876.14  326.14 879  322.5 879  C 318.86 879  316 876.14  316 872.5  C 316 868.86  318.86 866  322.5 866  Z " fill-rule="nonzero" fill="rgba(240, 240, 240, 1)" stroke="none" class="fill" />
  <path d="M 322.5 866.5  C 325.86 866.5  328.5 869.14  328.5 872.5  C 328.5 875.86  325.86 878.5  322.5 878.5  C 319.14 878.5  316.5 875.86  316.5 872.5  C 316.5 869.14  319.14 866.5  322.5 866.5  Z " stroke-width="1" stroke-dasharray="0" stroke="rgba(121, 121, 121, 1)" fill="none" class="stroke" stroke-dashoffset="0.5" />
  <path d="M 322.5 875.75  C 320.68 875.75  319.25 874.32  319.25 872.5  C 319.25 870.68  320.68 869.25  322.5 869.25  C 324.32 869.25  325.75 870.68  325.75 872.5  C 325.75 874.32  324.32 875.75  322.5 875.75  " fill-rule="nonzero" fill="rgba(121, 121, 121, 1)" stroke="none" class="stroke btn_check" />
</svg>