<?xml version="1.0" encoding="utf-8"?>
<svg version="1.1" xmlns:xlink="http://www.w3.org/1999/xlink" width="13px" height="13px" viewBox="1121 887 13 13" xmlns="http://www.w3.org/2000/svg">
  <path d="M 1127.5 887  C 1131.14 887  1134 889.86  1134 893.5  C 1134 897.14  1131.14 900  1127.5 900  C 1123.86 900  1121 897.14  1121 893.5  C 1121 889.86  1123.86 887  1127.5 887  Z " fill-rule="nonzero" fill="rgba(255, 255, 255, 1)" stroke="none" class="fill" />
  <path d="M 1127.5 887.5  C 1130.86 887.5  1133.5 890.14  1133.5 893.5  C 1133.5 896.86  1130.86 899.5  1127.5 899.5  C 1124.14 899.5  1121.5 896.86  1121.5 893.5  C 1121.5 890.14  1124.14 887.5  1127.5 887.5  Z " stroke-width="1" stroke-dasharray="0" stroke="rgba(121, 121, 121, 1)" fill="none" class="stroke" stroke-dashoffset="0.5" />
  <path d="M 1127.5 896.75  C 1125.68 896.75  1124.25 895.32  1124.25 893.5  C 1124.25 891.68  1125.68 890.25  1127.5 890.25  C 1129.32 890.25  1130.75 891.68  1130.75 893.5  C 1130.75 895.32  1129.32 896.75  1127.5 896.75  " fill-rule="nonzero" fill="rgba(121, 121, 121, 1)" stroke="none" class="stroke btn_check" />
</svg>