<?xml version="1.0" encoding="utf-8"?>
<svg version="1.1" xmlns:xlink="http://www.w3.org/1999/xlink" width="13px" height="13px" viewBox="1239 887 13 13" xmlns="http://www.w3.org/2000/svg">
  <path d="M 1245.5 887  C 1249.14 887  1252 889.86  1252 893.5  C 1252 897.14  1249.14 900  1245.5 900  C 1241.86 900  1239 897.14  1239 893.5  C 1239 889.86  1241.86 887  1245.5 887  Z " fill-rule="nonzero" fill="rgba(255, 255, 255, 1)" stroke="none" class="fill" />
  <path d="M 1245.5 887.5  C 1248.86 887.5  1251.5 890.14  1251.5 893.5  C 1251.5 896.86  1248.86 899.5  1245.5 899.5  C 1242.14 899.5  1239.5 896.86  1239.5 893.5  C 1239.5 890.14  1242.14 887.5  1245.5 887.5  Z " stroke-width="1" stroke-dasharray="0" stroke="rgba(121, 121, 121, 1)" fill="none" class="stroke" stroke-dashoffset="0.5" />
  <path d="M 1245.5 896.75  C 1243.68 896.75  1242.25 895.32  1242.25 893.5  C 1242.25 891.68  1243.68 890.25  1245.5 890.25  C 1247.32 890.25  1248.75 891.68  1248.75 893.5  C 1248.75 895.32  1247.32 896.75  1245.5 896.75  " fill-rule="nonzero" fill="rgba(121, 121, 121, 1)" stroke="none" class="stroke btn_check" />
</svg>