<?xml version="1.0" encoding="utf-8"?>
<svg version="1.1" xmlns:xlink="http://www.w3.org/1999/xlink" width="13px" height="13px" viewBox="336 1464 13 13" xmlns="http://www.w3.org/2000/svg">
  <path d="M 342.5 1464  C 346.14 1464  349 1466.86  349 1470.5  C 349 1474.14  346.14 1477  342.5 1477  C 338.86 1477  336 1474.14  336 1470.5  C 336 1466.86  338.86 1464  342.5 1464  Z " fill-rule="nonzero" fill="rgba(240, 240, 240, 1)" stroke="none" class="fill" />
  <path d="M 342.5 1464.5  C 345.86 1464.5  348.5 1467.14  348.5 1470.5  C 348.5 1473.86  345.86 1476.5  342.5 1476.5  C 339.14 1476.5  336.5 1473.86  336.5 1470.5  C 336.5 1467.14  339.14 1464.5  342.5 1464.5  Z " stroke-width="1" stroke-dasharray="0" stroke="rgba(121, 121, 121, 1)" fill="none" class="stroke" stroke-dashoffset="0.5" />
  <path d="M 342.5 1473.75  C 340.68 1473.75  339.25 1472.32  339.25 1470.5  C 339.25 1468.68  340.68 1467.25  342.5 1467.25  C 344.32 1467.25  345.75 1468.68  345.75 1470.5  C 345.75 1472.32  344.32 1473.75  342.5 1473.75  " fill-rule="nonzero" fill="rgba(121, 121, 121, 1)" stroke="none" class="stroke btn_check" />
</svg>