<?xml version="1.0" encoding="utf-8"?>
<svg version="1.1" xmlns:xlink="http://www.w3.org/1999/xlink" width="13px" height="13px" viewBox="642 887 13 13" xmlns="http://www.w3.org/2000/svg">
  <path d="M 648.5 887  C 652.14 887  655 889.86  655 893.5  C 655 897.14  652.14 900  648.5 900  C 644.86 900  642 897.14  642 893.5  C 642 889.86  644.86 887  648.5 887  Z " fill-rule="nonzero" fill="rgba(255, 255, 255, 1)" stroke="none" class="fill" />
  <path d="M 648.5 887.5  C 651.86 887.5  654.5 890.14  654.5 893.5  C 654.5 896.86  651.86 899.5  648.5 899.5  C 645.14 899.5  642.5 896.86  642.5 893.5  C 642.5 890.14  645.14 887.5  648.5 887.5  Z " stroke-width="1" stroke-dasharray="0" stroke="rgba(121, 121, 121, 1)" fill="none" class="stroke" stroke-dashoffset="0.5" />
  <path d="M 648.5 896.75  C 646.68 896.75  645.25 895.32  645.25 893.5  C 645.25 891.68  646.68 890.25  648.5 890.25  C 650.32 890.25  651.75 891.68  651.75 893.5  C 651.75 895.32  650.32 896.75  648.5 896.75  " fill-rule="nonzero" fill="rgba(121, 121, 121, 1)" stroke="none" class="stroke btn_check" />
</svg>