<?xml version="1.0" encoding="utf-8"?>
<svg version="1.1" xmlns:xlink="http://www.w3.org/1999/xlink" width="13px" height="13px" viewBox="760 887 13 13" xmlns="http://www.w3.org/2000/svg">
  <path d="M 766.5 887  C 770.14 887  773 889.86  773 893.5  C 773 897.14  770.14 900  766.5 900  C 762.86 900  760 897.14  760 893.5  C 760 889.86  762.86 887  766.5 887  Z " fill-rule="nonzero" fill="rgba(240, 240, 240, 1)" stroke="none" class="fill" />
  <path d="M 766.5 887.5  C 769.86 887.5  772.5 890.14  772.5 893.5  C 772.5 896.86  769.86 899.5  766.5 899.5  C 763.14 899.5  760.5 896.86  760.5 893.5  C 760.5 890.14  763.14 887.5  766.5 887.5  Z " stroke-width="1" stroke-dasharray="0" stroke="rgba(121, 121, 121, 1)" fill="none" class="stroke" stroke-dashoffset="0.5" />
  <path d="M 766.5 896.75  C 764.68 896.75  763.25 895.32  763.25 893.5  C 763.25 891.68  764.68 890.25  766.5 890.25  C 768.32 890.25  769.75 891.68  769.75 893.5  C 769.75 895.32  768.32 896.75  766.5 896.75  " fill-rule="nonzero" fill="rgba(121, 121, 121, 1)" stroke="none" class="stroke btn_check" />
</svg>