<?xml version="1.0" encoding="utf-8"?>
<svg version="1.1" xmlns:xlink="http://www.w3.org/1999/xlink" width="13px" height="13px" viewBox="1101 1453 13 13" xmlns="http://www.w3.org/2000/svg">
  <path d="M 1107.5 1453  C 1111.14 1453  1114 1455.86  1114 1459.5  C 1114 1463.14  1111.14 1466  1107.5 1466  C 1103.86 1466  1101 1463.14  1101 1459.5  C 1101 1455.86  1103.86 1453  1107.5 1453  Z " fill-rule="nonzero" fill="rgba(240, 240, 240, 1)" stroke="none" class="fill" />
  <path d="M 1107.5 1453.5  C 1110.86 1453.5  1113.5 1456.14  1113.5 1459.5  C 1113.5 1462.86  1110.86 1465.5  1107.5 1465.5  C 1104.14 1465.5  1101.5 1462.86  1101.5 1459.5  C 1101.5 1456.14  1104.14 1453.5  1107.5 1453.5  Z " stroke-width="1" stroke-dasharray="0" stroke="rgba(121, 121, 121, 1)" fill="none" class="stroke" stroke-dashoffset="0.5" />
  <path d="M 1107.5 1462.75  C 1105.68 1462.75  1104.25 1461.32  1104.25 1459.5  C 1104.25 1457.68  1105.68 1456.25  1107.5 1456.25  C 1109.32 1456.25  1110.75 1457.68  1110.75 1459.5  C 1110.75 1461.32  1109.32 1462.75  1107.5 1462.75  " fill-rule="nonzero" fill="rgba(121, 121, 121, 1)" stroke="none" class="stroke btn_check" />
</svg>