<?xml version="1.0" encoding="utf-8"?>
<svg version="1.1" xmlns:xlink="http://www.w3.org/1999/xlink" width="13px" height="13px" viewBox="1220 1453 13 13" xmlns="http://www.w3.org/2000/svg">
  <path d="M 1226.5 1453  C 1230.14 1453  1233 1455.86  1233 1459.5  C 1233 1463.14  1230.14 1466  1226.5 1466  C 1222.86 1466  1220 1463.14  1220 1459.5  C 1220 1455.86  1222.86 1453  1226.5 1453  Z " fill-rule="nonzero" fill="rgba(240, 240, 240, 1)" stroke="none" class="fill" />
  <path d="M 1226.5 1453.5  C 1229.86 1453.5  1232.5 1456.14  1232.5 1459.5  C 1232.5 1462.86  1229.86 1465.5  1226.5 1465.5  C 1223.14 1465.5  1220.5 1462.86  1220.5 1459.5  C 1220.5 1456.14  1223.14 1453.5  1226.5 1453.5  Z " stroke-width="1" stroke-dasharray="0" stroke="rgba(121, 121, 121, 1)" fill="none" class="stroke" stroke-dashoffset="0.5" />
  <path d="M 1226.5 1462.75  C 1224.68 1462.75  1223.25 1461.32  1223.25 1459.5  C 1223.25 1457.68  1224.68 1456.25  1226.5 1456.25  C 1228.32 1456.25  1229.75 1457.68  1229.75 1459.5  C 1229.75 1461.32  1228.32 1462.75  1226.5 1462.75  " fill-rule="nonzero" fill="rgba(121, 121, 121, 1)" stroke="none" class="stroke btn_check" />
</svg>