<?xml version="1.0" encoding="utf-8"?>
<svg version="1.1" xmlns:xlink="http://www.w3.org/1999/xlink" width="13px" height="13px" viewBox="2037 1443 13 13" xmlns="http://www.w3.org/2000/svg">
  <path d="M 2043.5 1443  C 2047.14 1443  2050 1445.86  2050 1449.5  C 2050 1453.14  2047.14 1456  2043.5 1456  C 2039.86 1456  2037 1453.14  2037 1449.5  C 2037 1445.86  2039.86 1443  2043.5 1443  Z " fill-rule="nonzero" fill="rgba(240, 240, 240, 1)" stroke="none" class="fill" />
  <path d="M 2043.5 1443.5  C 2046.86 1443.5  2049.5 1446.14  2049.5 1449.5  C 2049.5 1452.86  2046.86 1455.5  2043.5 1455.5  C 2040.14 1455.5  2037.5 1452.86  2037.5 1449.5  C 2037.5 1446.14  2040.14 1443.5  2043.5 1443.5  Z " stroke-width="1" stroke-dasharray="0" stroke="rgba(121, 121, 121, 1)" fill="none" class="stroke" stroke-dashoffset="0.5" />
  <path d="M 2043.5 1452.75  C 2041.68 1452.75  2040.25 1451.32  2040.25 1449.5  C 2040.25 1447.68  2041.68 1446.25  2043.5 1446.25  C 2045.32 1446.25  2046.75 1447.68  2046.75 1449.5  C 2046.75 1451.32  2045.32 1452.75  2043.5 1452.75  " fill-rule="nonzero" fill="rgba(121, 121, 121, 1)" stroke="none" class="stroke btn_check" />
</svg>