<?xml version="1.0" encoding="utf-8"?>
<svg version="1.1" xmlns:xlink="http://www.w3.org/1999/xlink" width="13px" height="13px" viewBox="2156 1443 13 13" xmlns="http://www.w3.org/2000/svg">
  <path d="M 2162.5 1443  C 2166.14 1443  2169 1445.86  2169 1449.5  C 2169 1453.14  2166.14 1456  2162.5 1456  C 2158.86 1456  2156 1453.14  2156 1449.5  C 2156 1445.86  2158.86 1443  2162.5 1443  Z " fill-rule="nonzero" fill="rgba(255, 255, 255, 1)" stroke="none" class="fill" />
  <path d="M 2162.5 1443.5  C 2165.86 1443.5  2168.5 1446.14  2168.5 1449.5  C 2168.5 1452.86  2165.86 1455.5  2162.5 1455.5  C 2159.14 1455.5  2156.5 1452.86  2156.5 1449.5  C 2156.5 1446.14  2159.14 1443.5  2162.5 1443.5  Z " stroke-width="1" stroke-dasharray="0" stroke="rgba(121, 121, 121, 1)" fill="none" class="stroke" stroke-dashoffset="0.5" />
  <path d="M 2162.5 1452.75  C 2160.68 1452.75  2159.25 1451.32  2159.25 1449.5  C 2159.25 1447.68  2160.68 1446.25  2162.5 1446.25  C 2164.32 1446.25  2165.75 1447.68  2165.75 1449.5  C 2165.75 1451.32  2164.32 1452.75  2162.5 1452.75  " fill-rule="nonzero" fill="rgba(121, 121, 121, 1)" stroke="none" class="stroke btn_check" />
</svg>