<?xml version="1.0" encoding="utf-8"?>
<svg version="1.1" xmlns:xlink="http://www.w3.org/1999/xlink" width="13px" height="13px" viewBox="2274 1443 13 13" xmlns="http://www.w3.org/2000/svg">
  <path d="M 2280.5 1443  C 2284.14 1443  2287 1445.86  2287 1449.5  C 2287 1453.14  2284.14 1456  2280.5 1456  C 2276.86 1456  2274 1453.14  2274 1449.5  C 2274 1445.86  2276.86 1443  2280.5 1443  Z " fill-rule="nonzero" fill="rgba(255, 255, 255, 1)" stroke="none" class="fill" />
  <path d="M 2280.5 1443.5  C 2283.86 1443.5  2286.5 1446.14  2286.5 1449.5  C 2286.5 1452.86  2283.86 1455.5  2280.5 1455.5  C 2277.14 1455.5  2274.5 1452.86  2274.5 1449.5  C 2274.5 1446.14  2277.14 1443.5  2280.5 1443.5  Z " stroke-width="1" stroke-dasharray="0" stroke="rgba(121, 121, 121, 1)" fill="none" class="stroke" stroke-dashoffset="0.5" />
  <path d="M 2280.5 1452.75  C 2278.68 1452.75  2277.25 1451.32  2277.25 1449.5  C 2277.25 1447.68  2278.68 1446.25  2280.5 1446.25  C 2282.32 1446.25  2283.75 1447.68  2283.75 1449.5  C 2283.75 1451.32  2282.32 1452.75  2280.5 1452.75  " fill-rule="nonzero" fill="rgba(121, 121, 121, 1)" stroke="none" class="stroke btn_check" />
</svg>