<?xml version="1.0" encoding="utf-8"?>
<svg version="1.1" xmlns:xlink="http://www.w3.org/1999/xlink" width="21px" height="20px" preserveAspectRatio="xMinYMid meet" viewBox="374 3035 21 18" xmlns="http://www.w3.org/2000/svg">
  <path d="M 387 3044  L 442 3044  A 5 5 0 0 1 447 3049 L 447 3067  A 5 5 0 0 0 452 3072 L 505 3072  " stroke-width="2" stroke-dasharray="0" stroke="rgba(217, 0, 27, 1)" fill="none" class="stroke" />
  <path d="M 384.5 3040.5  A 3.5 3.5 0 0 0 381 3044 A 3.5 3.5 0 0 0 384.5 3047.5 A 3.5 3.5 0 0 0 388 3044 A 3.5 3.5 0 0 0 384.5 3040.5 Z M 384.5 3042.5  A 1.5 1.5 0 0 1 386 3044 A 1.5 1.5 0 0 1 384.5 3045.5 A 1.5 1.5 0 0 1 383 3044 A 1.5 1.5 0 0 1 384.5 3042.5 Z M 497.6 3080  L 507 3072  L 497.6 3064  L 501.2 3072  L 497.6 3080  Z " fill-rule="nonzero" fill="rgba(217, 0, 27, 1)" stroke="none" class="fill" />
</svg>