<?xml version="1.0" encoding="utf-8"?>
<svg version="1.1" xmlns:xlink="http://www.w3.org/1999/xlink" width="13px" height="13px" viewBox="99 2522 13 13" xmlns="http://www.w3.org/2000/svg">
  <path d="M 105.5 2522  C 109.14 2522  112 2524.86  112 2528.5  C 112 2532.14  109.14 2535  105.5 2535  C 101.86 2535  99 2532.14  99 2528.5  C 99 2524.86  101.86 2522  105.5 2522  Z " fill-rule="nonzero" fill="rgba(240, 240, 240, 1)" stroke="none" class="fill" />
  <path d="M 105.5 2522.5  C 108.86 2522.5  111.5 2525.14  111.5 2528.5  C 111.5 2531.86  108.86 2534.5  105.5 2534.5  C 102.14 2534.5  99.5 2531.86  99.5 2528.5  C 99.5 2525.14  102.14 2522.5  105.5 2522.5  Z " stroke-width="1" stroke-dasharray="0" stroke="rgba(121, 121, 121, 1)" fill="none" class="stroke" stroke-dashoffset="0.5" />
  <path d="M 105.5 2531.75  C 103.68 2531.75  102.25 2530.32  102.25 2528.5  C 102.25 2526.68  103.68 2525.25  105.5 2525.25  C 107.32 2525.25  108.75 2526.68  108.75 2528.5  C 108.75 2530.32  107.32 2531.75  105.5 2531.75  " fill-rule="nonzero" fill="rgba(121, 121, 121, 1)" stroke="none" class="stroke btn_check" />
</svg>