<?xml version="1.0" encoding="utf-8"?>
<svg version="1.1" xmlns:xlink="http://www.w3.org/1999/xlink" width="13px" height="13px" viewBox="336 2522 13 13" xmlns="http://www.w3.org/2000/svg">
  <path d="M 342.5 2522  C 346.14 2522  349 2524.86  349 2528.5  C 349 2532.14  346.14 2535  342.5 2535  C 338.86 2535  336 2532.14  336 2528.5  C 336 2524.86  338.86 2522  342.5 2522  Z " fill-rule="nonzero" fill="rgba(255, 255, 255, 1)" stroke="none" class="fill" />
  <path d="M 342.5 2522.5  C 345.86 2522.5  348.5 2525.14  348.5 2528.5  C 348.5 2531.86  345.86 2534.5  342.5 2534.5  C 339.14 2534.5  336.5 2531.86  336.5 2528.5  C 336.5 2525.14  339.14 2522.5  342.5 2522.5  Z " stroke-width="1" stroke-dasharray="0" stroke="rgba(121, 121, 121, 1)" fill="none" class="stroke" stroke-dashoffset="0.5" />
  <path d="M 342.5 2531.75  C 340.68 2531.75  339.25 2530.32  339.25 2528.5  C 339.25 2526.68  340.68 2525.25  342.5 2525.25  C 344.32 2525.25  345.75 2526.68  345.75 2528.5  C 345.75 2530.32  344.32 2531.75  342.5 2531.75  " fill-rule="nonzero" fill="rgba(121, 121, 121, 1)" stroke="none" class="stroke btn_check" />
</svg>