<?xml version="1.0" encoding="utf-8"?>
<svg version="1.1" xmlns:xlink="http://www.w3.org/1999/xlink" width="32px" height="32px" preserveAspectRatio="xMinYMid meet" viewBox="367 378 32 30" xmlns="http://www.w3.org/2000/svg">
  <path d="M 383.5 300  L 383.5 393  " stroke-width="1" stroke-dasharray="0" stroke="rgba(217, 0, 27, 1)" fill="none" class="stroke" />
  <path d="M 383.5 295  A 3 3 0 0 0 380.5 298 A 3 3 0 0 0 383.5 301 A 3 3 0 0 0 386.5 298 A 3 3 0 0 0 383.5 295 Z M 383.5 296  A 2 2 0 0 1 385.5 298 A 2 2 0 0 1 383.5 300 A 2 2 0 0 1 381.5 298 A 2 2 0 0 1 383.5 296 Z M 377.5 387.3  L 383.5 394  L 389.5 387.3  L 383.5 389.6  L 377.5 387.3  Z " fill-rule="nonzero" fill="rgba(217, 0, 27, 1)" stroke="none" class="fill" />
</svg>