<?xml version="1.0" encoding="utf-8"?>
<svg version="1.1" xmlns:xlink="http://www.w3.org/1999/xlink" width="18px" height="18px" preserveAspectRatio="xMinYMid meet" viewBox="578 260 18 16" xmlns="http://www.w3.org/2000/svg">
  <path d="M 589 268.5  L 635 268.5  " stroke-width="1" stroke-dasharray="0" stroke="rgba(217, 0, 27, 1)" fill="none" class="stroke" />
  <path d="M 587 265.5  A 3 3 0 0 0 584 268.5 A 3 3 0 0 0 587 271.5 A 3 3 0 0 0 590 268.5 A 3 3 0 0 0 587 265.5 Z M 587 266.5  A 2 2 0 0 1 589 268.5 A 2 2 0 0 1 587 270.5 A 2 2 0 0 1 585 268.5 A 2 2 0 0 1 587 266.5 Z M 629.3 274.5  L 636 268.5  L 629.3 262.5  L 631.6 268.5  L 629.3 274.5  Z " fill-rule="nonzero" fill="rgba(217, 0, 27, 1)" stroke="none" class="fill" />
</svg>