<?xml version="1.0" encoding="utf-8"?>
<svg version="1.1" xmlns:xlink="http://www.w3.org/1999/xlink" width="13px" height="13px" viewBox="218 3183 13 13" xmlns="http://www.w3.org/2000/svg">
  <path d="M 224.5 3183  C 228.14 3183  231 3185.86  231 3189.5  C 231 3193.14  228.14 3196  224.5 3196  C 220.86 3196  218 3193.14  218 3189.5  C 218 3185.86  220.86 3183  224.5 3183  Z " fill-rule="nonzero" fill="rgba(255, 255, 255, 1)" stroke="none" class="fill" />
  <path d="M 224.5 3183.5  C 227.86 3183.5  230.5 3186.14  230.5 3189.5  C 230.5 3192.86  227.86 3195.5  224.5 3195.5  C 221.14 3195.5  218.5 3192.86  218.5 3189.5  C 218.5 3186.14  221.14 3183.5  224.5 3183.5  Z " stroke-width="1" stroke-dasharray="0" stroke="rgba(121, 121, 121, 1)" fill="none" class="stroke" stroke-dashoffset="0.5" />
  <path d="M 224.5 3192.75  C 222.68 3192.75  221.25 3191.32  221.25 3189.5  C 221.25 3187.68  222.68 3186.25  224.5 3186.25  C 226.32 3186.25  227.75 3187.68  227.75 3189.5  C 227.75 3191.32  226.32 3192.75  224.5 3192.75  " fill-rule="nonzero" fill="rgba(121, 121, 121, 1)" stroke="none" class="stroke btn_check" />
</svg>