<?xml version="1.0" encoding="utf-8"?>
<svg version="1.1" xmlns:xlink="http://www.w3.org/1999/xlink" width="13px" height="13px" viewBox="336 3183 13 13" xmlns="http://www.w3.org/2000/svg">
  <path d="M 342.5 3183  C 346.14 3183  349 3185.86  349 3189.5  C 349 3193.14  346.14 3196  342.5 3196  C 338.86 3196  336 3193.14  336 3189.5  C 336 3185.86  338.86 3183  342.5 3183  Z " fill-rule="nonzero" fill="rgba(255, 255, 255, 1)" stroke="none" class="fill" />
  <path d="M 342.5 3183.5  C 345.86 3183.5  348.5 3186.14  348.5 3189.5  C 348.5 3192.86  345.86 3195.5  342.5 3195.5  C 339.14 3195.5  336.5 3192.86  336.5 3189.5  C 336.5 3186.14  339.14 3183.5  342.5 3183.5  Z " stroke-width="1" stroke-dasharray="0" stroke="rgba(121, 121, 121, 1)" fill="none" class="stroke" stroke-dashoffset="0.5" />
  <path d="M 342.5 3192.75  C 340.68 3192.75  339.25 3191.32  339.25 3189.5  C 339.25 3187.68  340.68 3186.25  342.5 3186.25  C 344.32 3186.25  345.75 3187.68  345.75 3189.5  C 345.75 3191.32  344.32 3192.75  342.5 3192.75  " fill-rule="nonzero" fill="rgba(121, 121, 121, 1)" stroke="none" class="stroke btn_check" />
</svg>