<?xml version="1.0" encoding="utf-8"?>
<svg version="1.1" xmlns:xlink="http://www.w3.org/1999/xlink" width="21px" height="20px" preserveAspectRatio="xMinYMid meet" viewBox="374 3055 21 18" xmlns="http://www.w3.org/2000/svg">
  <path d="M 387 3064  L 443 3064  A 4 4 0 0 1 447 3068 A 4 4 0 0 0 451 3072 L 505 3072  " stroke-width="2" stroke-dasharray="0" stroke="rgba(217, 0, 27, 1)" fill="none" class="stroke" />
  <path d="M 384.5 3060.5  A 3.5 3.5 0 0 0 381 3064 A 3.5 3.5 0 0 0 384.5 3067.5 A 3.5 3.5 0 0 0 388 3064 A 3.5 3.5 0 0 0 384.5 3060.5 Z M 384.5 3062.5  A 1.5 1.5 0 0 1 386 3064 A 1.5 1.5 0 0 1 384.5 3065.5 A 1.5 1.5 0 0 1 383 3064 A 1.5 1.5 0 0 1 384.5 3062.5 Z M 497.6 3080  L 507 3072  L 497.6 3064  L 501.2 3072  L 497.6 3080  Z " fill-rule="nonzero" fill="rgba(217, 0, 27, 1)" stroke="none" class="fill" />
</svg>