<?xml version="1.0" encoding="utf-8"?>
<svg version="1.1" xmlns:xlink="http://www.w3.org/1999/xlink" width="10px" height="99px" preserveAspectRatio="xMidYMin meet" viewBox="351 2713 8 99" xmlns="http://www.w3.org/2000/svg">
  <defs>
    <mask fill="white" id="Clip57">
      <path d="M 234 2787  L 354 2787  L 354 2827  L 234 2827  Z M 228 2703  L 365 2703  L 365 2930  L 228 2930  Z " fill-rule="evenodd" />
    </mask>
  </defs>
  <path d="M 355 2719  L 355 2802  A 5 5 0 0 1 350 2807 L 250 2807  A 5 5 0 0 0 245 2812 L 245 2911  " stroke-width="2" stroke-dasharray="0" stroke="rgba(217, 0, 27, 1)" fill="none" class="stroke" mask="url(#Clip57)" />
  <path d="M 355 2713  A 3.5 3.5 0 0 0 351.5 2716.5 A 3.5 3.5 0 0 0 355 2720 A 3.5 3.5 0 0 0 358.5 2716.5 A 3.5 3.5 0 0 0 355 2713 Z M 355 2715  A 1.5 1.5 0 0 1 356.5 2716.5 A 1.5 1.5 0 0 1 355 2718 A 1.5 1.5 0 0 1 353.5 2716.5 A 1.5 1.5 0 0 1 355 2715 Z M 237 2903.6  L 245 2913  L 253 2903.6  L 245 2907.2  L 237 2903.6  Z " fill-rule="nonzero" fill="rgba(217, 0, 27, 1)" stroke="none" class="fill" mask="url(#Clip57)" />
</svg>