<?xml version="1.0" encoding="utf-8"?>
<svg version="1.1" xmlns:xlink="http://www.w3.org/1999/xlink" width="21px" height="20px" preserveAspectRatio="xMinYMid meet" viewBox="373 3218 21 18" xmlns="http://www.w3.org/2000/svg">
  <path d="M 386 3227  L 440.5033557046979 3227  A 5 5 0 0 0 445.5033557046979 3222 L 445.5033557046979 3077  A 5 5 0 0 1 450.5033557046979 3072 L 505 3072  " stroke-width="2" stroke-dasharray="0" stroke="rgba(217, 0, 27, 1)" fill="none" class="stroke" />
  <path d="M 383.5 3223.5  A 3.5 3.5 0 0 0 380 3227 A 3.5 3.5 0 0 0 383.5 3230.5 A 3.5 3.5 0 0 0 387 3227 A 3.5 3.5 0 0 0 383.5 3223.5 Z M 383.5 3225.5  A 1.5 1.5 0 0 1 385 3227 A 1.5 1.5 0 0 1 383.5 3228.5 A 1.5 1.5 0 0 1 382 3227 A 1.5 1.5 0 0 1 383.5 3225.5 Z M 497.6 3080  L 507 3072  L 497.6 3064  L 501.2 3072  L 497.6 3080  Z " fill-rule="nonzero" fill="rgba(217, 0, 27, 1)" stroke="none" class="fill" />
</svg>