<?xml version="1.0" encoding="utf-8"?>
<svg version="1.1" xmlns:xlink="http://www.w3.org/1999/xlink" width="13px" height="13px" viewBox="339 1464 13 13" xmlns="http://www.w3.org/2000/svg">
  <path d="M 345.5 1464  C 349.14 1464  352 1466.86  352 1470.5  C 352 1474.14  349.14 1477  345.5 1477  C 341.86 1477  339 1474.14  339 1470.5  C 339 1466.86  341.86 1464  345.5 1464  Z " fill-rule="nonzero" fill="rgba(240, 240, 240, 1)" stroke="none" class="fill" />
  <path d="M 345.5 1464.5  C 348.86 1464.5  351.5 1467.14  351.5 1470.5  C 351.5 1473.86  348.86 1476.5  345.5 1476.5  C 342.14 1476.5  339.5 1473.86  339.5 1470.5  C 339.5 1467.14  342.14 1464.5  345.5 1464.5  Z " stroke-width="1" stroke-dasharray="0" stroke="rgba(121, 121, 121, 1)" fill="none" class="stroke" stroke-dashoffset="0.5" />
  <path d="M 345.5 1473.75  C 343.68 1473.75  342.25 1472.32  342.25 1470.5  C 342.25 1468.68  343.68 1467.25  345.5 1467.25  C 347.32 1467.25  348.75 1468.68  348.75 1470.5  C 348.75 1472.32  347.32 1473.75  345.5 1473.75  " fill-rule="nonzero" fill="rgba(121, 121, 121, 1)" stroke="none" class="stroke btn_check" />
</svg>