<?xml version="1.0" encoding="utf-8"?>
<svg version="1.1" xmlns:xlink="http://www.w3.org/1999/xlink" width="20px" height="21px" preserveAspectRatio="xMidYMin meet" viewBox="689 1076 18 21" xmlns="http://www.w3.org/2000/svg">
  <path d="M 698 1089  L 698 1142  " stroke-width="2" stroke-dasharray="0" stroke="rgba(217, 0, 27, 1)" fill="none" class="stroke" />
  <path d="M 698 1083  A 3.5 3.5 0 0 0 694.5 1086.5 A 3.5 3.5 0 0 0 698 1090 A 3.5 3.5 0 0 0 701.5 1086.5 A 3.5 3.5 0 0 0 698 1083 Z M 698 1085  A 1.5 1.5 0 0 1 699.5 1086.5 A 1.5 1.5 0 0 1 698 1088 A 1.5 1.5 0 0 1 696.5 1086.5 A 1.5 1.5 0 0 1 698 1085 Z M 690 1134.6  L 698 1144  L 706 1134.6  L 698 1138.2  L 690 1134.6  Z " fill-rule="nonzero" fill="rgba(217, 0, 27, 1)" stroke="none" class="fill" />
</svg>