<?xml version="1.0" encoding="utf-8"?>
<svg version="1.1" xmlns:xlink="http://www.w3.org/1999/xlink" width="10px" height="70px" preserveAspectRatio="xMidYMin meet" viewBox="2179 1594 8 70" xmlns="http://www.w3.org/2000/svg">
  <path d="M 2221 1540  L 2221 1594  A 5 5 0 0 1 2216 1599 L 2188 1599  A 5 5 0 0 0 2183 1604 L 2183 1662  " stroke-width="2" stroke-dasharray="0" stroke="rgba(217, 0, 27, 1)" fill="none" class="stroke" />
  <path d="M 2221 1534  A 3.5 3.5 0 0 0 2217.5 1537.5 A 3.5 3.5 0 0 0 2221 1541 A 3.5 3.5 0 0 0 2224.5 1537.5 A 3.5 3.5 0 0 0 2221 1534 Z M 2221 1536  A 1.5 1.5 0 0 1 2222.5 1537.5 A 1.5 1.5 0 0 1 2221 1539 A 1.5 1.5 0 0 1 2219.5 1537.5 A 1.5 1.5 0 0 1 2221 1536 Z M 2175 1654.6  L 2183 1664  L 2191 1654.6  L 2183 1658.2  L 2175 1654.6  Z " fill-rule="nonzero" fill="rgba(217, 0, 27, 1)" stroke="none" class="fill" />
</svg>