<?xml version="1.0" encoding="utf-8"?>
<svg version="1.1" xmlns:xlink="http://www.w3.org/1999/xlink" width="20px" height="21px" preserveAspectRatio="xMidYMin meet" viewBox="1694 1344 18 21" xmlns="http://www.w3.org/2000/svg">
  <defs>
    <mask fill="white" id="Clip94">
      <path d="M 1897.5 1382  L 1944.5 1382  L 1944.5 1407  L 1897.5 1407  Z M 1693 1341  L 2151 1341  L 2151 1460  L 1693 1460  Z " fill-rule="evenodd" />
    </mask>
  </defs>
  <path d="M 1703 1357  L 1703 1389  A 5 5 0 0 0 1708 1394 L 2129 1394  A 5 5 0 0 1 2134 1399 L 2134 1441  " stroke-width="2" stroke-dasharray="0" stroke="rgba(217, 0, 27, 1)" fill="none" class="stroke" mask="url(#Clip94)" />
  <path d="M 1703 1351  A 3.5 3.5 0 0 0 1699.5 1354.5 A 3.5 3.5 0 0 0 1703 1358 A 3.5 3.5 0 0 0 1706.5 1354.5 A 3.5 3.5 0 0 0 1703 1351 Z M 1703 1353  A 1.5 1.5 0 0 1 1704.5 1354.5 A 1.5 1.5 0 0 1 1703 1356 A 1.5 1.5 0 0 1 1701.5 1354.5 A 1.5 1.5 0 0 1 1703 1353 Z M 2126 1433.6  L 2134 1443  L 2142 1433.6  L 2134 1437.2  L 2126 1433.6  Z " fill-rule="nonzero" fill="rgba(217, 0, 27, 1)" stroke="none" class="fill" mask="url(#Clip94)" />
</svg>