<?xml version="1.0" encoding="utf-8"?>
<svg version="1.1" xmlns:xlink="http://www.w3.org/1999/xlink" width="34px" height="34px" preserveAspectRatio="xMinYMid meet" viewBox="1396 1586 34 32" xmlns="http://www.w3.org/2000/svg">
  <path d="M 1301 1739  L 1350 1739  A 5 5 0 0 0 1355 1734 L 1355 1607  A 5 5 0 0 1 1360 1602 L 1413 1602  " stroke-width="2" stroke-dasharray="0" stroke="rgba(217, 0, 27, 1)" fill="none" class="stroke" />
  <path d="M 1298.5 1735.5  A 3.5 3.5 0 0 0 1295 1739 A 3.5 3.5 0 0 0 1298.5 1742.5 A 3.5 3.5 0 0 0 1302 1739 A 3.5 3.5 0 0 0 1298.5 1735.5 Z M 1298.5 1737.5  A 1.5 1.5 0 0 1 1300 1739 A 1.5 1.5 0 0 1 1298.5 1740.5 A 1.5 1.5 0 0 1 1297 1739 A 1.5 1.5 0 0 1 1298.5 1737.5 Z M 1405.6 1610  L 1415 1602  L 1405.6 1594  L 1409.2 1602  L 1405.6 1610  Z " fill-rule="nonzero" fill="rgba(217, 0, 27, 1)" stroke="none" class="fill" />
</svg>