<?xml version="1.0" encoding="utf-8"?>
<svg version="1.1" xmlns:xlink="http://www.w3.org/1999/xlink" width="64px" height="10px" preserveAspectRatio="xMinYMid meet" viewBox="1295 1763 64 8" xmlns="http://www.w3.org/2000/svg">
  <path d="M 1301 1767  L 1349 1767  A 5 5 0 0 0 1354 1762 L 1354 1742  A 3 3 0 0 0 1357 1739 A 3 3 0 0 0 1354 1736 L 1354 1607  A 5 5 0 0 1 1359 1602 L 1413 1602  " stroke-width="2" stroke-dasharray="0" stroke="rgba(217, 0, 27, 1)" fill="none" class="stroke" />
  <path d="M 1298.5 1763.5  A 3.5 3.5 0 0 0 1295 1767 A 3.5 3.5 0 0 0 1298.5 1770.5 A 3.5 3.5 0 0 0 1302 1767 A 3.5 3.5 0 0 0 1298.5 1763.5 Z M 1298.5 1765.5  A 1.5 1.5 0 0 1 1300 1767 A 1.5 1.5 0 0 1 1298.5 1768.5 A 1.5 1.5 0 0 1 1297 1767 A 1.5 1.5 0 0 1 1298.5 1765.5 Z M 1405.6 1610  L 1415 1602  L 1405.6 1594  L 1409.2 1602  L 1405.6 1610  Z " fill-rule="nonzero" fill="rgba(217, 0, 27, 1)" stroke="none" class="fill" />
</svg>