<?xml version="1.0" encoding="utf-8"?>
<svg version="1.1" xmlns:xlink="http://www.w3.org/1999/xlink" width="10px" height="39px" preserveAspectRatio="xMidYMin meet" viewBox="2166 2052 8 39" xmlns="http://www.w3.org/2000/svg">
  <path d="M 2170 2085  L 2170 2062  A 5 5 0 0 0 2165 2057 L 2109 2057  A 5 5 0 0 1 2104 2052 L 2104 2025  " stroke-width="2" stroke-dasharray="0" stroke="rgba(217, 0, 27, 1)" fill="none" class="stroke" />
  <path d="M 2170 2084  A 3.5 3.5 0 0 0 2166.5 2087.5 A 3.5 3.5 0 0 0 2170 2091 A 3.5 3.5 0 0 0 2173.5 2087.5 A 3.5 3.5 0 0 0 2170 2084 Z M 2170 2086  A 1.5 1.5 0 0 1 2171.5 2087.5 A 1.5 1.5 0 0 1 2170 2089 A 1.5 1.5 0 0 1 2168.5 2087.5 A 1.5 1.5 0 0 1 2170 2086 Z M 2112 2032.4  L 2104 2023  L 2096 2032.4  L 2104 2028.8  L 2112 2032.4  Z " fill-rule="nonzero" fill="rgba(217, 0, 27, 1)" stroke="none" class="fill" />
</svg>