<?xml version="1.0" encoding="utf-8"?>
<svg version="1.1" xmlns:xlink="http://www.w3.org/1999/xlink" width="34px" height="34px" preserveAspectRatio="xMinYMid meet" viewBox="2402 1645 34 32" xmlns="http://www.w3.org/2000/svg">
  <path d="M 2234 1661  L 2419 1661  " stroke-width="2" stroke-dasharray="0" stroke="rgba(217, 0, 27, 1)" fill="none" class="stroke" />
  <path d="M 2231.5 1657.5  A 3.5 3.5 0 0 0 2228 1661 A 3.5 3.5 0 0 0 2231.5 1664.5 A 3.5 3.5 0 0 0 2235 1661 A 3.5 3.5 0 0 0 2231.5 1657.5 Z M 2231.5 1659.5  A 1.5 1.5 0 0 1 2233 1661 A 1.5 1.5 0 0 1 2231.5 1662.5 A 1.5 1.5 0 0 1 2230 1661 A 1.5 1.5 0 0 1 2231.5 1659.5 Z M 2411.6 1669  L 2421 1661  L 2411.6 1653  L 2415.2 1661  L 2411.6 1669  Z " fill-rule="nonzero" fill="rgba(217, 0, 27, 1)" stroke="none" class="fill" />
</svg>