<?xml version="1.0" encoding="utf-8"?>
<svg version="1.1" xmlns:xlink="http://www.w3.org/1999/xlink" width="125px" height="10px" preserveAspectRatio="xMinYMid meet" viewBox="630 937 125 8" xmlns="http://www.w3.org/2000/svg">
  <path d="M 636 941  L 745 941  A 5 5 0 0 0 750 936 L 750 789  A 5 5 0 0 1 755 784 L 872 784  " stroke-width="2" stroke-dasharray="0" stroke="rgba(217, 0, 27, 1)" fill="none" class="stroke" />
  <path d="M 633.5 937.5  A 3.5 3.5 0 0 0 630 941 A 3.5 3.5 0 0 0 633.5 944.5 A 3.5 3.5 0 0 0 637 941 A 3.5 3.5 0 0 0 633.5 937.5 Z M 633.5 939.5  A 1.5 1.5 0 0 1 635 941 A 1.5 1.5 0 0 1 633.5 942.5 A 1.5 1.5 0 0 1 632 941 A 1.5 1.5 0 0 1 633.5 939.5 Z M 864.6 792  L 874 784  L 864.6 776  L 868.2 784  L 864.6 792  Z " fill-rule="nonzero" fill="rgba(217, 0, 27, 1)" stroke="none" class="fill" />
</svg>