<?xml version="1.0" encoding="utf-8"?>
<svg version="1.1" xmlns:xlink="http://www.w3.org/1999/xlink" width="10px" height="174px" preserveAspectRatio="xMidYMin meet" viewBox="2236 1876 8 174" xmlns="http://www.w3.org/2000/svg">
  <path d="M 2240 1882  L 2240 2043  " stroke-width="2" stroke-dasharray="0" stroke="rgba(217, 0, 27, 1)" fill="none" class="stroke" />
  <path d="M 2240 1876  A 3.5 3.5 0 0 0 2236.5 1879.5 A 3.5 3.5 0 0 0 2240 1883 A 3.5 3.5 0 0 0 2243.5 1879.5 A 3.5 3.5 0 0 0 2240 1876 Z M 2240 1878  A 1.5 1.5 0 0 1 2241.5 1879.5 A 1.5 1.5 0 0 1 2240 1881 A 1.5 1.5 0 0 1 2238.5 1879.5 A 1.5 1.5 0 0 1 2240 1878 Z M 2232 2035.6  L 2240 2045  L 2248 2035.6  L 2240 2039.2  L 2232 2035.6  Z " fill-rule="nonzero" fill="rgba(217, 0, 27, 1)" stroke="none" class="fill" />
</svg>