<?xml version="1.0" encoding="utf-8"?>
<svg version="1.1" xmlns:xlink="http://www.w3.org/1999/xlink" width="34px" height="34px" preserveAspectRatio="xMinYMid meet" viewBox="2347 2009 34 32" xmlns="http://www.w3.org/2000/svg">
  <path d="M 2245 2098  L 2359 2098  A 5 5 0 0 0 2364 2093 L 2364 2025  " stroke-width="2" stroke-dasharray="0" stroke="rgba(217, 0, 27, 1)" fill="none" class="stroke" />
  <path d="M 2242.5 2094.5  A 3.5 3.5 0 0 0 2239 2098 A 3.5 3.5 0 0 0 2242.5 2101.5 A 3.5 3.5 0 0 0 2246 2098 A 3.5 3.5 0 0 0 2242.5 2094.5 Z M 2242.5 2096.5  A 1.5 1.5 0 0 1 2244 2098 A 1.5 1.5 0 0 1 2242.5 2099.5 A 1.5 1.5 0 0 1 2241 2098 A 1.5 1.5 0 0 1 2242.5 2096.5 Z M 2372 2032.4  L 2364 2023  L 2356 2032.4  L 2364 2028.8  L 2372 2032.4  Z " fill-rule="nonzero" fill="rgba(217, 0, 27, 1)" stroke="none" class="fill" />
</svg>