<?xml version="1.0" encoding="utf-8"?>
<svg version="1.1" xmlns:xlink="http://www.w3.org/1999/xlink" width="21px" height="20px" preserveAspectRatio="xMinYMid meet" viewBox="2097 1506 21 18" xmlns="http://www.w3.org/2000/svg">
  <path d="M 2110 1515  L 2344.3150684931506 1515  A 5 5 0 0 1 2349.3150684931506 1520 L 2349.3150684931506 1656  A 5 5 0 0 0 2354.3150684931506 1661 L 2419 1661  " stroke-width="2" stroke-dasharray="0" stroke="rgba(217, 0, 27, 1)" fill="none" class="stroke" />
  <path d="M 2107.5 1511.5  A 3.5 3.5 0 0 0 2104 1515 A 3.5 3.5 0 0 0 2107.5 1518.5 A 3.5 3.5 0 0 0 2111 1515 A 3.5 3.5 0 0 0 2107.5 1511.5 Z M 2107.5 1513.5  A 1.5 1.5 0 0 1 2109 1515 A 1.5 1.5 0 0 1 2107.5 1516.5 A 1.5 1.5 0 0 1 2106 1515 A 1.5 1.5 0 0 1 2107.5 1513.5 Z M 2411.6 1669  L 2421 1661  L 2411.6 1653  L 2415.2 1661  L 2411.6 1669  Z " fill-rule="nonzero" fill="rgba(217, 0, 27, 1)" stroke="none" class="fill" />
</svg>