<?xml version="1.0" encoding="utf-8"?>
<svg version="1.1" xmlns:xlink="http://www.w3.org/1999/xlink" width="21px" height="20px" preserveAspectRatio="xMinYMid meet" viewBox="2276 1856 21 18" xmlns="http://www.w3.org/2000/svg">
  <path d="M 2289 1865  L 2345 1865  A 5 5 0 0 0 2350 1860 L 2350 1666  A 5 5 0 0 1 2355 1661 L 2419 1661  " stroke-width="2" stroke-dasharray="0" stroke="rgba(217, 0, 27, 1)" fill="none" class="stroke" />
  <path d="M 2286.5 1861.5  A 3.5 3.5 0 0 0 2283 1865 A 3.5 3.5 0 0 0 2286.5 1868.5 A 3.5 3.5 0 0 0 2290 1865 A 3.5 3.5 0 0 0 2286.5 1861.5 Z M 2286.5 1863.5  A 1.5 1.5 0 0 1 2288 1865 A 1.5 1.5 0 0 1 2286.5 1866.5 A 1.5 1.5 0 0 1 2285 1865 A 1.5 1.5 0 0 1 2286.5 1863.5 Z M 2411.6 1669  L 2421 1661  L 2411.6 1653  L 2415.2 1661  L 2411.6 1669  Z " fill-rule="nonzero" fill="rgba(217, 0, 27, 1)" stroke="none" class="fill" />
</svg>