<?xml version="1.0" encoding="utf-8"?>
<svg version="1.1" xmlns:xlink="http://www.w3.org/1999/xlink" width="32px" height="32px" preserveAspectRatio="xMinYMid meet" viewBox="343 381 32 30" xmlns="http://www.w3.org/2000/svg">
  <path d="M 359.5 300  L 359.5 396  " stroke-width="1" stroke-dasharray="0" stroke="rgba(217, 0, 27, 1)" fill="none" class="stroke" />
  <path d="M 359.5 295  A 3 3 0 0 0 356.5 298 A 3 3 0 0 0 359.5 301 A 3 3 0 0 0 362.5 298 A 3 3 0 0 0 359.5 295 Z M 359.5 296  A 2 2 0 0 1 361.5 298 A 2 2 0 0 1 359.5 300 A 2 2 0 0 1 357.5 298 A 2 2 0 0 1 359.5 296 Z M 353.5 390.3  L 359.5 397  L 365.5 390.3  L 359.5 392.6  L 353.5 390.3  Z " fill-rule="nonzero" fill="rgba(217, 0, 27, 1)" stroke="none" class="fill" />
</svg>