<?xml version="1.0" encoding="utf-8"?>
<svg version="1.1" xmlns:xlink="http://www.w3.org/1999/xlink" width="235px" height="403px" xmlns="http://www.w3.org/2000/svg">
  <defs>
    <pattern id="BGPattern" patternUnits="userSpaceOnUse" alignment="0 0" imageRepeat="None" />
    <mask fill="white" id="Clip2">
      <path d="M 207.90798611111111 174.6689453125  C 212.6359953703704 179.40657552083331  215 185.01692708333331  215 191.5  C 215 197.98307291666663  212.6359953703704 203.59342447916663  207.90798611111111 208.3310546875  L 40.685763888888886 375.8935546875  C 35.95775462962963 380.63118489583337  30.3587962962963 383  23.88888888888889 383  C 17.418981481481485 383  11.820023148148149 380.63118489583337  7.092013888888889 375.8935546875  C 2.3640046296296298 371.15592447916663  0 365.54557291666663  0 359.0625  L 0 23.9375  C 0 17.454427083333275  2.3640046296296298 11.844075520833277  7.092013888888889 7.1064453125  C 11.820023148148149 2.3688151041666385  17.418981481481485 0  23.88888888888889 0  C 30.3587962962963 0  35.95775462962963 2.3688151041666385  40.685763888888886 7.1064453125  L 207.90798611111111 174.6689453125  Z " fill-rule="evenodd" />
    </mask>
  </defs>
  <g transform="matrix(1 0 0 1 -688 -365 )">
    <path d="M 207.90798611111111 174.6689453125  C 212.6359953703704 179.40657552083331  215 185.01692708333331  215 191.5  C 215 197.98307291666663  212.6359953703704 203.59342447916663  207.90798611111111 208.3310546875  L 40.685763888888886 375.8935546875  C 35.95775462962963 380.63118489583337  30.3587962962963 383  23.88888888888889 383  C 17.418981481481485 383  11.820023148148149 380.63118489583337  7.092013888888889 375.8935546875  C 2.3640046296296298 371.15592447916663  0 365.54557291666663  0 359.0625  L 0 23.9375  C 0 17.454427083333275  2.3640046296296298 11.844075520833277  7.092013888888889 7.1064453125  C 11.820023148148149 2.3688151041666385  17.418981481481485 0  23.88888888888889 0  C 30.3587962962963 0  35.95775462962963 2.3688151041666385  40.685763888888886 7.1064453125  L 207.90798611111111 174.6689453125  Z " fill-rule="nonzero" fill="rgba(0, 170, 170, 1)" stroke="none" transform="matrix(1 0 0 1 698 375 )" class="fill" />
    <path d="M 207.90798611111111 174.6689453125  C 212.6359953703704 179.40657552083331  215 185.01692708333331  215 191.5  C 215 197.98307291666663  212.6359953703704 203.59342447916663  207.90798611111111 208.3310546875  L 40.685763888888886 375.8935546875  C 35.95775462962963 380.63118489583337  30.3587962962963 383  23.88888888888889 383  C 17.418981481481485 383  11.820023148148149 380.63118489583337  7.092013888888889 375.8935546875  C 2.3640046296296298 371.15592447916663  0 365.54557291666663  0 359.0625  L 0 23.9375  C 0 17.454427083333275  2.3640046296296298 11.844075520833277  7.092013888888889 7.1064453125  C 11.820023148148149 2.3688151041666385  17.418981481481485 0  23.88888888888889 0  C 30.3587962962963 0  35.95775462962963 2.3688151041666385  40.685763888888886 7.1064453125  L 207.90798611111111 174.6689453125  Z " stroke-width="0" stroke-dasharray="0" stroke="rgba(255, 255, 255, 0)" fill="none" transform="matrix(1 0 0 1 698 375 )" class="stroke" mask="url(#Clip2)" />
  </g>
  <style>svg { filter: drop-shadow(0px 0px 5px rgba(0, 0, 0, 0.3137254901960784)); }</style>
</svg>