<?xml version="1.0" encoding="utf-8"?>
<svg version="1.1" xmlns:xlink="http://www.w3.org/1999/xlink" width="18px" height="18px" preserveAspectRatio="xMinYMid meet" viewBox="485 255 18 16" xmlns="http://www.w3.org/2000/svg">
  <path d="M 494.5 261  L 494.5 159  " stroke-width="1" stroke-dasharray="0" stroke="rgba(217, 0, 27, 1)" fill="none" class="stroke" />
  <path d="M 494.5 260  A 3 3 0 0 0 491.5 263 A 3 3 0 0 0 494.5 266 A 3 3 0 0 0 497.5 263 A 3 3 0 0 0 494.5 260 Z M 494.5 261  A 2 2 0 0 1 496.5 263 A 2 2 0 0 1 494.5 265 A 2 2 0 0 1 492.5 263 A 2 2 0 0 1 494.5 261 Z M 500.5 164.7  L 494.5 158  L 488.5 164.7  L 494.5 162.4  L 500.5 164.7  Z " fill-rule="nonzero" fill="rgba(217, 0, 27, 1)" stroke="none" class="fill" />
</svg>