<?xml version="1.0" encoding="utf-8"?>
<svg version="1.1" xmlns:xlink="http://www.w3.org/1999/xlink" width="49px" height="10px" preserveAspectRatio="xMinYMid meet" viewBox="2219 429 49 8" xmlns="http://www.w3.org/2000/svg">
  <path d="M 2262 433  L 2229 433  A 5 5 0 0 0 2224 438 L 2224 485  A 5 5 0 0 1 2219 490 L 2187 490  " stroke-width="2" stroke-dasharray="0" stroke="rgba(217, 0, 27, 1)" fill="none" class="stroke" />
  <path d="M 2264.5 429.5  A 3.5 3.5 0 0 0 2261 433 A 3.5 3.5 0 0 0 2264.5 436.5 A 3.5 3.5 0 0 0 2268 433 A 3.5 3.5 0 0 0 2264.5 429.5 Z M 2264.5 431.5  A 1.5 1.5 0 0 1 2266 433 A 1.5 1.5 0 0 1 2264.5 434.5 A 1.5 1.5 0 0 1 2263 433 A 1.5 1.5 0 0 1 2264.5 431.5 Z M 2188 482.4  L 2181 490  L 2188 497.6  L 2188 482.4  Z " fill-rule="nonzero" fill="rgba(217, 0, 27, 1)" stroke="none" class="fill" />
</svg>