<?xml version="1.0" encoding="utf-8"?>
<svg version="1.1" xmlns:xlink="http://www.w3.org/1999/xlink" width="20px" height="20px" preserveAspectRatio="xMinYMid meet" viewBox="2176 241 20 18" xmlns="http://www.w3.org/2000/svg">
  <path d="M 2262 300  L 2229 300  A 5 5 0 0 1 2224 295 L 2224 255  A 5 5 0 0 0 2219 250 L 2187 250  " stroke-width="2" stroke-dasharray="0" stroke="rgba(217, 0, 27, 1)" fill="none" class="stroke" />
  <path d="M 2264.5 296.5  A 3.5 3.5 0 0 0 2261 300 A 3.5 3.5 0 0 0 2264.5 303.5 A 3.5 3.5 0 0 0 2268 300 A 3.5 3.5 0 0 0 2264.5 296.5 Z M 2264.5 298.5  A 1.5 1.5 0 0 1 2266 300 A 1.5 1.5 0 0 1 2264.5 301.5 A 1.5 1.5 0 0 1 2263 300 A 1.5 1.5 0 0 1 2264.5 298.5 Z M 2188 242.4  L 2181 250  L 2188 257.6  L 2188 242.4  Z " fill-rule="nonzero" fill="rgba(217, 0, 27, 1)" stroke="none" class="fill" />
</svg>