<?xml version="1.0" encoding="utf-8"?>
<svg version="1.1" xmlns:xlink="http://www.w3.org/1999/xlink" width="280px" height="10px" preserveAspectRatio="xMinYMid meet" viewBox="3307 1063 280 8" xmlns="http://www.w3.org/2000/svg">
  <path d="M 3313 1067  L 3580 1067  " stroke-width="2" stroke-dasharray="0" stroke="rgba(217, 0, 27, 1)" fill="none" class="stroke" />
  <path d="M 3310.5 1063.5  A 3.5 3.5 0 0 0 3307 1067 A 3.5 3.5 0 0 0 3310.5 1070.5 A 3.5 3.5 0 0 0 3314 1067 A 3.5 3.5 0 0 0 3310.5 1063.5 Z M 3310.5 1065.5  A 1.5 1.5 0 0 1 3312 1067 A 1.5 1.5 0 0 1 3310.5 1068.5 A 1.5 1.5 0 0 1 3309 1067 A 1.5 1.5 0 0 1 3310.5 1065.5 Z M 3572.6 1075  L 3582 1067  L 3572.6 1059  L 3576.2 1067  L 3572.6 1075  Z " fill-rule="nonzero" fill="rgba(217, 0, 27, 1)" stroke="none" class="fill" />
</svg>