<?xml version="1.0" encoding="utf-8"?>
<svg version="1.1" xmlns:xlink="http://www.w3.org/1999/xlink" width="34px" height="34px" preserveAspectRatio="xMinYMid meet" viewBox="4449 1185 34 32" xmlns="http://www.w3.org/2000/svg">
  <path d="M 4246 1201  L 4466 1201  " stroke-width="2" stroke-dasharray="0" stroke="rgba(217, 0, 27, 1)" fill="none" class="stroke" />
  <path d="M 4243.5 1197.5  A 3.5 3.5 0 0 0 4240 1201 A 3.5 3.5 0 0 0 4243.5 1204.5 A 3.5 3.5 0 0 0 4247 1201 A 3.5 3.5 0 0 0 4243.5 1197.5 Z M 4243.5 1199.5  A 1.5 1.5 0 0 1 4245 1201 A 1.5 1.5 0 0 1 4243.5 1202.5 A 1.5 1.5 0 0 1 4242 1201 A 1.5 1.5 0 0 1 4243.5 1199.5 Z M 4458.6 1209  L 4468 1201  L 4458.6 1193  L 4462.2 1201  L 4458.6 1209  Z " fill-rule="nonzero" fill="rgba(217, 0, 27, 1)" stroke="none" class="fill" />
</svg>