<?xml version="1.0" encoding="utf-8"?>
<svg version="1.1" xmlns:xlink="http://www.w3.org/1999/xlink" width="64px" height="10px" preserveAspectRatio="xMinYMid meet" viewBox="4404 1197 64 8" xmlns="http://www.w3.org/2000/svg">
  <path d="M 4122 1001  L 4404 1001  A 5 5 0 0 1 4409 1006 L 4409 1196  A 5 5 0 0 0 4414 1201 L 4466 1201  " stroke-width="2" stroke-dasharray="0" stroke="rgba(217, 0, 27, 1)" fill="none" class="stroke" />
  <path d="M 4119.5 997.5  A 3.5 3.5 0 0 0 4116 1001 A 3.5 3.5 0 0 0 4119.5 1004.5 A 3.5 3.5 0 0 0 4123 1001 A 3.5 3.5 0 0 0 4119.5 997.5 Z M 4119.5 999.5  A 1.5 1.5 0 0 1 4121 1001 A 1.5 1.5 0 0 1 4119.5 1002.5 A 1.5 1.5 0 0 1 4118 1001 A 1.5 1.5 0 0 1 4119.5 999.5 Z M 4458.6 1209  L 4468 1201  L 4458.6 1193  L 4462.2 1201  L 4458.6 1209  Z " fill-rule="nonzero" fill="rgba(217, 0, 27, 1)" stroke="none" class="fill" />
</svg>