<?xml version="1.0" encoding="utf-8"?>
<svg version="1.1" xmlns:xlink="http://www.w3.org/1999/xlink" width="20px" height="21px" preserveAspectRatio="xMidYMin meet" viewBox="2390 538 18 21" xmlns="http://www.w3.org/2000/svg">
  <path d="M 2399 551  L 2399 630  " stroke-width="2" stroke-dasharray="0" stroke="rgba(217, 0, 27, 1)" fill="none" class="stroke" />
  <path d="M 2399 545  A 3.5 3.5 0 0 0 2395.5 548.5 A 3.5 3.5 0 0 0 2399 552 A 3.5 3.5 0 0 0 2402.5 548.5 A 3.5 3.5 0 0 0 2399 545 Z M 2399 547  A 1.5 1.5 0 0 1 2400.5 548.5 A 1.5 1.5 0 0 1 2399 550 A 1.5 1.5 0 0 1 2397.5 548.5 A 1.5 1.5 0 0 1 2399 547 Z M 2391 622.6  L 2399 632  L 2407 622.6  L 2399 626.2  L 2391 622.6  Z " fill-rule="nonzero" fill="rgba(217, 0, 27, 1)" stroke="none" class="fill" />
</svg>