<?xml version="1.0" encoding="utf-8"?>
<svg version="1.1" xmlns:xlink="http://www.w3.org/1999/xlink" width="21px" height="20px" preserveAspectRatio="xMinYMid meet" viewBox="2522 490 21 18" xmlns="http://www.w3.org/2000/svg">
  <path d="M 2535 499  L 2771 499  " stroke-width="2" stroke-dasharray="0" stroke="rgba(217, 0, 27, 1)" fill="none" class="stroke" />
  <path d="M 2532.5 495.5  A 3.5 3.5 0 0 0 2529 499 A 3.5 3.5 0 0 0 2532.5 502.5 A 3.5 3.5 0 0 0 2536 499 A 3.5 3.5 0 0 0 2532.5 495.5 Z M 2532.5 497.5  A 1.5 1.5 0 0 1 2534 499 A 1.5 1.5 0 0 1 2532.5 500.5 A 1.5 1.5 0 0 1 2531 499 A 1.5 1.5 0 0 1 2532.5 497.5 Z M 2763.6 507  L 2773 499  L 2763.6 491  L 2767.2 499  L 2763.6 507  Z " fill-rule="nonzero" fill="rgba(217, 0, 27, 1)" stroke="none" class="fill" />
</svg>