<?xml version="1.0" encoding="utf-8"?>
<svg version="1.1" xmlns:xlink="http://www.w3.org/1999/xlink" width="65px" height="10px" preserveAspectRatio="xMinYMid meet" viewBox="4403 1197 65 8" xmlns="http://www.w3.org/2000/svg">
  <path d="M 4367 1425  L 4403 1425  A 5 5 0 0 0 4408 1420 L 4408 1206  A 5 5 0 0 1 4413 1201 L 4466 1201  " stroke-width="2" stroke-dasharray="0" stroke="rgba(217, 0, 27, 1)" fill="none" class="stroke" />
  <path d="M 4364.5 1421.5  A 3.5 3.5 0 0 0 4361 1425 A 3.5 3.5 0 0 0 4364.5 1428.5 A 3.5 3.5 0 0 0 4368 1425 A 3.5 3.5 0 0 0 4364.5 1421.5 Z M 4364.5 1423.5  A 1.5 1.5 0 0 1 4366 1425 A 1.5 1.5 0 0 1 4364.5 1426.5 A 1.5 1.5 0 0 1 4363 1425 A 1.5 1.5 0 0 1 4364.5 1423.5 Z M 4458.6 1209  L 4468 1201  L 4458.6 1193  L 4462.2 1201  L 4458.6 1209  Z " fill-rule="nonzero" fill="rgba(217, 0, 27, 1)" stroke="none" class="fill" />
</svg>