<?xml version="1.0" encoding="utf-8"?>
<svg version="1.1" xmlns:xlink="http://www.w3.org/1999/xlink" width="195px" height="206px" xmlns="http://www.w3.org/2000/svg">
  <defs>
    <pattern id="BGPattern" patternUnits="userSpaceOnUse" alignment="0 0" imageRepeat="None" />
    <mask fill="white" id="Clip70">
      <path d="M 170.60122282608697 82.25545571245186  C 173.533740942029 85.04107830551989  175 88.62259306803593  175 93  C 175 97.29781771501926  173.533740942029 100.91912708600769  170.60122282608697 103.86392811296534  L 93.20652173913044 181.58279845956355  C 90.1154891304348 184.52759948652118  86.50928442028986 186  82.38790760869566 186  C 78.34578804347825 186  74.77921195652175 184.52759948652118  71.68817934782608 181.58279845956355  L 62.77173913043478 172.62901155327344  C 59.759963768115945 169.604621309371  58.25407608695652 165.9833119383825  58.25407608695652 161.76508344030808  C 58.25407608695652 157.54685494223364  59.759963768115945 153.92554557124518  62.77173913043478 150.90115532734274  L 97.60529891304348 116  L 13.909646739130435 116  C 9.788269927536232 115.92169448010272  6.439651268115942 114.42939666238767  3.8637907608695654 111.44480102695763  C 1.2879302536231882 108.4602053915276  0 104.85879332477535  0 100.64056482670091  L 0 85.35943517329909  C 0 81.14120667522464  1.2879302536231882 77.5397946084724  3.8637907608695654 74.55519897304237  C 6.439651268115942 71.57060333761233  9.788269927536232 70.07830551989731  13.909646739130435 70  L 97.60529891304348 70  L 62.77173913043478 34.979460847240055  C 59.759963768115945 32.11424903722721  58.25407608695652 28.532734274711178  58.25407608695652 24.23491655969191  C 58.25407608695652 19.93709884467267  59.759963768115945 16.35558408215661  62.77173913043478 13.49037227214377  L 71.68817934782608 4.536585365853663  C 74.69995471014494 1.512195121951207  78.26653079710145 0  82.38790760869566 0  C 86.58854166666667 0  90.1947463768116 1.512195121951207  93.20652173913044 4.536585365853663  L 170.60122282608697 82.25545571245186  Z " fill-rule="evenodd" />
    </mask>
  </defs>
  <g transform="matrix(1 0 0 1 -3043 -226 )">
    <path d="M 170.60122282608697 82.25545571245186  C 173.533740942029 85.04107830551989  175 88.62259306803593  175 93  C 175 97.29781771501926  173.533740942029 100.91912708600769  170.60122282608697 103.86392811296534  L 93.20652173913044 181.58279845956355  C 90.1154891304348 184.52759948652118  86.50928442028986 186  82.38790760869566 186  C 78.34578804347825 186  74.77921195652175 184.52759948652118  71.68817934782608 181.58279845956355  L 62.77173913043478 172.62901155327344  C 59.759963768115945 169.604621309371  58.25407608695652 165.9833119383825  58.25407608695652 161.76508344030808  C 58.25407608695652 157.54685494223364  59.759963768115945 153.92554557124518  62.77173913043478 150.90115532734274  L 97.60529891304348 116  L 13.909646739130435 116  C 9.788269927536232 115.92169448010272  6.439651268115942 114.42939666238767  3.8637907608695654 111.44480102695763  C 1.2879302536231882 108.4602053915276  0 104.85879332477535  0 100.64056482670091  L 0 85.35943517329909  C 0 81.14120667522464  1.2879302536231882 77.5397946084724  3.8637907608695654 74.55519897304237  C 6.439651268115942 71.57060333761233  9.788269927536232 70.07830551989731  13.909646739130435 70  L 97.60529891304348 70  L 62.77173913043478 34.979460847240055  C 59.759963768115945 32.11424903722721  58.25407608695652 28.532734274711178  58.25407608695652 24.23491655969191  C 58.25407608695652 19.93709884467267  59.759963768115945 16.35558408215661  62.77173913043478 13.49037227214377  L 71.68817934782608 4.536585365853663  C 74.69995471014494 1.512195121951207  78.26653079710145 0  82.38790760869566 0  C 86.58854166666667 0  90.1947463768116 1.512195121951207  93.20652173913044 4.536585365853663  L 170.60122282608697 82.25545571245186  Z " fill-rule="nonzero" fill="rgba(0, 170, 170, 1)" stroke="none" transform="matrix(1 0 0 1 3053 236 )" class="fill" />
    <path d="M 170.60122282608697 82.25545571245186  C 173.533740942029 85.04107830551989  175 88.62259306803593  175 93  C 175 97.29781771501926  173.533740942029 100.91912708600769  170.60122282608697 103.86392811296534  L 93.20652173913044 181.58279845956355  C 90.1154891304348 184.52759948652118  86.50928442028986 186  82.38790760869566 186  C 78.34578804347825 186  74.77921195652175 184.52759948652118  71.68817934782608 181.58279845956355  L 62.77173913043478 172.62901155327344  C 59.759963768115945 169.604621309371  58.25407608695652 165.9833119383825  58.25407608695652 161.76508344030808  C 58.25407608695652 157.54685494223364  59.759963768115945 153.92554557124518  62.77173913043478 150.90115532734274  L 97.60529891304348 116  L 13.909646739130435 116  C 9.788269927536232 115.92169448010272  6.439651268115942 114.42939666238767  3.8637907608695654 111.44480102695763  C 1.2879302536231882 108.4602053915276  0 104.85879332477535  0 100.64056482670091  L 0 85.35943517329909  C 0 81.14120667522464  1.2879302536231882 77.5397946084724  3.8637907608695654 74.55519897304237  C 6.439651268115942 71.57060333761233  9.788269927536232 70.07830551989731  13.909646739130435 70  L 97.60529891304348 70  L 62.77173913043478 34.979460847240055  C 59.759963768115945 32.11424903722721  58.25407608695652 28.532734274711178  58.25407608695652 24.23491655969191  C 58.25407608695652 19.93709884467267  59.759963768115945 16.35558408215661  62.77173913043478 13.49037227214377  L 71.68817934782608 4.536585365853663  C 74.69995471014494 1.512195121951207  78.26653079710145 0  82.38790760869566 0  C 86.58854166666667 0  90.1947463768116 1.512195121951207  93.20652173913044 4.536585365853663  L 170.60122282608697 82.25545571245186  Z " stroke-width="0" stroke-dasharray="0" stroke="rgba(255, 255, 255, 0)" fill="none" transform="matrix(1 0 0 1 3053 236 )" class="stroke" mask="url(#Clip70)" />
  </g>
  <style>svg { filter: drop-shadow(0px 0px 5px rgba(0, 0, 0, 0.3137254901960784)); }</style>
</svg>