<?xml version="1.0" encoding="utf-8"?>
<svg version="1.1" xmlns:xlink="http://www.w3.org/1999/xlink" width="160px" height="10px" preserveAspectRatio="xMinYMid meet" viewBox="3749 479 160 8" xmlns="http://www.w3.org/2000/svg">
  <path d="M 3605 543  L 3749 543  A 5 5 0 0 0 3754 538 L 3754 488  A 5 5 0 0 1 3759 483 L 3907 483  " stroke-width="2" stroke-dasharray="0" stroke="rgba(217, 0, 27, 1)" fill="none" class="stroke" />
  <path d="M 3602.5 539.5  A 3.5 3.5 0 0 0 3599 543 A 3.5 3.5 0 0 0 3602.5 546.5 A 3.5 3.5 0 0 0 3606 543 A 3.5 3.5 0 0 0 3602.5 539.5 Z M 3602.5 541.5  A 1.5 1.5 0 0 1 3604 543 A 1.5 1.5 0 0 1 3602.5 544.5 A 1.5 1.5 0 0 1 3601 543 A 1.5 1.5 0 0 1 3602.5 541.5 Z M 3899.6 491  L 3909 483  L 3899.6 475  L 3903.2 483  L 3899.6 491  Z " fill-rule="nonzero" fill="rgba(217, 0, 27, 1)" stroke="none" class="fill" />
</svg>