<?xml version="1.0" encoding="utf-8"?>
<svg version="1.1" xmlns:xlink="http://www.w3.org/1999/xlink" width="136px" height="10px" preserveAspectRatio="xMinYMid meet" viewBox="2637 172 136 8" xmlns="http://www.w3.org/2000/svg">
  <path d="M 2535 469  L 2637 469  A 5 5 0 0 0 2642 464 L 2642 181  A 5 5 0 0 1 2647 176 L 2771 176  " stroke-width="2" stroke-dasharray="0" stroke="rgba(217, 0, 27, 1)" fill="none" class="stroke" />
  <path d="M 2532.5 465.5  A 3.5 3.5 0 0 0 2529 469 A 3.5 3.5 0 0 0 2532.5 472.5 A 3.5 3.5 0 0 0 2536 469 A 3.5 3.5 0 0 0 2532.5 465.5 Z M 2532.5 467.5  A 1.5 1.5 0 0 1 2534 469 A 1.5 1.5 0 0 1 2532.5 470.5 A 1.5 1.5 0 0 1 2531 469 A 1.5 1.5 0 0 1 2532.5 467.5 Z M 2763.6 184  L 2773 176  L 2763.6 168  L 2767.2 176  L 2763.6 184  Z " fill-rule="nonzero" fill="rgba(217, 0, 27, 1)" stroke="none" class="fill" />
</svg>