<?xml version="1.0" encoding="utf-8"?>
<svg version="1.1" xmlns:xlink="http://www.w3.org/1999/xlink" width="145px" height="10px" preserveAspectRatio="xMinYMid meet" viewBox="3437 1063 145 8" xmlns="http://www.w3.org/2000/svg">
  <path d="M 3313 1366  L 3437 1366  A 5 5 0 0 0 3442 1361 L 3442 1072  A 5 5 0 0 1 3447 1067 L 3580 1067  " stroke-width="2" stroke-dasharray="0" stroke="rgba(217, 0, 27, 1)" fill="none" class="stroke" />
  <path d="M 3310.5 1362.5  A 3.5 3.5 0 0 0 3307 1366 A 3.5 3.5 0 0 0 3310.5 1369.5 A 3.5 3.5 0 0 0 3314 1366 A 3.5 3.5 0 0 0 3310.5 1362.5 Z M 3310.5 1364.5  A 1.5 1.5 0 0 1 3312 1366 A 1.5 1.5 0 0 1 3310.5 1367.5 A 1.5 1.5 0 0 1 3309 1366 A 1.5 1.5 0 0 1 3310.5 1364.5 Z M 3572.6 1075  L 3582 1067  L 3572.6 1059  L 3576.2 1067  L 3572.6 1075  Z " fill-rule="nonzero" fill="rgba(217, 0, 27, 1)" stroke="none" class="fill" />
</svg>