<?xml version="1.0" encoding="utf-8"?>
<svg version="1.1" xmlns:xlink="http://www.w3.org/1999/xlink" width="13px" height="13px" viewBox="1707 1836 13 13" xmlns="http://www.w3.org/2000/svg">
  <path d="M 1713.5 1836  C 1717.14 1836  1720 1838.86  1720 1842.5  C 1720 1846.14  1717.14 1849  1713.5 1849  C 1709.86 1849  1707 1846.14  1707 1842.5  C 1707 1838.86  1709.86 1836  1713.5 1836  Z " fill-rule="nonzero" fill="rgba(240, 240, 240, 1)" stroke="none" class="fill" />
  <path d="M 1713.5 1836.5  C 1716.86 1836.5  1719.5 1839.14  1719.5 1842.5  C 1719.5 1845.86  1716.86 1848.5  1713.5 1848.5  C 1710.14 1848.5  1707.5 1845.86  1707.5 1842.5  C 1707.5 1839.14  1710.14 1836.5  1713.5 1836.5  Z " stroke-width="1" stroke-dasharray="0" stroke="rgba(121, 121, 121, 1)" fill="none" class="stroke" stroke-dashoffset="0.5" />
  <path d="M 1713.5 1845.75  C 1711.68 1845.75  1710.25 1844.32  1710.25 1842.5  C 1710.25 1840.68  1711.68 1839.25  1713.5 1839.25  C 1715.32 1839.25  1716.75 1840.68  1716.75 1842.5  C 1716.75 1844.32  1715.32 1845.75  1713.5 1845.75  " fill-rule="nonzero" fill="rgba(121, 121, 121, 1)" stroke="none" class="stroke btn_check" />
</svg>