<?xml version="1.0" encoding="utf-8"?>
<svg version="1.1" xmlns:xlink="http://www.w3.org/1999/xlink" width="13px" height="13px" viewBox="1933 1836 13 13" xmlns="http://www.w3.org/2000/svg">
  <path d="M 1939.5 1836  C 1943.14 1836  1946 1838.86  1946 1842.5  C 1946 1846.14  1943.14 1849  1939.5 1849  C 1935.86 1849  1933 1846.14  1933 1842.5  C 1933 1838.86  1935.86 1836  1939.5 1836  Z " fill-rule="nonzero" fill="rgba(255, 255, 255, 1)" stroke="none" class="fill" />
  <path d="M 1939.5 1836.5  C 1942.86 1836.5  1945.5 1839.14  1945.5 1842.5  C 1945.5 1845.86  1942.86 1848.5  1939.5 1848.5  C 1936.14 1848.5  1933.5 1845.86  1933.5 1842.5  C 1933.5 1839.14  1936.14 1836.5  1939.5 1836.5  Z " stroke-width="1" stroke-dasharray="0" stroke="rgba(121, 121, 121, 1)" fill="none" class="stroke" stroke-dashoffset="0.5" />
  <path d="M 1939.5 1845.75  C 1937.68 1845.75  1936.25 1844.32  1936.25 1842.5  C 1936.25 1840.68  1937.68 1839.25  1939.5 1839.25  C 1941.32 1839.25  1942.75 1840.68  1942.75 1842.5  C 1942.75 1844.32  1941.32 1845.75  1939.5 1845.75  " fill-rule="nonzero" fill="rgba(121, 121, 121, 1)" stroke="none" class="stroke btn_check" />
</svg>