<?xml version="1.0" encoding="utf-8"?>
<svg version="1.1" xmlns:xlink="http://www.w3.org/1999/xlink" width="13px" height="13px" viewBox="1164 2663 13 13" xmlns="http://www.w3.org/2000/svg">
  <path d="M 1170.5 2663  C 1174.14 2663  1177 2665.86  1177 2669.5  C 1177 2673.14  1174.14 2676  1170.5 2676  C 1166.86 2676  1164 2673.14  1164 2669.5  C 1164 2665.86  1166.86 2663  1170.5 2663  Z " fill-rule="nonzero" fill="rgba(240, 240, 240, 1)" stroke="none" class="fill" />
  <path d="M 1170.5 2663.5  C 1173.86 2663.5  1176.5 2666.14  1176.5 2669.5  C 1176.5 2672.86  1173.86 2675.5  1170.5 2675.5  C 1167.14 2675.5  1164.5 2672.86  1164.5 2669.5  C 1164.5 2666.14  1167.14 2663.5  1170.5 2663.5  Z " stroke-width="1" stroke-dasharray="0" stroke="rgba(121, 121, 121, 1)" fill="none" class="stroke" stroke-dashoffset="0.5" />
  <path d="M 1170.5 2672.75  C 1168.68 2672.75  1167.25 2671.32  1167.25 2669.5  C 1167.25 2667.68  1168.68 2666.25  1170.5 2666.25  C 1172.32 2666.25  1173.75 2667.68  1173.75 2669.5  C 1173.75 2671.32  1172.32 2672.75  1170.5 2672.75  " fill-rule="nonzero" fill="rgba(121, 121, 121, 1)" stroke="none" class="stroke btn_check" />
</svg>