<?xml version="1.0" encoding="utf-8"?>
<svg version="1.1" xmlns:xlink="http://www.w3.org/1999/xlink" width="13px" height="13px" viewBox="1051 2663 13 13" xmlns="http://www.w3.org/2000/svg">
  <path d="M 1057.5 2663  C 1061.14 2663  1064 2665.86  1064 2669.5  C 1064 2673.14  1061.14 2676  1057.5 2676  C 1053.86 2676  1051 2673.14  1051 2669.5  C 1051 2665.86  1053.86 2663  1057.5 2663  Z " fill-rule="nonzero" fill="rgba(255, 255, 255, 1)" stroke="none" class="fill" />
  <path d="M 1057.5 2663.5  C 1060.86 2663.5  1063.5 2666.14  1063.5 2669.5  C 1063.5 2672.86  1060.86 2675.5  1057.5 2675.5  C 1054.14 2675.5  1051.5 2672.86  1051.5 2669.5  C 1051.5 2666.14  1054.14 2663.5  1057.5 2663.5  Z " stroke-width="1" stroke-dasharray="0" stroke="rgba(121, 121, 121, 1)" fill="none" class="stroke" stroke-dashoffset="0.5" />
  <path d="M 1057.5 2672.75  C 1055.68 2672.75  1054.25 2671.32  1054.25 2669.5  C 1054.25 2667.68  1055.68 2666.25  1057.5 2666.25  C 1059.32 2666.25  1060.75 2667.68  1060.75 2669.5  C 1060.75 2671.32  1059.32 2672.75  1057.5 2672.75  " fill-rule="nonzero" fill="rgba(121, 121, 121, 1)" stroke="none" class="stroke btn_check" />
</svg>