<?xml version="1.0" encoding="utf-8"?>
<svg version="1.1" xmlns:xlink="http://www.w3.org/1999/xlink" width="276px" height="10px" preserveAspectRatio="xMinYMid meet" viewBox="1102 2288 276 8" xmlns="http://www.w3.org/2000/svg">
  <path d="M 1278 1851  A 5 5 0 0 1 1273 1856 L 1112 1856  A 5 5 0 0 0 1107 1861 L 1107 2287  A 5 5 0 0 0 1112 2292 L 1368 2292  A 5 5 0 0 1 1373 2297 L 1373 2571  " stroke-width="2" stroke-dasharray="0" stroke="rgba(217, 0, 27, 1)" fill="none" class="stroke" />
  <path d="M 1278 1846  A 3.5 3.5 0 0 0 1274.5 1849.5 A 3.5 3.5 0 0 0 1278 1853 A 3.5 3.5 0 0 0 1281.5 1849.5 A 3.5 3.5 0 0 0 1278 1846 Z M 1278 1848  A 1.5 1.5 0 0 1 1279.5 1849.5 A 1.5 1.5 0 0 1 1278 1851 A 1.5 1.5 0 0 1 1276.5 1849.5 A 1.5 1.5 0 0 1 1278 1848 Z M 1365 2563.6  L 1373 2573  L 1381 2563.6  L 1373 2567.2  L 1365 2563.6  Z " fill-rule="nonzero" fill="rgba(217, 0, 27, 1)" stroke="none" class="fill" />
</svg>