<?xml version="1.0" encoding="utf-8"?>
<svg version="1.1" xmlns:xlink="http://www.w3.org/1999/xlink" width="13px" height="13px" viewBox="1125 1828 13 13" xmlns="http://www.w3.org/2000/svg">
  <path d="M 1131.5 1828  C 1135.14 1828  1138 1830.86  1138 1834.5  C 1138 1838.14  1135.14 1841  1131.5 1841  C 1127.86 1841  1125 1838.14  1125 1834.5  C 1125 1830.86  1127.86 1828  1131.5 1828  Z " fill-rule="nonzero" fill="rgba(255, 255, 255, 1)" stroke="none" class="fill" />
  <path d="M 1131.5 1828.5  C 1134.86 1828.5  1137.5 1831.14  1137.5 1834.5  C 1137.5 1837.86  1134.86 1840.5  1131.5 1840.5  C 1128.14 1840.5  1125.5 1837.86  1125.5 1834.5  C 1125.5 1831.14  1128.14 1828.5  1131.5 1828.5  Z " stroke-width="1" stroke-dasharray="0" stroke="rgba(121, 121, 121, 1)" fill="none" class="stroke" stroke-dashoffset="0.5" />
  <path d="M 1131.5 1837.75  C 1129.68 1837.75  1128.25 1836.32  1128.25 1834.5  C 1128.25 1832.68  1129.68 1831.25  1131.5 1831.25  C 1133.32 1831.25  1134.75 1832.68  1134.75 1834.5  C 1134.75 1836.32  1133.32 1837.75  1131.5 1837.75  " fill-rule="nonzero" fill="rgba(121, 121, 121, 1)" stroke="none" class="stroke btn_check" />
</svg>