<?xml version="1.0" encoding="utf-8"?>
<svg version="1.1" xmlns:xlink="http://www.w3.org/1999/xlink" width="13px" height="13px" viewBox="1351 1828 13 13" xmlns="http://www.w3.org/2000/svg">
  <path d="M 1357.5 1828  C 1361.14 1828  1364 1830.86  1364 1834.5  C 1364 1838.14  1361.14 1841  1357.5 1841  C 1353.86 1841  1351 1838.14  1351 1834.5  C 1351 1830.86  1353.86 1828  1357.5 1828  Z " fill-rule="nonzero" fill="rgba(240, 240, 240, 1)" stroke="none" class="fill" />
  <path d="M 1357.5 1828.5  C 1360.86 1828.5  1363.5 1831.14  1363.5 1834.5  C 1363.5 1837.86  1360.86 1840.5  1357.5 1840.5  C 1354.14 1840.5  1351.5 1837.86  1351.5 1834.5  C 1351.5 1831.14  1354.14 1828.5  1357.5 1828.5  Z " stroke-width="1" stroke-dasharray="0" stroke="rgba(121, 121, 121, 1)" fill="none" class="stroke" stroke-dashoffset="0.5" />
  <path d="M 1357.5 1837.75  C 1355.68 1837.75  1354.25 1836.32  1354.25 1834.5  C 1354.25 1832.68  1355.68 1831.25  1357.5 1831.25  C 1359.32 1831.25  1360.75 1832.68  1360.75 1834.5  C 1360.75 1836.32  1359.32 1837.75  1357.5 1837.75  " fill-rule="nonzero" fill="rgba(121, 121, 121, 1)" stroke="none" class="stroke btn_check" />
</svg>