<?xml version="1.0" encoding="utf-8"?>
<svg version="1.1" xmlns:xlink="http://www.w3.org/1999/xlink" width="13px" height="13px" viewBox="1238 1828 13 13" xmlns="http://www.w3.org/2000/svg">
  <path d="M 1244.5 1828  C 1248.14 1828  1251 1830.86  1251 1834.5  C 1251 1838.14  1248.14 1841  1244.5 1841  C 1240.86 1841  1238 1838.14  1238 1834.5  C 1238 1830.86  1240.86 1828  1244.5 1828  Z " fill-rule="nonzero" fill="rgba(255, 255, 255, 1)" stroke="none" class="fill" />
  <path d="M 1244.5 1828.5  C 1247.86 1828.5  1250.5 1831.14  1250.5 1834.5  C 1250.5 1837.86  1247.86 1840.5  1244.5 1840.5  C 1241.14 1840.5  1238.5 1837.86  1238.5 1834.5  C 1238.5 1831.14  1241.14 1828.5  1244.5 1828.5  Z " stroke-width="1" stroke-dasharray="0" stroke="rgba(121, 121, 121, 1)" fill="none" class="stroke" stroke-dashoffset="0.5" />
  <path d="M 1244.5 1837.75  C 1242.68 1837.75  1241.25 1836.32  1241.25 1834.5  C 1241.25 1832.68  1242.68 1831.25  1244.5 1831.25  C 1246.32 1831.25  1247.75 1832.68  1247.75 1834.5  C 1247.75 1836.32  1246.32 1837.75  1244.5 1837.75  " fill-rule="nonzero" fill="rgba(121, 121, 121, 1)" stroke="none" class="stroke btn_check" />
</svg>