<?xml version="1.0" encoding="utf-8"?>
<svg version="1.1" xmlns:xlink="http://www.w3.org/1999/xlink" width="16px" height="10px" preserveAspectRatio="xMinYMid meet" viewBox="950 823  16 8" xmlns="http://www.w3.org/2000/svg">
  <path d="M 839.5 215  L 839.5 220  A 5 5 0 0 0 844.5 225.5 L 950 225.5  A 5 5 0 0 1 955.5 230 L 955.5 282  A 3 3 0 0 1 958.5 285 A 3 3 0 0 1 955.5 288 L 955.5 824  A 3 3 0 0 0 958.5 827.5 A 3 3 0 0 1 961.5 830.5 L 961.5 1048  A 5 5 0 0 0 966.5 1053.5 L 1045 1053.5  " stroke-width="1" stroke="#ffff00" fill="none" />
  <path d="M 1039.3 1059.5  L 1046 1053.5  L 1039.3 1047.5  L 1041.6 1053.5  L 1039.3 1059.5  Z " fill-rule="nonzero" fill="#ffff00" stroke="none" />
</svg>