<?xml version="1.0" encoding="utf-8"?>
<svg version="1.1" xmlns:xlink="http://www.w3.org/1999/xlink" width="13px" height="13px" viewBox="255 2524 13 13" xmlns="http://www.w3.org/2000/svg">
  <path d="M 261.5 2524  C 265.14 2524  268 2526.86  268 2530.5  C 268 2534.14  265.14 2537  261.5 2537  C 257.86 2537  255 2534.14  255 2530.5  C 255 2526.86  257.86 2524  261.5 2524  Z " fill-rule="nonzero" fill="rgba(240, 240, 240, 1)" stroke="none" class="fill" />
  <path d="M 261.5 2524.5  C 264.86 2524.5  267.5 2527.14  267.5 2530.5  C 267.5 2533.86  264.86 2536.5  261.5 2536.5  C 258.14 2536.5  255.5 2533.86  255.5 2530.5  C 255.5 2527.14  258.14 2524.5  261.5 2524.5  Z " stroke-width="1" stroke-dasharray="0" stroke="rgba(121, 121, 121, 1)" fill="none" class="stroke" stroke-dashoffset="0.5" />
  <path d="M 261.5 2533.75  C 259.68 2533.75  258.25 2532.32  258.25 2530.5  C 258.25 2528.68  259.68 2527.25  261.5 2527.25  C 263.32 2527.25  264.75 2528.68  264.75 2530.5  C 264.75 2532.32  263.32 2533.75  261.5 2533.75  " fill-rule="nonzero" fill="rgba(121, 121, 121, 1)" stroke="none" class="stroke btn_check" />
</svg>