<?xml version="1.0" encoding="utf-8"?>
<svg version="1.1" xmlns:xlink="http://www.w3.org/1999/xlink" width="13px" height="13px" viewBox="237 845 13 13" xmlns="http://www.w3.org/2000/svg">
  <path d="M 243.5 845  C 247.14 845  250 847.86  250 851.5  C 250 855.14  247.14 858  243.5 858  C 239.86 858  237 855.14  237 851.5  C 237 847.86  239.86 845  243.5 845  Z " fill-rule="nonzero" fill="rgba(255, 255, 255, 1)" stroke="none" class="fill" />
  <path d="M 243.5 845.5  C 246.86 845.5  249.5 848.14  249.5 851.5  C 249.5 854.86  246.86 857.5  243.5 857.5  C 240.14 857.5  237.5 854.86  237.5 851.5  C 237.5 848.14  240.14 845.5  243.5 845.5  Z " stroke-width="1" stroke-dasharray="0" stroke="rgba(121, 121, 121, 1)" fill="none" class="stroke" stroke-dashoffset="0.5" />
  <path d="M 243.5 854.75  C 241.68 854.75  240.25 853.32  240.25 851.5  C 240.25 849.68  241.68 848.25  243.5 848.25  C 245.32 848.25  246.75 849.68  246.75 851.5  C 246.75 853.32  245.32 854.75  243.5 854.75  " fill-rule="nonzero" fill="rgba(121, 121, 121, 1)" stroke="none" class="stroke btn_check" />
</svg>