<?xml version="1.0" encoding="utf-8"?>
<svg version="1.1" xmlns:xlink="http://www.w3.org/1999/xlink" width="13px" height="13px" viewBox="807 845 13 13" xmlns="http://www.w3.org/2000/svg">
  <path d="M 813.5 845  C 817.14 845  820 847.86  820 851.5  C 820 855.14  817.14 858  813.5 858  C 809.86 858  807 855.14  807 851.5  C 807 847.86  809.86 845  813.5 845  Z " fill-rule="nonzero" fill="rgba(255, 255, 255, 1)" stroke="none" class="fill" />
  <path d="M 813.5 845.5  C 816.86 845.5  819.5 848.14  819.5 851.5  C 819.5 854.86  816.86 857.5  813.5 857.5  C 810.14 857.5  807.5 854.86  807.5 851.5  C 807.5 848.14  810.14 845.5  813.5 845.5  Z " stroke-width="1" stroke-dasharray="0" stroke="rgba(121, 121, 121, 1)" fill="none" class="stroke" stroke-dashoffset="0.5" />
  <path d="M 813.5 854.75  C 811.68 854.75  810.25 853.32  810.25 851.5  C 810.25 849.68  811.68 848.25  813.5 848.25  C 815.32 848.25  816.75 849.68  816.75 851.5  C 816.75 853.32  815.32 854.75  813.5 854.75  " fill-rule="nonzero" fill="rgba(121, 121, 121, 1)" stroke="none" class="stroke btn_check" />
</svg>