<?xml version="1.0" encoding="utf-8"?>
<svg version="1.1" xmlns:xlink="http://www.w3.org/1999/xlink" width="13px" height="13px" viewBox="689 845 13 13" xmlns="http://www.w3.org/2000/svg">
  <path d="M 695.5 845  C 699.14 845  702 847.86  702 851.5  C 702 855.14  699.14 858  695.5 858  C 691.86 858  689 855.14  689 851.5  C 689 847.86  691.86 845  695.5 845  Z " fill-rule="nonzero" fill="rgba(255, 255, 255, 1)" stroke="none" class="fill" />
  <path d="M 695.5 845.5  C 698.86 845.5  701.5 848.14  701.5 851.5  C 701.5 854.86  698.86 857.5  695.5 857.5  C 692.14 857.5  689.5 854.86  689.5 851.5  C 689.5 848.14  692.14 845.5  695.5 845.5  Z " stroke-width="1" stroke-dasharray="0" stroke="rgba(121, 121, 121, 1)" fill="none" class="stroke" stroke-dashoffset="0.5" />
  <path d="M 695.5 854.75  C 693.68 854.75  692.25 853.32  692.25 851.5  C 692.25 849.68  693.68 848.25  695.5 848.25  C 697.32 848.25  698.75 849.68  698.75 851.5  C 698.75 853.32  697.32 854.75  695.5 854.75  " fill-rule="nonzero" fill="rgba(121, 121, 121, 1)" stroke="none" class="stroke btn_check" />
</svg>