<?xml version="1.0" encoding="utf-8"?>
<svg version="1.1" xmlns:xlink="http://www.w3.org/1999/xlink" width="13px" height="13px" viewBox="1094 845 13 13" xmlns="http://www.w3.org/2000/svg">
  <path d="M 1100.5 845  C 1104.14 845  1107 847.86  1107 851.5  C 1107 855.14  1104.14 858  1100.5 858  C 1096.86 858  1094 855.14  1094 851.5  C 1094 847.86  1096.86 845  1100.5 845  Z " fill-rule="nonzero" fill="rgba(255, 255, 255, 1)" stroke="none" class="fill" />
  <path d="M 1100.5 845.5  C 1103.86 845.5  1106.5 848.14  1106.5 851.5  C 1106.5 854.86  1103.86 857.5  1100.5 857.5  C 1097.14 857.5  1094.5 854.86  1094.5 851.5  C 1094.5 848.14  1097.14 845.5  1100.5 845.5  Z " stroke-width="1" stroke-dasharray="0" stroke="rgba(121, 121, 121, 1)" fill="none" class="stroke" stroke-dashoffset="0.5" />
  <path d="M 1100.5 854.75  C 1098.68 854.75  1097.25 853.32  1097.25 851.5  C 1097.25 849.68  1098.68 848.25  1100.5 848.25  C 1102.32 848.25  1103.75 849.68  1103.75 851.5  C 1103.75 853.32  1102.32 854.75  1100.5 854.75  " fill-rule="nonzero" fill="rgba(121, 121, 121, 1)" stroke="none" class="stroke btn_check" />
</svg>