<?xml version="1.0" encoding="utf-8"?>
<svg version="1.1" xmlns:xlink="http://www.w3.org/1999/xlink" width="13px" height="13px" viewBox="375 1390 13 13" xmlns="http://www.w3.org/2000/svg">
  <path d="M 381.5 1390  C 385.14 1390  388 1392.86  388 1396.5  C 388 1400.14  385.14 1403  381.5 1403  C 377.86 1403  375 1400.14  375 1396.5  C 375 1392.86  377.86 1390  381.5 1390  Z " fill-rule="nonzero" fill="rgba(255, 255, 255, 1)" stroke="none" class="fill" />
  <path d="M 381.5 1390.5  C 384.86 1390.5  387.5 1393.14  387.5 1396.5  C 387.5 1399.86  384.86 1402.5  381.5 1402.5  C 378.14 1402.5  375.5 1399.86  375.5 1396.5  C 375.5 1393.14  378.14 1390.5  381.5 1390.5  Z " stroke-width="1" stroke-dasharray="0" stroke="rgba(121, 121, 121, 1)" fill="none" class="stroke" stroke-dashoffset="0.5" />
  <path d="M 381.5 1399.75  C 379.68 1399.75  378.25 1398.32  378.25 1396.5  C 378.25 1394.68  379.68 1393.25  381.5 1393.25  C 383.32 1393.25  384.75 1394.68  384.75 1396.5  C 384.75 1398.32  383.32 1399.75  381.5 1399.75  " fill-rule="nonzero" fill="rgba(121, 121, 121, 1)" stroke="none" class="stroke btn_check" />
</svg>