<?xml version="1.0" encoding="utf-8"?>
<svg version="1.1" xmlns:xlink="http://www.w3.org/1999/xlink" width="13px" height="13px" viewBox="1108 1401 13 13" xmlns="http://www.w3.org/2000/svg">
  <path d="M 1114.5 1401  C 1118.14 1401  1121 1403.86  1121 1407.5  C 1121 1411.14  1118.14 1414  1114.5 1414  C 1110.86 1414  1108 1411.14  1108 1407.5  C 1108 1403.86  1110.86 1401  1114.5 1401  Z " fill-rule="nonzero" fill="rgba(255, 255, 255, 1)" stroke="none" class="fill" />
  <path d="M 1114.5 1401.5  C 1117.86 1401.5  1120.5 1404.14  1120.5 1407.5  C 1120.5 1410.86  1117.86 1413.5  1114.5 1413.5  C 1111.14 1413.5  1108.5 1410.86  1108.5 1407.5  C 1108.5 1404.14  1111.14 1401.5  1114.5 1401.5  Z " stroke-width="1" stroke-dasharray="0" stroke="rgba(121, 121, 121, 1)" fill="none" class="stroke" stroke-dashoffset="0.5" />
  <path d="M 1114.5 1410.75  C 1112.68 1410.75  1111.25 1409.32  1111.25 1407.5  C 1111.25 1405.68  1112.68 1404.25  1114.5 1404.25  C 1116.32 1404.25  1117.75 1405.68  1117.75 1407.5  C 1117.75 1409.32  1116.32 1410.75  1114.5 1410.75  " fill-rule="nonzero" fill="rgba(121, 121, 121, 1)" stroke="none" class="stroke btn_check" />
</svg>