<?xml version="1.0" encoding="utf-8"?>
<svg version="1.1" xmlns:xlink="http://www.w3.org/1999/xlink" width="13px" height="13px" viewBox="1227 1401 13 13" xmlns="http://www.w3.org/2000/svg">
  <path d="M 1233.5 1401  C 1237.14 1401  1240 1403.86  1240 1407.5  C 1240 1411.14  1237.14 1414  1233.5 1414  C 1229.86 1414  1227 1411.14  1227 1407.5  C 1227 1403.86  1229.86 1401  1233.5 1401  Z " fill-rule="nonzero" fill="rgba(255, 255, 255, 1)" stroke="none" class="fill" />
  <path d="M 1233.5 1401.5  C 1236.86 1401.5  1239.5 1404.14  1239.5 1407.5  C 1239.5 1410.86  1236.86 1413.5  1233.5 1413.5  C 1230.14 1413.5  1227.5 1410.86  1227.5 1407.5  C 1227.5 1404.14  1230.14 1401.5  1233.5 1401.5  Z " stroke-width="1" stroke-dasharray="0" stroke="rgba(121, 121, 121, 1)" fill="none" class="stroke" stroke-dashoffset="0.5" />
  <path d="M 1233.5 1410.75  C 1231.68 1410.75  1230.25 1409.32  1230.25 1407.5  C 1230.25 1405.68  1231.68 1404.25  1233.5 1404.25  C 1235.32 1404.25  1236.75 1405.68  1236.75 1407.5  C 1236.75 1409.32  1235.32 1410.75  1233.5 1410.75  " fill-rule="nonzero" fill="rgba(121, 121, 121, 1)" stroke="none" class="stroke btn_check" />
</svg>