<?xml version="1.0" encoding="utf-8"?>
<svg version="1.1" xmlns:xlink="http://www.w3.org/1999/xlink" width="13px" height="13px" viewBox="1345 1401 13 13" xmlns="http://www.w3.org/2000/svg">
  <path d="M 1351.5 1401  C 1355.14 1401  1358 1403.86  1358 1407.5  C 1358 1411.14  1355.14 1414  1351.5 1414  C 1347.86 1414  1345 1411.14  1345 1407.5  C 1345 1403.86  1347.86 1401  1351.5 1401  Z " fill-rule="nonzero" fill="rgba(255, 255, 255, 1)" stroke="none" class="fill" />
  <path d="M 1351.5 1401.5  C 1354.86 1401.5  1357.5 1404.14  1357.5 1407.5  C 1357.5 1410.86  1354.86 1413.5  1351.5 1413.5  C 1348.14 1413.5  1345.5 1410.86  1345.5 1407.5  C 1345.5 1404.14  1348.14 1401.5  1351.5 1401.5  Z " stroke-width="1" stroke-dasharray="0" stroke="rgba(121, 121, 121, 1)" fill="none" class="stroke" stroke-dashoffset="0.5" />
  <path d="M 1351.5 1410.75  C 1349.68 1410.75  1348.25 1409.32  1348.25 1407.5  C 1348.25 1405.68  1349.68 1404.25  1351.5 1404.25  C 1353.32 1404.25  1354.75 1405.68  1354.75 1407.5  C 1354.75 1409.32  1353.32 1410.75  1351.5 1410.75  " fill-rule="nonzero" fill="rgba(121, 121, 121, 1)" stroke="none" class="stroke btn_check" />
</svg>