<?xml version="1.0" encoding="utf-8"?>
<svg version="1.1" xmlns:xlink="http://www.w3.org/1999/xlink" width="13px" height="13px" viewBox="2313 1390 13 13" xmlns="http://www.w3.org/2000/svg">
  <path d="M 2319.5 1390  C 2323.14 1390  2326 1392.86  2326 1396.5  C 2326 1400.14  2323.14 1403  2319.5 1403  C 2315.86 1403  2313 1400.14  2313 1396.5  C 2313 1392.86  2315.86 1390  2319.5 1390  Z " fill-rule="nonzero" fill="rgba(255, 255, 255, 1)" stroke="none" class="fill" />
  <path d="M 2319.5 1390.5  C 2322.86 1390.5  2325.5 1393.14  2325.5 1396.5  C 2325.5 1399.86  2322.86 1402.5  2319.5 1402.5  C 2316.14 1402.5  2313.5 1399.86  2313.5 1396.5  C 2313.5 1393.14  2316.14 1390.5  2319.5 1390.5  Z " stroke-width="1" stroke-dasharray="0" stroke="rgba(121, 121, 121, 1)" fill="none" class="stroke" stroke-dashoffset="0.5" />
  <path d="M 2319.5 1399.75  C 2317.68 1399.75  2316.25 1398.32  2316.25 1396.5  C 2316.25 1394.68  2317.68 1393.25  2319.5 1393.25  C 2321.32 1393.25  2322.75 1394.68  2322.75 1396.5  C 2322.75 1398.32  2321.32 1399.75  2319.5 1399.75  " fill-rule="nonzero" fill="rgba(121, 121, 121, 1)" stroke="none" class="stroke btn_check" />
</svg>