<?xml version="1.0" encoding="utf-8"?>
<svg version="1.1" xmlns:xlink="http://www.w3.org/1999/xlink" width="10px" height="182px" preserveAspectRatio="xMidYMin meet" viewBox="2249 1445 8 182" xmlns="http://www.w3.org/2000/svg">
  <path d="M 2253 1451  L 2253 1620  " stroke-width="2" stroke-dasharray="0" stroke="rgba(217, 0, 27, 1)" fill="none" class="stroke" />
  <path d="M 2253 1445  A 3.5 3.5 0 0 0 2249.5 1448.5 A 3.5 3.5 0 0 0 2253 1452 A 3.5 3.5 0 0 0 2256.5 1448.5 A 3.5 3.5 0 0 0 2253 1445 Z M 2253 1447  A 1.5 1.5 0 0 1 2254.5 1448.5 A 1.5 1.5 0 0 1 2253 1450 A 1.5 1.5 0 0 1 2251.5 1448.5 A 1.5 1.5 0 0 1 2253 1447 Z M 2245 1612.6  L 2253 1622  L 2261 1612.6  L 2253 1616.2  L 2245 1612.6  Z " fill-rule="nonzero" fill="rgba(217, 0, 27, 1)" stroke="none" class="fill" />
</svg>