<?xml version="1.0" encoding="utf-8"?>
<svg version="1.1" xmlns:xlink="http://www.w3.org/1999/xlink" width="18px" height="18px" preserveAspectRatio="xMinYMid meet" viewBox="477 248 18 16" xmlns="http://www.w3.org/2000/svg">
  <path d="M 486.5 254  L 486.5 159  " stroke-width="1" stroke-dasharray="0" stroke="rgba(217, 0, 27, 1)" fill="none" class="stroke" />
  <path d="M 486.5 253  A 3 3 0 0 0 483.5 256 A 3 3 0 0 0 486.5 259 A 3 3 0 0 0 489.5 256 A 3 3 0 0 0 486.5 253 Z M 486.5 254  A 2 2 0 0 1 488.5 256 A 2 2 0 0 1 486.5 258 A 2 2 0 0 1 484.5 256 A 2 2 0 0 1 486.5 254 Z M 492.5 164.7  L 486.5 158  L 480.5 164.7  L 486.5 162.4  L 492.5 164.7  Z " fill-rule="nonzero" fill="rgba(217, 0, 27, 1)" stroke="none" class="fill" />
</svg>