<?xml version="1.0" encoding="utf-8"?>
<svg version="1.1" xmlns:xlink="http://www.w3.org/1999/xlink" width="57px" height="10px" preserveAspectRatio="xMinYMid meet" viewBox="584 266 57 8" xmlns="http://www.w3.org/2000/svg">
  <path d="M 589 270.5  L 635 270.5  " stroke-width="1" stroke-dasharray="0" stroke="rgba(217, 0, 27, 1)" fill="none" class="stroke" />
  <path d="M 587 267.5  A 3 3 0 0 0 584 270.5 A 3 3 0 0 0 587 273.5 A 3 3 0 0 0 590 270.5 A 3 3 0 0 0 587 267.5 Z M 587 268.5  A 2 2 0 0 1 589 270.5 A 2 2 0 0 1 587 272.5 A 2 2 0 0 1 585 270.5 A 2 2 0 0 1 587 268.5 Z M 629.3 276.5  L 636 270.5  L 629.3 264.5  L 631.6 270.5  L 629.3 276.5  Z " fill-rule="nonzero" fill="rgba(217, 0, 27, 1)" stroke="none" class="fill" />
</svg>