<?xml version="1.0" encoding="utf-8"?>
<svg version="1.1" xmlns:xlink="http://www.w3.org/1999/xlink" width="34px" height="34px" preserveAspectRatio="xMinYMid meet" viewBox="353 829 34 32" xmlns="http://www.w3.org/2000/svg">
  <path d="M 706 845  L 370 845  " stroke-width="2" stroke-dasharray="0" stroke="rgba(217, 0, 27, 1)" fill="none" class="stroke" />
  <path d="M 708.5 841.5  A 3.5 3.5 0 0 0 705 845 A 3.5 3.5 0 0 0 708.5 848.5 A 3.5 3.5 0 0 0 712 845 A 3.5 3.5 0 0 0 708.5 841.5 Z M 708.5 843.5  A 1.5 1.5 0 0 1 710 845 A 1.5 1.5 0 0 1 708.5 846.5 A 1.5 1.5 0 0 1 707 845 A 1.5 1.5 0 0 1 708.5 843.5 Z M 377.4 837  L 368 845  L 377.4 853  L 373.8 845  L 377.4 837  Z " fill-rule="nonzero" fill="rgba(217, 0, 27, 1)" stroke="none" class="fill" />
</svg>