<?xml version="1.0" encoding="utf-8"?>
<svg version="1.1" xmlns:xlink="http://www.w3.org/1999/xlink" width="47px" height="10px" preserveAspectRatio="xMinYMid meet" viewBox="994 107 47 8" xmlns="http://www.w3.org/2000/svg">
  <path d="M 964 109  L 998 109  A 1 1 0 0 1 999 110 A 1 1 0 0 0 1000 111 L 1039 111  " stroke-width="2" stroke-dasharray="0" stroke="rgba(217, 0, 27, 1)" fill="none" class="stroke" />
  <path d="M 961.5 105.5  A 3.5 3.5 0 0 0 958 109 A 3.5 3.5 0 0 0 961.5 112.5 A 3.5 3.5 0 0 0 965 109 A 3.5 3.5 0 0 0 961.5 105.5 Z M 961.5 107.5  A 1.5 1.5 0 0 1 963 109 A 1.5 1.5 0 0 1 961.5 110.5 A 1.5 1.5 0 0 1 960 109 A 1.5 1.5 0 0 1 961.5 107.5 Z M 1031.6 119  L 1041 111  L 1031.6 103  L 1035.2 111  L 1031.6 119  Z " fill-rule="nonzero" fill="rgba(217, 0, 27, 1)" stroke="none" class="fill" />
</svg>