<?xml version="1.0" encoding="utf-8"?>
<svg version="1.1" xmlns:xlink="http://www.w3.org/1999/xlink" width="21px" height="20px" preserveAspectRatio="xMinYMid meet" viewBox="903 143 21 18" xmlns="http://www.w3.org/2000/svg">
  <path d="M 916 152  L 970 152  A 5 5 0 0 1 975 157 L 975 209  A 5 5 0 0 0 980 214 L 1039 214  " stroke-width="2" stroke-dasharray="0" stroke="rgba(217, 0, 27, 1)" fill="none" class="stroke" />
  <path d="M 913.5 148.5  A 3.5 3.5 0 0 0 910 152 A 3.5 3.5 0 0 0 913.5 155.5 A 3.5 3.5 0 0 0 917 152 A 3.5 3.5 0 0 0 913.5 148.5 Z M 913.5 150.5  A 1.5 1.5 0 0 1 915 152 A 1.5 1.5 0 0 1 913.5 153.5 A 1.5 1.5 0 0 1 912 152 A 1.5 1.5 0 0 1 913.5 150.5 Z M 1031.6 222  L 1041 214  L 1031.6 206  L 1035.2 214  L 1031.6 222  Z " fill-rule="nonzero" fill="rgba(217, 0, 27, 1)" stroke="none" class="fill" />
</svg>