<?xml version="1.0" encoding="utf-8"?>
<svg version="1.1" xmlns:xlink="http://www.w3.org/1999/xlink" width="239px" height="10px" preserveAspectRatio="xMinYMid meet" viewBox="572 263 239 8" xmlns="http://www.w3.org/2000/svg">
  <path d="M 578 267  L 801 267  A 5 5 0 0 1 806 272 L 806 334  A 5 5 0 0 0 811 339 L 1039 339  " stroke-width="2" stroke-dasharray="0" stroke="rgba(217, 0, 27, 1)" fill="none" class="stroke" />
  <path d="M 575.5 263.5  A 3.5 3.5 0 0 0 572 267 A 3.5 3.5 0 0 0 575.5 270.5 A 3.5 3.5 0 0 0 579 267 A 3.5 3.5 0 0 0 575.5 263.5 Z M 575.5 265.5  A 1.5 1.5 0 0 1 577 267 A 1.5 1.5 0 0 1 575.5 268.5 A 1.5 1.5 0 0 1 574 267 A 1.5 1.5 0 0 1 575.5 265.5 Z M 1031.6 347  L 1041 339  L 1031.6 331  L 1035.2 339  L 1031.6 347  Z " fill-rule="nonzero" fill="rgba(217, 0, 27, 1)" stroke="none" class="fill" />
</svg>