<?xml version="1.0" encoding="utf-8"?>
<svg version="1.1" xmlns:xlink="http://www.w3.org/1999/xlink" width="10px" height="93px" preserveAspectRatio="xMidYMin meet" viewBox="351 2719 8 93" xmlns="http://www.w3.org/2000/svg">
  <defs>
    <mask fill="white" id="Clip48">
      <path d="M 231 2787  L 351 2787  L 351 2827  L 231 2827  Z M 228 2709  L 365 2709  L 365 2930  L 228 2930  Z " fill-rule="evenodd" />
    </mask>
  </defs>
  <path d="M 355 2725  L 355 2802  A 5 5 0 0 1 350 2807 L 250 2807  A 5 5 0 0 0 245 2812 L 245 2911  " stroke-width="2" stroke-dasharray="0" stroke="rgba(217, 0, 27, 1)" fill="none" class="stroke" mask="url(#Clip48)" />
  <path d="M 355 2719  A 3.5 3.5 0 0 0 351.5 2722.5 A 3.5 3.5 0 0 0 355 2726 A 3.5 3.5 0 0 0 358.5 2722.5 A 3.5 3.5 0 0 0 355 2719 Z M 355 2721  A 1.5 1.5 0 0 1 356.5 2722.5 A 1.5 1.5 0 0 1 355 2724 A 1.5 1.5 0 0 1 353.5 2722.5 A 1.5 1.5 0 0 1 355 2721 Z M 237 2903.6  L 245 2913  L 253 2903.6  L 245 2907.2  L 237 2903.6  Z " fill-rule="nonzero" fill="rgba(217, 0, 27, 1)" stroke="none" class="fill" mask="url(#Clip48)" />
</svg>