<?xml version="1.0" encoding="utf-8"?>
<svg version="1.1" xmlns:xlink="http://www.w3.org/1999/xlink" width="10px" height="46px" preserveAspectRatio="xMidYMin meet" viewBox="2562 162 8 46" xmlns="http://www.w3.org/2000/svg">
  <path d="M 2752 167  L 2571 167  A 5 5 0 0 0 2566 172 L 2566 198  A 5 5 0 0 1 2561 203 L 2374 203  " stroke-width="2" stroke-dasharray="0" stroke="rgba(0, 153, 204, 1)" fill="none" class="stroke" />
  <path d="M 2754.5 163.5  A 3.5 3.5 0 0 0 2751 167 A 3.5 3.5 0 0 0 2754.5 170.5 A 3.5 3.5 0 0 0 2758 167 A 3.5 3.5 0 0 0 2754.5 163.5 Z M 2754.5 165.5  A 1.5 1.5 0 0 1 2756 167 A 1.5 1.5 0 0 1 2754.5 168.5 A 1.5 1.5 0 0 1 2753 167 A 1.5 1.5 0 0 1 2754.5 165.5 Z " fill-rule="nonzero" fill="rgba(0, 153, 204, 1)" stroke="none" class="fill" />
</svg>