<?xml version="1.0" encoding="utf-8"?>
<svg version="1.1" xmlns:xlink="http://www.w3.org/1999/xlink" width="31px" height="15px" xmlns="http://www.w3.org/2000/svg">
  <defs>
    <pattern id="BGPattern" patternUnits="userSpaceOnUse" alignment="0 0" imageRepeat="None" />
    <mask fill="white" id="Clip3">
      <path d="M 0 15  L 0 0  L 15.838709677419502 0  L 19.906204906204948 0  L 21 0  L 22.457386363636488 0  L 31 0  L 31 15  L 7.045454545454504 15  L 0 15  Z " fill-rule="evenodd" />
    </mask>
  </defs>
  <g transform="matrix(1 0 0 1 -1144 -490 )">
    <path d="M 0 15  L 0 0  L 15.838709677419502 0  L 19.906204906204948 0  L 21 0  L 22.457386363636488 0  L 31 0  L 31 15  L 7.045454545454504 15  L 0 15  Z " fill-rule="nonzero" fill="rgba(255, 255, 255, 1)" stroke="none" transform="matrix(1 0 0 1 1144 490 )" class="fill" />
    <path d="M 0 15  L 0 0  L 15.838709677419502 0  L 19.906204906204948 0  L 21 0  L 22.457386363636488 0  L 31 0  L 31 15  L 7.045454545454504 15  L 0 15  Z " stroke-width="0" stroke-dasharray="0" stroke="rgba(121, 121, 121, 1)" fill="none" transform="matrix(1 0 0 1 1144 490 )" class="stroke" mask="url(#Clip3)" />
  </g>
</svg>