<?xml version="1.0" encoding="utf-8"?>
<svg version="1.1" xmlns:xlink="http://www.w3.org/1999/xlink" width="57px" height="15px" xmlns="http://www.w3.org/2000/svg">
  <defs>
    <pattern id="BGPattern" patternUnits="userSpaceOnUse" alignment="0 0" imageRepeat="None" />
    <mask fill="white" id="Clip4">
      <path d="M 0 15  L 0 0  L 29.122788761706826 0  L 36.60173160173168 0  L 38.61290322580645 0  L 41.29261363636387 0  L 57 0  L 57 15  L 12.954545454545379 15  L 0 15  Z " fill-rule="evenodd" />
    </mask>
  </defs>
  <g transform="matrix(1 0 0 1 -1498 -490 )">
    <path d="M 0 15  L 0 0  L 29.122788761706826 0  L 36.60173160173168 0  L 38.61290322580645 0  L 41.29261363636387 0  L 57 0  L 57 15  L 12.954545454545379 15  L 0 15  Z " fill-rule="nonzero" fill="rgba(255, 255, 255, 1)" stroke="none" transform="matrix(1 0 0 1 1498 490 )" class="fill" />
    <path d="M 0 15  L 0 0  L 29.122788761706826 0  L 36.60173160173168 0  L 38.61290322580645 0  L 41.29261363636387 0  L 57 0  L 57 15  L 12.954545454545379 15  L 0 15  Z " stroke-width="0" stroke-dasharray="0" stroke="rgba(121, 121, 121, 1)" fill="none" transform="matrix(1 0 0 1 1498 490 )" class="stroke" mask="url(#Clip4)" />
  </g>
</svg>