<?xml version="1.0" encoding="utf-8"?>
<svg version="1.1" xmlns:xlink="http://www.w3.org/1999/xlink" width="44px" height="15px" xmlns="http://www.w3.org/2000/svg">
  <defs>
    <pattern id="BGPattern" patternUnits="userSpaceOnUse" alignment="0 0" imageRepeat="None" />
    <mask fill="white" id="Clip5">
      <path d="M 0 15  L 0 0  L 28.25396825396831 0  L 29.806451612903224 0  L 31.875000000000178 0  L 44 0  L 44 15  L 9.999999999999941 15  L 0 15  Z " fill-rule="evenodd" />
    </mask>
  </defs>
  <g transform="matrix(1 0 0 1 -1498 -461 )">
    <path d="M 0 15  L 0 0  L 28.25396825396831 0  L 29.806451612903224 0  L 31.875000000000178 0  L 44 0  L 44 15  L 9.999999999999941 15  L 0 15  Z " fill-rule="nonzero" fill="rgba(255, 255, 255, 1)" stroke="none" transform="matrix(1 0 0 1 1498 461 )" class="fill" />
    <path d="M 0 15  L 0 0  L 28.25396825396831 0  L 29.806451612903224 0  L 31.875000000000178 0  L 44 0  L 44 15  L 9.999999999999941 15  L 0 15  Z " stroke-width="0" stroke-dasharray="0" stroke="rgba(121, 121, 121, 1)" fill="none" transform="matrix(1 0 0 1 1498 461 )" class="stroke" mask="url(#Clip5)" />
  </g>
</svg>