<?xml version="1.0" encoding="utf-8"?>
<svg version="1.1" xmlns:xlink="http://www.w3.org/1999/xlink" width="39px" height="15px" xmlns="http://www.w3.org/2000/svg">
  <defs>
    <pattern id="BGPattern" patternUnits="userSpaceOnUse" alignment="0 0" imageRepeat="None" />
    <mask fill="white" id="Clip8">
      <path d="M 0 15  L 0 0  L 9.85496183206078 0  L 23.595419847328227 0  L 39 0  L 39 15  L 0 15  Z " fill-rule="evenodd" />
    </mask>
  </defs>
  <g transform="matrix(1 0 0 1 -3376 -331 )">
    <path d="M 0 15  L 0 0  L 9.85496183206078 0  L 23.595419847328227 0  L 39 0  L 39 15  L 0 15  Z " fill-rule="nonzero" fill="rgba(255, 255, 255, 1)" stroke="none" transform="matrix(1 0 0 1 3376 331 )" class="fill" />
    <path d="M 0 15  L 0 0  L 9.85496183206078 0  L 23.595419847328227 0  L 39 0  L 39 15  L 0 15  Z " stroke-width="0" stroke-dasharray="0" stroke="rgba(121, 121, 121, 1)" fill="none" transform="matrix(1 0 0 1 3376 331 )" class="stroke" mask="url(#Clip8)" />
  </g>
</svg>