<?xml version="1.0" encoding="utf-8"?>
<svg version="1.1" xmlns:xlink="http://www.w3.org/1999/xlink" width="52px" height="15px" xmlns="http://www.w3.org/2000/svg">
  <defs>
    <pattern id="BGPattern" patternUnits="userSpaceOnUse" alignment="0 0" imageRepeat="None" />
    <mask fill="white" id="Clip10">
      <path d="M 0 15  L 0 0  L 13.139949109414374 0  L 23.76954732509921 0  L 31.460559796437792 0  L 32 0  L 35.4736842105267 0  L 52 0  L 52 15  L 35.4736842105267 15  L 23.76954732509921 15  L 0 15  Z " fill-rule="evenodd" />
    </mask>
  </defs>
  <g transform="matrix(1 0 0 1 -3700 -273 )">
    <path d="M 0 15  L 0 0  L 13.139949109414374 0  L 23.76954732509921 0  L 31.460559796437792 0  L 32 0  L 35.4736842105267 0  L 52 0  L 52 15  L 35.4736842105267 15  L 23.76954732509921 15  L 0 15  Z " fill-rule="nonzero" fill="rgba(255, 255, 255, 1)" stroke="none" transform="matrix(1 0 0 1 3700 273 )" class="fill" />
    <path d="M 0 15  L 0 0  L 13.139949109414374 0  L 23.76954732509921 0  L 31.460559796437792 0  L 32 0  L 35.4736842105267 0  L 52 0  L 52 15  L 35.4736842105267 15  L 23.76954732509921 15  L 0 15  Z " stroke-width="0" stroke-dasharray="0" stroke="rgba(121, 121, 121, 1)" fill="none" transform="matrix(1 0 0 1 3700 273 )" class="stroke" mask="url(#Clip10)" />
  </g>
</svg>