<?xml version="1.0" encoding="utf-8"?>
<svg version="1.1" xmlns:xlink="http://www.w3.org/1999/xlink" width="74px" height="15px" xmlns="http://www.w3.org/2000/svg">
  <defs>
    <pattern id="BGPattern" patternUnits="userSpaceOnUse" alignment="0 0" imageRepeat="None" />
    <mask fill="white" id="Clip1">
      <path d="M 0 15  L 0 0  L 41.96670135275737 0  L 47.518037518037616 0  L 53.607954545454305 0  L 74 0  L 74 15  L 16.81818181818172 15  L 0 15  Z " fill-rule="evenodd" />
    </mask>
  </defs>
  <g transform="matrix(1 0 0 1 -792 -556 )">
    <path d="M 0 15  L 0 0  L 41.96670135275737 0  L 47.518037518037616 0  L 53.607954545454305 0  L 74 0  L 74 15  L 16.81818181818172 15  L 0 15  Z " fill-rule="nonzero" fill="rgba(255, 255, 255, 1)" stroke="none" transform="matrix(1 0 0 1 792 556 )" class="fill" />
    <path d="M 0 15  L 0 0  L 41.96670135275737 0  L 47.518037518037616 0  L 53.607954545454305 0  L 74 0  L 74 15  L 16.81818181818172 15  L 0 15  Z " stroke-width="0" stroke-dasharray="0" stroke="rgba(121, 121, 121, 1)" fill="none" transform="matrix(1 0 0 1 792 556 )" class="stroke" mask="url(#Clip1)" />
  </g>
</svg>