<?xml version="1.0" encoding="utf-8"?>
<svg version="1.1" xmlns:xlink="http://www.w3.org/1999/xlink" width="169px" height="10px" preserveAspectRatio="xMinYMid meet" viewBox="2374 199 169 8" xmlns="http://www.w3.org/2000/svg">
  <path d="M 2696 212  L 2542.5 212  A 4.5 4.5 0 0 1 2538 207.5 A 4.5 4.5 0 0 0 2533.5 203 L 2374 203  " stroke-width="2" stroke-dasharray="0" stroke="rgba(0, 153, 204, 1)" fill="none" class="stroke" />
  <path d="M 2698.5 208.5  A 3.5 3.5 0 0 0 2695 212 A 3.5 3.5 0 0 0 2698.5 215.5 A 3.5 3.5 0 0 0 2702 212 A 3.5 3.5 0 0 0 2698.5 208.5 Z M 2698.5 210.5  A 1.5 1.5 0 0 1 2700 212 A 1.5 1.5 0 0 1 2698.5 213.5 A 1.5 1.5 0 0 1 2697 212 A 1.5 1.5 0 0 1 2698.5 210.5 Z " fill-rule="nonzero" fill="rgba(0, 153, 204, 1)" stroke="none" class="fill" />
</svg>