<?xml version="1.0" encoding="utf-8"?>
<svg version="1.1" xmlns:xlink="http://www.w3.org/1999/xlink" width="49px" height="10px" preserveAspectRatio="xMinYMid meet" viewBox="6043 429 49 8" xmlns="http://www.w3.org/2000/svg">
  <path d="M 6086 433  L 6053 433  A 5 5 0 0 0 6048 438 L 6048 485  A 5 5 0 0 1 6043 490 L 6011 490  " stroke-width="2" stroke-dasharray="0" stroke="rgba(217, 0, 27, 1)" fill="none" class="stroke" />
  <path d="M 6088.5 429.5  A 3.5 3.5 0 0 0 6085 433 A 3.5 3.5 0 0 0 6088.5 436.5 A 3.5 3.5 0 0 0 6092 433 A 3.5 3.5 0 0 0 6088.5 429.5 Z M 6088.5 431.5  A 1.5 1.5 0 0 1 6090 433 A 1.5 1.5 0 0 1 6088.5 434.5 A 1.5 1.5 0 0 1 6087 433 A 1.5 1.5 0 0 1 6088.5 431.5 Z M 6012 482.4  L 6005 490  L 6012 497.6  L 6012 482.4  Z " fill-rule="nonzero" fill="rgba(217, 0, 27, 1)" stroke="none" class="fill" />
</svg>