<?xml version="1.0" encoding="utf-8"?>
<svg version="1.1" xmlns:xlink="http://www.w3.org/1999/xlink" width="20px" height="20px" preserveAspectRatio="xMinYMid meet" viewBox="6000 241 20 18" xmlns="http://www.w3.org/2000/svg">
  <path d="M 6086 300  L 6053 300  A 5 5 0 0 1 6048 295 L 6048 255  A 5 5 0 0 0 6043 250 L 6011 250  " stroke-width="2" stroke-dasharray="0" stroke="rgba(217, 0, 27, 1)" fill="none" class="stroke" />
  <path d="M 6088.5 296.5  A 3.5 3.5 0 0 0 6085 300 A 3.5 3.5 0 0 0 6088.5 303.5 A 3.5 3.5 0 0 0 6092 300 A 3.5 3.5 0 0 0 6088.5 296.5 Z M 6088.5 298.5  A 1.5 1.5 0 0 1 6090 300 A 1.5 1.5 0 0 1 6088.5 301.5 A 1.5 1.5 0 0 1 6087 300 A 1.5 1.5 0 0 1 6088.5 298.5 Z M 6012 242.4  L 6005 250  L 6012 257.6  L 6012 242.4  Z " fill-rule="nonzero" fill="rgba(217, 0, 27, 1)" stroke="none" class="fill" />
</svg>