<?xml version="1.0" encoding="utf-8"?>
<svg version="1.1" xmlns:xlink="http://www.w3.org/1999/xlink" width="34px" height="34px" preserveAspectRatio="xMinYMid meet" viewBox="8273 1185 34 32" xmlns="http://www.w3.org/2000/svg">
  <path d="M 8070 1201  L 8290 1201  " stroke-width="2" stroke-dasharray="0" stroke="rgba(217, 0, 27, 1)" fill="none" class="stroke" />
  <path d="M 8067.5 1197.5  A 3.5 3.5 0 0 0 8064 1201 A 3.5 3.5 0 0 0 8067.5 1204.5 A 3.5 3.5 0 0 0 8071 1201 A 3.5 3.5 0 0 0 8067.5 1197.5 Z M 8067.5 1199.5  A 1.5 1.5 0 0 1 8069 1201 A 1.5 1.5 0 0 1 8067.5 1202.5 A 1.5 1.5 0 0 1 8066 1201 A 1.5 1.5 0 0 1 8067.5 1199.5 Z M 8282.6 1209  L 8292 1201  L 8282.6 1193  L 8286.2 1201  L 8282.6 1209  Z " fill-rule="nonzero" fill="rgba(217, 0, 27, 1)" stroke="none" class="fill" />
</svg>