<?xml version="1.0" encoding="utf-8"?>
<svg version="1.1" xmlns:xlink="http://www.w3.org/1999/xlink" width="34px" height="34px" preserveAspectRatio="xMinYMid meet" viewBox="8273 1185 34 32" xmlns="http://www.w3.org/2000/svg">
  <path d="M 7946 1001  L 8228 1001  A 5 5 0 0 1 8233 1006 L 8233 1196  A 5 5 0 0 0 8238 1201 L 8290 1201  " stroke-width="2" stroke-dasharray="0" stroke="rgba(217, 0, 27, 1)" fill="none" class="stroke" />
  <path d="M 7943.5 997.5  A 3.5 3.5 0 0 0 7940 1001 A 3.5 3.5 0 0 0 7943.5 1004.5 A 3.5 3.5 0 0 0 7947 1001 A 3.5 3.5 0 0 0 7943.5 997.5 Z M 7943.5 999.5  A 1.5 1.5 0 0 1 7945 1001 A 1.5 1.5 0 0 1 7943.5 1002.5 A 1.5 1.5 0 0 1 7942 1001 A 1.5 1.5 0 0 1 7943.5 999.5 Z M 8282.6 1209  L 8292 1201  L 8282.6 1193  L 8286.2 1201  L 8282.6 1209  Z " fill-rule="nonzero" fill="rgba(217, 0, 27, 1)" stroke="none" class="fill" />
</svg>