<?xml version="1.0" encoding="utf-8"?>
<svg version="1.1" xmlns:xlink="http://www.w3.org/1999/xlink" width="34px" height="34px" preserveAspectRatio="xMinYMid meet" viewBox="6206 614 34 32" xmlns="http://www.w3.org/2000/svg">
  <path d="M 6223 551  L 6223 630  " stroke-width="2" stroke-dasharray="0" stroke="rgba(217, 0, 27, 1)" fill="none" class="stroke" />
  <path d="M 6223 545  A 3.5 3.5 0 0 0 6219.5 548.5 A 3.5 3.5 0 0 0 6223 552 A 3.5 3.5 0 0 0 6226.5 548.5 A 3.5 3.5 0 0 0 6223 545 Z M 6223 547  A 1.5 1.5 0 0 1 6224.5 548.5 A 1.5 1.5 0 0 1 6223 550 A 1.5 1.5 0 0 1 6221.5 548.5 A 1.5 1.5 0 0 1 6223 547 Z M 6215 622.6  L 6223 632  L 6231 622.6  L 6223 626.2  L 6215 622.6  Z " fill-rule="nonzero" fill="rgba(217, 0, 27, 1)" stroke="none" class="fill" />
</svg>