<?xml version="1.0" encoding="utf-8"?>
<svg version="1.1" xmlns:xlink="http://www.w3.org/1999/xlink" width="249px" height="10px" preserveAspectRatio="xMinYMid meet" viewBox="6353 495 249 8" xmlns="http://www.w3.org/2000/svg">
  <path d="M 6359 499  L 6595 499  " stroke-width="2" stroke-dasharray="0" stroke="rgba(217, 0, 27, 1)" fill="none" class="stroke" />
  <path d="M 6356.5 495.5  A 3.5 3.5 0 0 0 6353 499 A 3.5 3.5 0 0 0 6356.5 502.5 A 3.5 3.5 0 0 0 6360 499 A 3.5 3.5 0 0 0 6356.5 495.5 Z M 6356.5 497.5  A 1.5 1.5 0 0 1 6358 499 A 1.5 1.5 0 0 1 6356.5 500.5 A 1.5 1.5 0 0 1 6355 499 A 1.5 1.5 0 0 1 6356.5 497.5 Z M 6587.6 507  L 6597 499  L 6587.6 491  L 6591.2 499  L 6587.6 507  Z " fill-rule="nonzero" fill="rgba(217, 0, 27, 1)" stroke="none" class="fill" />
</svg>