<?xml version="1.0" encoding="utf-8"?>
<svg version="1.1" xmlns:xlink="http://www.w3.org/1999/xlink" width="52px" height="10px" preserveAspectRatio="xMinYMid meet" viewBox="8185 1421 52 8" xmlns="http://www.w3.org/2000/svg">
  <path d="M 8191 1425  L 8227 1425  A 5 5 0 0 0 8232 1420 L 8232 1206  A 5 5 0 0 1 8237 1201 L 8290 1201  " stroke-width="2" stroke-dasharray="0" stroke="rgba(217, 0, 27, 1)" fill="none" class="stroke" />
  <path d="M 8188.5 1421.5  A 3.5 3.5 0 0 0 8185 1425 A 3.5 3.5 0 0 0 8188.5 1428.5 A 3.5 3.5 0 0 0 8192 1425 A 3.5 3.5 0 0 0 8188.5 1421.5 Z M 8188.5 1423.5  A 1.5 1.5 0 0 1 8190 1425 A 1.5 1.5 0 0 1 8188.5 1426.5 A 1.5 1.5 0 0 1 8187 1425 A 1.5 1.5 0 0 1 8188.5 1423.5 Z M 8282.6 1209  L 8292 1201  L 8282.6 1193  L 8286.2 1201  L 8282.6 1209  Z " fill-rule="nonzero" fill="rgba(217, 0, 27, 1)" stroke="none" class="fill" />
</svg>