<?xml version="1.0" encoding="utf-8"?>
<svg version="1.1" xmlns:xlink="http://www.w3.org/1999/xlink" width="34px" height="34px" preserveAspectRatio="xMinYMid meet" viewBox="7714 467 34 32" xmlns="http://www.w3.org/2000/svg">
  <path d="M 7429 418  L 7573 418  A 5 5 0 0 1 7578 423 L 7578 478  A 5 5 0 0 0 7583 483 L 7731 483  " stroke-width="2" stroke-dasharray="0" stroke="rgba(217, 0, 27, 1)" fill="none" class="stroke" />
  <path d="M 7426.5 414.5  A 3.5 3.5 0 0 0 7423 418 A 3.5 3.5 0 0 0 7426.5 421.5 A 3.5 3.5 0 0 0 7430 418 A 3.5 3.5 0 0 0 7426.5 414.5 Z M 7426.5 416.5  A 1.5 1.5 0 0 1 7428 418 A 1.5 1.5 0 0 1 7426.5 419.5 A 1.5 1.5 0 0 1 7425 418 A 1.5 1.5 0 0 1 7426.5 416.5 Z M 7723.6 491  L 7733 483  L 7723.6 475  L 7727.2 483  L 7723.6 491  Z " fill-rule="nonzero" fill="rgba(217, 0, 27, 1)" stroke="none" class="fill" />
</svg>