<?xml version="1.0" encoding="utf-8"?>
<svg version="1.1" xmlns:xlink="http://www.w3.org/1999/xlink" width="10px" height="303px" preserveAspectRatio="xMidYMin meet" viewBox="6462 171 8 303" xmlns="http://www.w3.org/2000/svg">
  <path d="M 6359 469  L 6461 469  A 5 5 0 0 0 6466 464 L 6466 181  A 5 5 0 0 1 6471 176 L 6595 176  " stroke-width="2" stroke-dasharray="0" stroke="rgba(217, 0, 27, 1)" fill="none" class="stroke" />
  <path d="M 6356.5 465.5  A 3.5 3.5 0 0 0 6353 469 A 3.5 3.5 0 0 0 6356.5 472.5 A 3.5 3.5 0 0 0 6360 469 A 3.5 3.5 0 0 0 6356.5 465.5 Z M 6356.5 467.5  A 1.5 1.5 0 0 1 6358 469 A 1.5 1.5 0 0 1 6356.5 470.5 A 1.5 1.5 0 0 1 6355 469 A 1.5 1.5 0 0 1 6356.5 467.5 Z M 6587.6 184  L 6597 176  L 6587.6 168  L 6591.2 176  L 6587.6 184  Z " fill-rule="nonzero" fill="rgba(217, 0, 27, 1)" stroke="none" class="fill" />
</svg>