<?xml version="1.0" encoding="utf-8"?>
<svg version="1.1" xmlns:xlink="http://www.w3.org/1999/xlink" width="34px" height="34px" preserveAspectRatio="xMinYMid meet" viewBox="7387 1051 34 32" xmlns="http://www.w3.org/2000/svg">
  <path d="M 7137 1366  L 7261 1366  A 5 5 0 0 0 7266 1361 L 7266 1072  A 5 5 0 0 1 7271 1067 L 7404 1067  " stroke-width="2" stroke-dasharray="0" stroke="rgba(217, 0, 27, 1)" fill="none" class="stroke" />
  <path d="M 7134.5 1362.5  A 3.5 3.5 0 0 0 7131 1366 A 3.5 3.5 0 0 0 7134.5 1369.5 A 3.5 3.5 0 0 0 7138 1366 A 3.5 3.5 0 0 0 7134.5 1362.5 Z M 7134.5 1364.5  A 1.5 1.5 0 0 1 7136 1366 A 1.5 1.5 0 0 1 7134.5 1367.5 A 1.5 1.5 0 0 1 7133 1366 A 1.5 1.5 0 0 1 7134.5 1364.5 Z M 7396.6 1075  L 7406 1067  L 7396.6 1059  L 7400.2 1067  L 7396.6 1075  Z " fill-rule="nonzero" fill="rgba(217, 0, 27, 1)" stroke="none" class="fill" />
</svg>