<?xml version="1.0" encoding="utf-8"?>
<svg version="1.1" xmlns:xlink="http://www.w3.org/1999/xlink" width="21px" height="20px" preserveAspectRatio="xMinYMid meet" viewBox="993 143 21 18" xmlns="http://www.w3.org/2000/svg">
  <path d="M 1006 152  L 1065 152  " stroke-width="2" stroke-dasharray="0" stroke="rgba(217, 0, 27, 1)" fill="none" class="stroke" />
  <path d="M 1003.5 148.5  A 3.5 3.5 0 0 0 1000 152 A 3.5 3.5 0 0 0 1003.5 155.5 A 3.5 3.5 0 0 0 1007 152 A 3.5 3.5 0 0 0 1003.5 148.5 Z M 1003.5 150.5  A 1.5 1.5 0 0 1 1005 152 A 1.5 1.5 0 0 1 1003.5 153.5 A 1.5 1.5 0 0 1 1002 152 A 1.5 1.5 0 0 1 1003.5 150.5 Z M 1057.6 160  L 1067 152  L 1057.6 144  L 1061.2 152  L 1057.6 160  Z " fill-rule="nonzero" fill="rgba(217, 0, 27, 1)" stroke="none" class="fill" />
</svg>