<?xml version="1.0" encoding="utf-8"?>
<svg version="1.1" xmlns:xlink="http://www.w3.org/1999/xlink" width="13px" height="13px" viewBox="81 997 13 13" xmlns="http://www.w3.org/2000/svg">
  <path d="M 87.5 997  C 91.14 997  94 999.86  94 1003.5  C 94 1007.14  91.14 1010  87.5 1010  C 83.86 1010  81 1007.14  81 1003.5  C 81 999.86  83.86 997  87.5 997  Z " fill-rule="nonzero" fill="rgba(255, 255, 255, 1)" stroke="none" class="fill" />
  <path d="M 87.5 997.5  C 90.86 997.5  93.5 1000.14  93.5 1003.5  C 93.5 1006.86  90.86 1009.5  87.5 1009.5  C 84.14 1009.5  81.5 1006.86  81.5 1003.5  C 81.5 1000.14  84.14 997.5  87.5 997.5  Z " stroke-width="1" stroke-dasharray="0" stroke="rgba(121, 121, 121, 1)" fill="none" class="stroke" stroke-dashoffset="0.5" />
  <path d="M 87.5 1006.75  C 85.68 1006.75  84.25 1005.32  84.25 1003.5  C 84.25 1001.68  85.68 1000.25  87.5 1000.25  C 89.32 1000.25  90.75 1001.68  90.75 1003.5  C 90.75 1005.32  89.32 1006.75  87.5 1006.75  " fill-rule="nonzero" fill="rgba(121, 121, 121, 1)" stroke="none" class="stroke btn_check" />
</svg>