<?xml version="1.0" encoding="utf-8"?>
<svg version="1.1" xmlns:xlink="http://www.w3.org/1999/xlink" width="21px" height="20px" preserveAspectRatio="xMinYMid meet" viewBox="427 258 21 18" xmlns="http://www.w3.org/2000/svg">
  <path d="M 440 267  L 745 267  A 5 5 0 0 0 750 262 L 750 246  A 5 5 0 0 1 755 241 L 1065 241  " stroke-width="2" stroke-dasharray="0" stroke="rgba(217, 0, 27, 1)" fill="none" class="stroke" />
  <path d="M 437.5 263.5  A 3.5 3.5 0 0 0 434 267 A 3.5 3.5 0 0 0 437.5 270.5 A 3.5 3.5 0 0 0 441 267 A 3.5 3.5 0 0 0 437.5 263.5 Z M 437.5 265.5  A 1.5 1.5 0 0 1 439 267 A 1.5 1.5 0 0 1 437.5 268.5 A 1.5 1.5 0 0 1 436 267 A 1.5 1.5 0 0 1 437.5 265.5 Z M 1057.6 249  L 1067 241  L 1057.6 233  L 1061.2 241  L 1057.6 249  Z " fill-rule="nonzero" fill="rgba(217, 0, 27, 1)" stroke="none" class="fill" />
</svg>