<?xml version="1.0" encoding="utf-8"?>
<svg version="1.1" xmlns:xlink="http://www.w3.org/1999/xlink" width="21px" height="20px" preserveAspectRatio="xMinYMid meet" viewBox="206 780 21 18" xmlns="http://www.w3.org/2000/svg">
  <path d="M 219 789  L 364 789  " stroke-width="2" stroke-dasharray="0" stroke="rgba(217, 0, 27, 1)" fill="none" class="stroke" />
  <path d="M 216.5 785.5  A 3.5 3.5 0 0 0 213 789 A 3.5 3.5 0 0 0 216.5 792.5 A 3.5 3.5 0 0 0 220 789 A 3.5 3.5 0 0 0 216.5 785.5 Z M 216.5 787.5  A 1.5 1.5 0 0 1 218 789 A 1.5 1.5 0 0 1 216.5 790.5 A 1.5 1.5 0 0 1 215 789 A 1.5 1.5 0 0 1 216.5 787.5 Z M 356.6 797  L 366 789  L 356.6 781  L 360.2 789  L 356.6 797  Z " fill-rule="nonzero" fill="rgba(217, 0, 27, 1)" stroke="none" class="fill" />
</svg>