<?xml version="1.0" encoding="utf-8"?>
<svg version="1.1" xmlns:xlink="http://www.w3.org/1999/xlink" width="34px" height="34px" preserveAspectRatio="xMinYMid meet" viewBox="2047 595 34 32" xmlns="http://www.w3.org/2000/svg">
  <path d="M 1952 611  L 2064 611  " stroke-width="2" stroke-dasharray="0" stroke="rgba(217, 0, 27, 1)" fill="none" class="stroke" />
  <path d="M 1949.5 607.5  A 3.5 3.5 0 0 0 1946 611 A 3.5 3.5 0 0 0 1949.5 614.5 A 3.5 3.5 0 0 0 1953 611 A 3.5 3.5 0 0 0 1949.5 607.5 Z M 1949.5 609.5  A 1.5 1.5 0 0 1 1951 611 A 1.5 1.5 0 0 1 1949.5 612.5 A 1.5 1.5 0 0 1 1948 611 A 1.5 1.5 0 0 1 1949.5 609.5 Z M 2056.6 619  L 2066 611  L 2056.6 603  L 2060.2 611  L 2056.6 619  Z " fill-rule="nonzero" fill="rgba(217, 0, 27, 1)" stroke="none" class="fill" />
</svg>