<?xml version="1.0" encoding="utf-8"?>
<svg version="1.1" xmlns:xlink="http://www.w3.org/1999/xlink" width="10px" height="86px" preserveAspectRatio="xMidYMin meet" viewBox="1760 323 8 86" xmlns="http://www.w3.org/2000/svg">
  <path d="M 998 328  L 1759 328  A 5 5 0 0 1 1764 333 L 1764 407  " stroke-width="2" stroke-dasharray="0" stroke="rgba(217, 0, 27, 1)" fill="none" class="stroke" />
  <path d="M 995.5 324.5  A 3.5 3.5 0 0 0 992 328 A 3.5 3.5 0 0 0 995.5 331.5 A 3.5 3.5 0 0 0 999 328 A 3.5 3.5 0 0 0 995.5 324.5 Z M 995.5 326.5  A 1.5 1.5 0 0 1 997 328 A 1.5 1.5 0 0 1 995.5 329.5 A 1.5 1.5 0 0 1 994 328 A 1.5 1.5 0 0 1 995.5 326.5 Z M 1756 399.6  L 1764 409  L 1772 399.6  L 1764 403.2  L 1756 399.6  Z " fill-rule="nonzero" fill="rgba(217, 0, 27, 1)" stroke="none" class="fill" />
</svg>