<?xml version="1.0" encoding="utf-8"?>
<svg version="1.1" xmlns:xlink="http://www.w3.org/1999/xlink" width="10px" height="168px" preserveAspectRatio="xMidYMin meet" viewBox="496 1019 8 168" xmlns="http://www.w3.org/2000/svg">
  <path d="M 500 1025  L 500 1180  " stroke-width="2" stroke-dasharray="0" stroke="rgba(217, 0, 27, 1)" fill="none" class="stroke" />
  <path d="M 500 1019  A 3.5 3.5 0 0 0 496.5 1022.5 A 3.5 3.5 0 0 0 500 1026 A 3.5 3.5 0 0 0 503.5 1022.5 A 3.5 3.5 0 0 0 500 1019 Z M 500 1021  A 1.5 1.5 0 0 1 501.5 1022.5 A 1.5 1.5 0 0 1 500 1024 A 1.5 1.5 0 0 1 498.5 1022.5 A 1.5 1.5 0 0 1 500 1021 Z M 492 1172.6  L 500 1182  L 508 1172.6  L 500 1176.2  L 492 1172.6  Z " fill-rule="nonzero" fill="rgba(217, 0, 27, 1)" stroke="none" class="fill" />
</svg>