<?xml version="1.0" encoding="utf-8"?>
<svg version="1.1" xmlns:xlink="http://www.w3.org/1999/xlink" width="21px" height="20px" preserveAspectRatio="xMinYMid meet" viewBox="623 974 21 18" xmlns="http://www.w3.org/2000/svg">
  <path d="M 636 983  L 760 983  " stroke-width="2" stroke-dasharray="0" stroke="rgba(217, 0, 27, 1)" fill="none" class="stroke" />
  <path d="M 633.5 979.5  A 3.5 3.5 0 0 0 630 983 A 3.5 3.5 0 0 0 633.5 986.5 A 3.5 3.5 0 0 0 637 983 A 3.5 3.5 0 0 0 633.5 979.5 Z M 633.5 981.5  A 1.5 1.5 0 0 1 635 983 A 1.5 1.5 0 0 1 633.5 984.5 A 1.5 1.5 0 0 1 632 983 A 1.5 1.5 0 0 1 633.5 981.5 Z M 752.6 991  L 762 983  L 752.6 975  L 756.2 983  L 752.6 991  Z " fill-rule="nonzero" fill="rgba(217, 0, 27, 1)" stroke="none" class="fill" />
</svg>