<?xml version="1.0" encoding="utf-8"?>
<svg version="1.1" xmlns:xlink="http://www.w3.org/1999/xlink" width="21px" height="20px" preserveAspectRatio="xMinYMid meet" viewBox="1186 1461 21 18" xmlns="http://www.w3.org/2000/svg">
  <path d="M 1199 1470  L 1248 1470  A 5 5 0 0 1 1253 1475 L 1253 1508  A 5 5 0 0 0 1258 1513 L 1311 1513  " stroke-width="2" stroke-dasharray="0" stroke="rgba(217, 0, 27, 1)" fill="none" class="stroke" />
  <path d="M 1196.5 1466.5  A 3.5 3.5 0 0 0 1193 1470 A 3.5 3.5 0 0 0 1196.5 1473.5 A 3.5 3.5 0 0 0 1200 1470 A 3.5 3.5 0 0 0 1196.5 1466.5 Z M 1196.5 1468.5  A 1.5 1.5 0 0 1 1198 1470 A 1.5 1.5 0 0 1 1196.5 1471.5 A 1.5 1.5 0 0 1 1195 1470 A 1.5 1.5 0 0 1 1196.5 1468.5 Z M 1303.6 1521  L 1313 1513  L 1303.6 1505  L 1307.2 1513  L 1303.6 1521  Z " fill-rule="nonzero" fill="rgba(217, 0, 27, 1)" stroke="none" class="fill" />
</svg>