<?xml version="1.0" encoding="utf-8"?>
<svg version="1.1" xmlns:xlink="http://www.w3.org/1999/xlink" width="10px" height="104px" preserveAspectRatio="xMidYMin meet" viewBox="1249 1508 8 104" xmlns="http://www.w3.org/2000/svg">
  <path d="M 1199 1607  L 1248 1607  A 5 5 0 0 0 1253 1602 L 1253 1518  A 5 5 0 0 1 1258 1513 L 1311 1513  " stroke-width="2" stroke-dasharray="0" stroke="rgba(217, 0, 27, 1)" fill="none" class="stroke" />
  <path d="M 1196.5 1603.5  A 3.5 3.5 0 0 0 1193 1607 A 3.5 3.5 0 0 0 1196.5 1610.5 A 3.5 3.5 0 0 0 1200 1607 A 3.5 3.5 0 0 0 1196.5 1603.5 Z M 1196.5 1605.5  A 1.5 1.5 0 0 1 1198 1607 A 1.5 1.5 0 0 1 1196.5 1608.5 A 1.5 1.5 0 0 1 1195 1607 A 1.5 1.5 0 0 1 1196.5 1605.5 Z M 1303.6 1521  L 1313 1513  L 1303.6 1505  L 1307.2 1513  L 1303.6 1521  Z " fill-rule="nonzero" fill="rgba(217, 0, 27, 1)" stroke="none" class="fill" />
</svg>