<?xml version="1.0" encoding="utf-8"?>
<svg version="1.1" xmlns:xlink="http://www.w3.org/1999/xlink" width="10px" height="102px" preserveAspectRatio="xMidYMin meet" viewBox="2130 1781 8 102" xmlns="http://www.w3.org/2000/svg">
  <path d="M 2134 1787  L 2134 1876  " stroke-width="2" stroke-dasharray="0" stroke="rgba(217, 0, 27, 1)" fill="none" class="stroke" />
  <path d="M 2134 1781  A 3.5 3.5 0 0 0 2130.5 1784.5 A 3.5 3.5 0 0 0 2134 1788 A 3.5 3.5 0 0 0 2137.5 1784.5 A 3.5 3.5 0 0 0 2134 1781 Z M 2134 1783  A 1.5 1.5 0 0 1 2135.5 1784.5 A 1.5 1.5 0 0 1 2134 1786 A 1.5 1.5 0 0 1 2132.5 1784.5 A 1.5 1.5 0 0 1 2134 1783 Z M 2126 1868.6  L 2134 1878  L 2142 1868.6  L 2134 1872.2  L 2126 1868.6  Z " fill-rule="nonzero" fill="rgba(217, 0, 27, 1)" stroke="none" class="fill" />
</svg>