<?xml version="1.0" encoding="utf-8"?>
<svg version="1.1" xmlns:xlink="http://www.w3.org/1999/xlink" width="34px" height="34px" preserveAspectRatio="xMinYMid meet" viewBox="2015 1336 34 32" xmlns="http://www.w3.org/2000/svg">
  <defs>
    <mask fill="white" id="Clip32">
      <path d="M 1795.5 1293  L 1842.5 1293  L 1842.5 1318  L 1795.5 1318  Z M 1591 1252  L 2049 1252  L 2049 1371  L 1591 1371  Z " fill-rule="evenodd" />
    </mask>
  </defs>
  <path d="M 1601 1268  L 1601 1300  A 5 5 0 0 0 1606 1305 L 2027 1305  A 5 5 0 0 1 2032 1310 L 2032 1352  " stroke-width="2" stroke-dasharray="0" stroke="rgba(217, 0, 27, 1)" fill="none" class="stroke" mask="url(#Clip32)" />
  <path d="M 1601 1262  A 3.5 3.5 0 0 0 1597.5 1265.5 A 3.5 3.5 0 0 0 1601 1269 A 3.5 3.5 0 0 0 1604.5 1265.5 A 3.5 3.5 0 0 0 1601 1262 Z M 1601 1264  A 1.5 1.5 0 0 1 1602.5 1265.5 A 1.5 1.5 0 0 1 1601 1267 A 1.5 1.5 0 0 1 1599.5 1265.5 A 1.5 1.5 0 0 1 1601 1264 Z M 2024 1344.6  L 2032 1354  L 2040 1344.6  L 2032 1348.2  L 2024 1344.6  Z " fill-rule="nonzero" fill="rgba(217, 0, 27, 1)" stroke="none" class="fill" mask="url(#Clip32)" />
</svg>