<?xml version="1.0" encoding="utf-8"?>
<svg version="1.1" xmlns:xlink="http://www.w3.org/1999/xlink" width="87px" height="10px" preserveAspectRatio="xMinYMid meet" viewBox="1726 1193 87 8" xmlns="http://www.w3.org/2000/svg">
  <path d="M 1808 1197.5  L 1736 1197.5  A 5 5 0 0 0 1731.5 1202.5 L 1731.5 1644  A 5 5 0 0 1 1726.5 1649.5 L 1650 1649.5  " stroke-width="1" stroke-dasharray="0" stroke="rgba(217, 0, 27, 1)" fill="none" class="stroke" />
  <path d="M 1810 1194.5  A 3 3 0 0 0 1807 1197.5 A 3 3 0 0 0 1810 1200.5 A 3 3 0 0 0 1813 1197.5 A 3 3 0 0 0 1810 1194.5 Z M 1810 1195.5  A 2 2 0 0 1 1812 1197.5 A 2 2 0 0 1 1810 1199.5 A 2 2 0 0 1 1808 1197.5 A 2 2 0 0 1 1810 1195.5 Z M 1655.7 1643.5  L 1649 1649.5  L 1655.7 1655.5  L 1653.4 1649.5  L 1655.7 1643.5  Z " fill-rule="nonzero" fill="rgba(217, 0, 27, 1)" stroke="none" class="fill" />
</svg>