<?xml version="1.0" encoding="utf-8"?>
<svg version="1.1" xmlns:xlink="http://www.w3.org/1999/xlink" width="18px" height="18px" preserveAspectRatio="xMinYMid meet" viewBox="2139 1189 18 16" xmlns="http://www.w3.org/2000/svg">
  <path d="M 2150 1197.5  L 2606 1197.5  A 5 5 0 0 1 2611.5 1202.5 L 2611.5 1290  " stroke-width="1" stroke-dasharray="0" stroke="rgba(217, 0, 27, 1)" fill="none" class="stroke" />
  <path d="M 2148 1194.5  A 3 3 0 0 0 2145 1197.5 A 3 3 0 0 0 2148 1200.5 A 3 3 0 0 0 2151 1197.5 A 3 3 0 0 0 2148 1194.5 Z M 2148 1195.5  A 2 2 0 0 1 2150 1197.5 A 2 2 0 0 1 2148 1199.5 A 2 2 0 0 1 2146 1197.5 A 2 2 0 0 1 2148 1195.5 Z M 2605.5 1284.3  L 2611.5 1291  L 2617.5 1284.3  L 2611.5 1286.6  L 2605.5 1284.3  Z " fill-rule="nonzero" fill="rgba(217, 0, 27, 1)" stroke="none" class="fill" />
</svg>