<?xml version="1.0" encoding="utf-8"?>
<svg version="1.1" xmlns:xlink="http://www.w3.org/1999/xlink" width="10px" height="27px" preserveAspectRatio="xMidYMin meet" viewBox="1977 1264 8 27" xmlns="http://www.w3.org/2000/svg">
  <path d="M 2103.5 1252  L 2103.5 1264  A 5 5 0 0 1 2098.5 1269.5 L 1986 1269.5  A 5 5 0 0 0 1981.5 1274.5 L 1981.5 1290  " stroke-width="1" stroke-dasharray="0" stroke="rgba(217, 0, 27, 1)" fill="none" class="stroke" />
  <path d="M 2103.5 1247  A 3 3 0 0 0 2100.5 1250 A 3 3 0 0 0 2103.5 1253 A 3 3 0 0 0 2106.5 1250 A 3 3 0 0 0 2103.5 1247 Z M 2103.5 1248  A 2 2 0 0 1 2105.5 1250 A 2 2 0 0 1 2103.5 1252 A 2 2 0 0 1 2101.5 1250 A 2 2 0 0 1 2103.5 1248 Z M 1975.5 1284.3  L 1981.5 1291  L 1987.5 1284.3  L 1981.5 1286.6  L 1975.5 1284.3  Z " fill-rule="nonzero" fill="rgba(217, 0, 27, 1)" stroke="none" class="fill" />
</svg>