<?xml version="1.0" encoding="utf-8"?>
<svg version="1.1" xmlns:xlink="http://www.w3.org/1999/xlink" width="1331px" height="10px" preserveAspectRatio="xMinYMid meet" viewBox="2163 1132 1331 8" xmlns="http://www.w3.org/2000/svg">
  <path d="M 2168 1136.5  L 3484 1136.5  A 5 5 0 0 1 3489.5 1141.5 L 3489.5 1290  " stroke-width="1" stroke-dasharray="0" stroke="rgba(217, 0, 27, 1)" fill="none" class="stroke" />
  <path d="M 2166 1133.5  A 3 3 0 0 0 2163 1136.5 A 3 3 0 0 0 2166 1139.5 A 3 3 0 0 0 2169 1136.5 A 3 3 0 0 0 2166 1133.5 Z M 2166 1134.5  A 2 2 0 0 1 2168 1136.5 A 2 2 0 0 1 2166 1138.5 A 2 2 0 0 1 2164 1136.5 A 2 2 0 0 1 2166 1134.5 Z M 3483.5 1284.3  L 3489.5 1291  L 3495.5 1284.3  L 3489.5 1286.6  L 3483.5 1284.3  Z " fill-rule="nonzero" fill="rgba(217, 0, 27, 1)" stroke="none" class="fill" />
</svg>