<?xml version="1.0" encoding="utf-8"?>
<svg version="1.1" xmlns:xlink="http://www.w3.org/1999/xlink" width="20px" height="20px" preserveAspectRatio="xMinYMid meet" viewBox="3570 551 20 18" xmlns="http://www.w3.org/2000/svg">
  <path d="M 3656 435  L 3623 435  A 5 5 0 0 0 3618 440 L 3618 555  A 5 5 0 0 1 3613 560 L 3581 560  " stroke-width="2" stroke-dasharray="0" stroke="rgba(217, 0, 27, 1)" fill="none" class="stroke" />
  <path d="M 3658.5 431.5  A 3.5 3.5 0 0 0 3655 435 A 3.5 3.5 0 0 0 3658.5 438.5 A 3.5 3.5 0 0 0 3662 435 A 3.5 3.5 0 0 0 3658.5 431.5 Z M 3658.5 433.5  A 1.5 1.5 0 0 1 3660 435 A 1.5 1.5 0 0 1 3658.5 436.5 A 1.5 1.5 0 0 1 3657 435 A 1.5 1.5 0 0 1 3658.5 433.5 Z M 3582 552.4  L 3575 560  L 3582 567.6  L 3582 552.4  Z " fill-rule="nonzero" fill="rgba(217, 0, 27, 1)" stroke="none" class="fill" />
</svg>