<?xml version="1.0" encoding="utf-8"?>
<svg version="1.1" xmlns:xlink="http://www.w3.org/1999/xlink" width="20px" height="20px" preserveAspectRatio="xMinYMid meet" viewBox="3570 311 20 18" xmlns="http://www.w3.org/2000/svg">
  <path d="M 3656 340  L 3623 340  A 5 5 0 0 1 3618 335 L 3618 325  A 5 5 0 0 0 3613 320 L 3581 320  " stroke-width="2" stroke-dasharray="0" stroke="rgba(217, 0, 27, 1)" fill="none" class="stroke" />
  <path d="M 3658.5 336.5  A 3.5 3.5 0 0 0 3655 340 A 3.5 3.5 0 0 0 3658.5 343.5 A 3.5 3.5 0 0 0 3662 340 A 3.5 3.5 0 0 0 3658.5 336.5 Z M 3658.5 338.5  A 1.5 1.5 0 0 1 3660 340 A 1.5 1.5 0 0 1 3658.5 341.5 A 1.5 1.5 0 0 1 3657 340 A 1.5 1.5 0 0 1 3658.5 338.5 Z M 3582 312.4  L 3575 320  L 3582 327.6  L 3582 312.4  Z " fill-rule="nonzero" fill="rgba(217, 0, 27, 1)" stroke="none" class="fill" />
</svg>