<?xml version="1.0" encoding="utf-8"?>
<svg version="1.1" xmlns:xlink="http://www.w3.org/1999/xlink" width="21px" height="20px" preserveAspectRatio="xMinYMid meet" viewBox="4581 1031 21 18" xmlns="http://www.w3.org/2000/svg">
  <path d="M 4594 1040  L 4643 1040  A 5 5 0 0 1 4648 1045 L 4648 1063  A 5 5 0 0 0 4653 1068 L 4706 1068  " stroke-width="2" stroke-dasharray="0" stroke="rgba(217, 0, 27, 1)" fill="none" class="stroke" />
  <path d="M 4591.5 1036.5  A 3.5 3.5 0 0 0 4588 1040 A 3.5 3.5 0 0 0 4591.5 1043.5 A 3.5 3.5 0 0 0 4595 1040 A 3.5 3.5 0 0 0 4591.5 1036.5 Z M 4591.5 1038.5  A 1.5 1.5 0 0 1 4593 1040 A 1.5 1.5 0 0 1 4591.5 1041.5 A 1.5 1.5 0 0 1 4590 1040 A 1.5 1.5 0 0 1 4591.5 1038.5 Z M 4698.6 1076  L 4708 1068  L 4698.6 1060  L 4702.2 1068  L 4698.6 1076  Z " fill-rule="nonzero" fill="rgba(217, 0, 27, 1)" stroke="none" class="fill" />
</svg>