<?xml version="1.0" encoding="utf-8"?>
<svg version="1.1" xmlns:xlink="http://www.w3.org/1999/xlink" width="63px" height="10px" preserveAspectRatio="xMinYMid meet" viewBox="5686 1185 63 8" xmlns="http://www.w3.org/2000/svg">
  <path d="M 5527 1144  L 5686 1144  A 5 5 0 0 1 5691 1149 L 5691 1184  A 5 5 0 0 0 5696 1189 L 5747 1189  " stroke-width="2" stroke-dasharray="0" stroke="rgba(217, 0, 27, 1)" fill="none" class="stroke" />
  <path d="M 5524.5 1140.5  A 3.5 3.5 0 0 0 5521 1144 A 3.5 3.5 0 0 0 5524.5 1147.5 A 3.5 3.5 0 0 0 5528 1144 A 3.5 3.5 0 0 0 5524.5 1140.5 Z M 5524.5 1142.5  A 1.5 1.5 0 0 1 5526 1144 A 1.5 1.5 0 0 1 5524.5 1145.5 A 1.5 1.5 0 0 1 5523 1144 A 1.5 1.5 0 0 1 5524.5 1142.5 Z M 5739.6 1197  L 5749 1189  L 5739.6 1181  L 5743.2 1189  L 5739.6 1197  Z " fill-rule="nonzero" fill="rgba(217, 0, 27, 1)" stroke="none" class="fill" />
</svg>