<?xml version="1.0" encoding="utf-8"?>
<svg version="1.1" xmlns:xlink="http://www.w3.org/1999/xlink" width="10px" height="211px" preserveAspectRatio="xMidYMin meet" viewBox="5686 983 8 211" xmlns="http://www.w3.org/2000/svg">
  <path d="M 5403 988  L 5685 988  A 5 5 0 0 1 5690 993 L 5690 1141  A 3 3 0 0 1 5693 1144 A 3 3 0 0 1 5690 1147 L 5690 1184  A 5 5 0 0 0 5695 1189 L 5747 1189  " stroke-width="2" stroke-dasharray="0" stroke="rgba(217, 0, 27, 1)" fill="none" class="stroke" />
  <path d="M 5400.5 984.5  A 3.5 3.5 0 0 0 5397 988 A 3.5 3.5 0 0 0 5400.5 991.5 A 3.5 3.5 0 0 0 5404 988 A 3.5 3.5 0 0 0 5400.5 984.5 Z M 5400.5 986.5  A 1.5 1.5 0 0 1 5402 988 A 1.5 1.5 0 0 1 5400.5 989.5 A 1.5 1.5 0 0 1 5399 988 A 1.5 1.5 0 0 1 5400.5 986.5 Z M 5739.6 1197  L 5749 1189  L 5739.6 1181  L 5743.2 1189  L 5739.6 1197  Z " fill-rule="nonzero" fill="rgba(217, 0, 27, 1)" stroke="none" class="fill" />
</svg>