<?xml version="1.0" encoding="utf-8"?>
<svg version="1.1" xmlns:xlink="http://www.w3.org/1999/xlink" width="10px" height="178px" preserveAspectRatio="xMidYMin meet" viewBox="3789 529 8 178" xmlns="http://www.w3.org/2000/svg">
  <path d="M 3793 535  L 3793 700  " stroke-width="2" stroke-dasharray="0" stroke="rgba(217, 0, 27, 1)" fill="none" class="stroke" />
  <path d="M 3793 529  A 3.5 3.5 0 0 0 3789.5 532.5 A 3.5 3.5 0 0 0 3793 536 A 3.5 3.5 0 0 0 3796.5 532.5 A 3.5 3.5 0 0 0 3793 529 Z M 3793 531  A 1.5 1.5 0 0 1 3794.5 532.5 A 1.5 1.5 0 0 1 3793 534 A 1.5 1.5 0 0 1 3791.5 532.5 A 1.5 1.5 0 0 1 3793 531 Z M 3785 692.6  L 3793 702  L 3801 692.6  L 3793 696.2  L 3785 692.6  Z " fill-rule="nonzero" fill="rgba(217, 0, 27, 1)" stroke="none" class="fill" />
</svg>