<?xml version="1.0" encoding="utf-8"?>
<svg version="1.1" xmlns:xlink="http://www.w3.org/1999/xlink" width="132px" height="10px" preserveAspectRatio="xMinYMid meet" viewBox="3918 487 132 8" xmlns="http://www.w3.org/2000/svg">
  <path d="M 3929 491  L 4040 491  A 5 5 0 0 1 4045 496 L 4045 564  A 5 5 0 0 0 4050 569 L 4165 569  " stroke-width="2" stroke-dasharray="0" stroke="rgba(217, 0, 27, 1)" fill="none" class="stroke" />
  <path d="M 3926.5 487.5  A 3.5 3.5 0 0 0 3923 491 A 3.5 3.5 0 0 0 3926.5 494.5 A 3.5 3.5 0 0 0 3930 491 A 3.5 3.5 0 0 0 3926.5 487.5 Z M 3926.5 489.5  A 1.5 1.5 0 0 1 3928 491 A 1.5 1.5 0 0 1 3926.5 492.5 A 1.5 1.5 0 0 1 3925 491 A 1.5 1.5 0 0 1 3926.5 489.5 Z M 4157.6 577  L 4167 569  L 4157.6 561  L 4161.2 569  L 4157.6 577  Z " fill-rule="nonzero" fill="rgba(217, 0, 27, 1)" stroke="none" class="fill" />
</svg>