<?xml version="1.0" encoding="utf-8"?>
<svg version="1.1" xmlns:xlink="http://www.w3.org/1999/xlink" width="34px" height="34px" preserveAspectRatio="xMinYMid meet" viewBox="5730 1173 34 32" xmlns="http://www.w3.org/2000/svg">
  <path d="M 5581 1336  L 5686 1336  A 5 5 0 0 0 5691 1331 L 5691 1194  A 5 5 0 0 1 5696 1189 L 5747 1189  " stroke-width="2" stroke-dasharray="0" stroke="rgba(217, 0, 27, 1)" fill="none" class="stroke" />
  <path d="M 5578.5 1332.5  A 3.5 3.5 0 0 0 5575 1336 A 3.5 3.5 0 0 0 5578.5 1339.5 A 3.5 3.5 0 0 0 5582 1336 A 3.5 3.5 0 0 0 5578.5 1332.5 Z M 5578.5 1334.5  A 1.5 1.5 0 0 1 5580 1336 A 1.5 1.5 0 0 1 5578.5 1337.5 A 1.5 1.5 0 0 1 5577 1336 A 1.5 1.5 0 0 1 5578.5 1334.5 Z M 5739.6 1197  L 5749 1189  L 5739.6 1181  L 5743.2 1189  L 5739.6 1197  Z " fill-rule="nonzero" fill="rgba(217, 0, 27, 1)" stroke="none" class="fill" />
</svg>