<?xml version="1.0" encoding="utf-8"?>
<svg version="1.1" xmlns:xlink="http://www.w3.org/1999/xlink" width="75px" height="10px" preserveAspectRatio="xMinYMid meet" viewBox="4990 404 75 8" xmlns="http://www.w3.org/2000/svg">
  <path d="M 4996 408  L 5055 408  A 5 5 0 0 1 5060 413 L 5060 549  A 5 5 0 0 0 5065 554 L 5131 554  " stroke-width="2" stroke-dasharray="0" stroke="rgba(217, 0, 27, 1)" fill="none" class="stroke" />
  <path d="M 4993.5 404.5  A 3.5 3.5 0 0 0 4990 408 A 3.5 3.5 0 0 0 4993.5 411.5 A 3.5 3.5 0 0 0 4997 408 A 3.5 3.5 0 0 0 4993.5 404.5 Z M 4993.5 406.5  A 1.5 1.5 0 0 1 4995 408 A 1.5 1.5 0 0 1 4993.5 409.5 A 1.5 1.5 0 0 1 4992 408 A 1.5 1.5 0 0 1 4993.5 406.5 Z M 5123.6 562  L 5133 554  L 5123.6 546  L 5127.2 554  L 5123.6 562  Z " fill-rule="nonzero" fill="rgba(217, 0, 27, 1)" stroke="none" class="fill" />
</svg>