<?xml version="1.0" encoding="utf-8"?>
<svg version="1.1" xmlns:xlink="http://www.w3.org/1999/xlink" width="76px" height="10px" preserveAspectRatio="xMinYMid meet" viewBox="4990 483 76 8" xmlns="http://www.w3.org/2000/svg">
  <path d="M 4996 487  L 5056 487  A 5 5 0 0 1 5061 492 L 5061 549  A 5 5 0 0 0 5066 554 L 5131 554  " stroke-width="2" stroke-dasharray="0" stroke="rgba(217, 0, 27, 1)" fill="none" class="stroke" />
  <path d="M 4993.5 483.5  A 3.5 3.5 0 0 0 4990 487 A 3.5 3.5 0 0 0 4993.5 490.5 A 3.5 3.5 0 0 0 4997 487 A 3.5 3.5 0 0 0 4993.5 483.5 Z M 4993.5 485.5  A 1.5 1.5 0 0 1 4995 487 A 1.5 1.5 0 0 1 4993.5 488.5 A 1.5 1.5 0 0 1 4992 487 A 1.5 1.5 0 0 1 4993.5 485.5 Z M 5123.6 562  L 5133 554  L 5123.6 546  L 5127.2 554  L 5123.6 562  Z " fill-rule="nonzero" fill="rgba(217, 0, 27, 1)" stroke="none" class="fill" />
</svg>