<?xml version="1.0" encoding="utf-8"?>
<svg version="1.1" xmlns:xlink="http://www.w3.org/1999/xlink" width="10px" height="226px" preserveAspectRatio="xMidYMin meet" viewBox="4036 242 8 226" xmlns="http://www.w3.org/2000/svg">
  <path d="M 3929 463  L 4035 463  A 5 5 0 0 0 4040 458 L 4040 252  A 5 5 0 0 1 4045 247 L 4165 247  " stroke-width="2" stroke-dasharray="0" stroke="rgba(217, 0, 27, 1)" fill="none" class="stroke" />
  <path d="M 3926.5 459.5  A 3.5 3.5 0 0 0 3923 463 A 3.5 3.5 0 0 0 3926.5 466.5 A 3.5 3.5 0 0 0 3930 463 A 3.5 3.5 0 0 0 3926.5 459.5 Z M 3926.5 461.5  A 1.5 1.5 0 0 1 3928 463 A 1.5 1.5 0 0 1 3926.5 464.5 A 1.5 1.5 0 0 1 3925 463 A 1.5 1.5 0 0 1 3926.5 461.5 Z M 4157.6 255  L 4167 247  L 4157.6 239  L 4161.2 247  L 4157.6 255  Z " fill-rule="nonzero" fill="rgba(217, 0, 27, 1)" stroke="none" class="fill" />
</svg>