<?xml version="1.0" encoding="utf-8"?>
<svg version="1.1" xmlns:xlink="http://www.w3.org/1999/xlink" width="34px" height="34px" preserveAspectRatio="xMinYMid meet" viewBox="4689 1052 34 32" xmlns="http://www.w3.org/2000/svg">
  <path d="M 4594 1233  L 4642 1233  A 5 5 0 0 0 4647 1228 L 4647 1208  A 3 3 0 0 0 4650 1205 A 3 3 0 0 0 4647 1202 L 4647 1073  A 5 5 0 0 1 4652 1068 L 4706 1068  " stroke-width="2" stroke-dasharray="0" stroke="rgba(217, 0, 27, 1)" fill="none" class="stroke" />
  <path d="M 4591.5 1229.5  A 3.5 3.5 0 0 0 4588 1233 A 3.5 3.5 0 0 0 4591.5 1236.5 A 3.5 3.5 0 0 0 4595 1233 A 3.5 3.5 0 0 0 4591.5 1229.5 Z M 4591.5 1231.5  A 1.5 1.5 0 0 1 4593 1233 A 1.5 1.5 0 0 1 4591.5 1234.5 A 1.5 1.5 0 0 1 4590 1233 A 1.5 1.5 0 0 1 4591.5 1231.5 Z M 4698.6 1076  L 4708 1068  L 4698.6 1060  L 4702.2 1068  L 4698.6 1076  Z " fill-rule="nonzero" fill="rgba(217, 0, 27, 1)" stroke="none" class="fill" />
</svg>