<?xml version="1.0" encoding="utf-8"?>
<svg version="1.1" xmlns:xlink="http://www.w3.org/1999/xlink" width="13px" height="13px" viewBox="79 943 13 13" xmlns="http://www.w3.org/2000/svg">
  <path d="M 85.5 943  C 89.14 943  92 945.86  92 949.5  C 92 953.14  89.14 956  85.5 956  C 81.86 956  79 953.14  79 949.5  C 79 945.86  81.86 943  85.5 943  Z " fill-rule="nonzero" fill="rgba(255, 255, 255, 1)" stroke="none" class="fill" />
  <path d="M 85.5 943.5  C 88.86 943.5  91.5 946.14  91.5 949.5  C 91.5 952.86  88.86 955.5  85.5 955.5  C 82.14 955.5  79.5 952.86  79.5 949.5  C 79.5 946.14  82.14 943.5  85.5 943.5  Z " stroke-width="1" stroke-dasharray="0" stroke="rgba(121, 121, 121, 1)" fill="none" class="stroke" stroke-dashoffset="0.5" />
  <path d="M 85.5 952.75  C 83.68 952.75  82.25 951.32  82.25 949.5  C 82.25 947.68  83.68 946.25  85.5 946.25  C 87.32 946.25  88.75 947.68  88.75 949.5  C 88.75 951.32  87.32 952.75  85.5 952.75  " fill-rule="nonzero" fill="rgba(121, 121, 121, 1)" stroke="none" class="stroke btn_check" />
</svg>