<?xml version="1.0" encoding="utf-8"?>
<svg version="1.1" xmlns:xlink="http://www.w3.org/1999/xlink" width="13px" height="13px" viewBox="316 943 13 13" xmlns="http://www.w3.org/2000/svg">
  <path d="M 322.5 943  C 326.14 943  329 945.86  329 949.5  C 329 953.14  326.14 956  322.5 956  C 318.86 956  316 953.14  316 949.5  C 316 945.86  318.86 943  322.5 943  Z " fill-rule="nonzero" fill="rgba(255, 255, 255, 1)" stroke="none" class="fill" />
  <path d="M 322.5 943.5  C 325.86 943.5  328.5 946.14  328.5 949.5  C 328.5 952.86  325.86 955.5  322.5 955.5  C 319.14 955.5  316.5 952.86  316.5 949.5  C 316.5 946.14  319.14 943.5  322.5 943.5  Z " stroke-width="1" stroke-dasharray="0" stroke="rgba(121, 121, 121, 1)" fill="none" class="stroke" stroke-dashoffset="0.5" />
  <path d="M 322.5 952.75  C 320.68 952.75  319.25 951.32  319.25 949.5  C 319.25 947.68  320.68 946.25  322.5 946.25  C 324.32 946.25  325.75 947.68  325.75 949.5  C 325.75 951.32  324.32 952.75  322.5 952.75  " fill-rule="nonzero" fill="rgba(121, 121, 121, 1)" stroke="none" class="stroke btn_check" />
</svg>