<?xml version="1.0" encoding="utf-8"?>
<svg version="1.1" xmlns:xlink="http://www.w3.org/1999/xlink" width="13px" height="13px" viewBox="1002 943 13 13" xmlns="http://www.w3.org/2000/svg">
  <path d="M 1008.5 943  C 1012.14 943  1015 945.86  1015 949.5  C 1015 953.14  1012.14 956  1008.5 956  C 1004.86 956  1002 953.14  1002 949.5  C 1002 945.86  1004.86 943  1008.5 943  Z " fill-rule="nonzero" fill="rgba(240, 240, 240, 1)" stroke="none" class="fill" />
  <path d="M 1008.5 943.5  C 1011.86 943.5  1014.5 946.14  1014.5 949.5  C 1014.5 952.86  1011.86 955.5  1008.5 955.5  C 1005.14 955.5  1002.5 952.86  1002.5 949.5  C 1002.5 946.14  1005.14 943.5  1008.5 943.5  Z " stroke-width="1" stroke-dasharray="0" stroke="rgba(121, 121, 121, 1)" fill="none" class="stroke" stroke-dashoffset="0.5" />
  <path d="M 1008.5 952.75  C 1006.68 952.75  1005.25 951.32  1005.25 949.5  C 1005.25 947.68  1006.68 946.25  1008.5 946.25  C 1010.32 946.25  1011.75 947.68  1011.75 949.5  C 1011.75 951.32  1010.32 952.75  1008.5 952.75  " fill-rule="nonzero" fill="rgba(121, 121, 121, 1)" stroke="none" class="stroke btn_check" />
</svg>