<?xml version="1.0" encoding="utf-8"?>
<svg version="1.1" xmlns:xlink="http://www.w3.org/1999/xlink" width="13px" height="13px" viewBox="1098 1444 13 13" xmlns="http://www.w3.org/2000/svg">
  <path d="M 1104.5 1444  C 1108.14 1444  1111 1446.86  1111 1450.5  C 1111 1454.14  1108.14 1457  1104.5 1457  C 1100.86 1457  1098 1454.14  1098 1450.5  C 1098 1446.86  1100.86 1444  1104.5 1444  Z " fill-rule="nonzero" fill="rgba(255, 255, 255, 1)" stroke="none" class="fill" />
  <path d="M 1104.5 1444.5  C 1107.86 1444.5  1110.5 1447.14  1110.5 1450.5  C 1110.5 1453.86  1107.86 1456.5  1104.5 1456.5  C 1101.14 1456.5  1098.5 1453.86  1098.5 1450.5  C 1098.5 1447.14  1101.14 1444.5  1104.5 1444.5  Z " stroke-width="1" stroke-dasharray="0" stroke="rgba(121, 121, 121, 1)" fill="none" class="stroke" stroke-dashoffset="0.5" />
  <path d="M 1104.5 1453.75  C 1102.68 1453.75  1101.25 1452.32  1101.25 1450.5  C 1101.25 1448.68  1102.68 1447.25  1104.5 1447.25  C 1106.32 1447.25  1107.75 1448.68  1107.75 1450.5  C 1107.75 1452.32  1106.32 1453.75  1104.5 1453.75  " fill-rule="nonzero" fill="rgba(121, 121, 121, 1)" stroke="none" class="stroke btn_check" />
</svg>