<?xml version="1.0" encoding="utf-8"?>
<svg version="1.1" xmlns:xlink="http://www.w3.org/1999/xlink" width="13px" height="13px" viewBox="1217 1444 13 13" xmlns="http://www.w3.org/2000/svg">
  <path d="M 1223.5 1444  C 1227.14 1444  1230 1446.86  1230 1450.5  C 1230 1454.14  1227.14 1457  1223.5 1457  C 1219.86 1457  1217 1454.14  1217 1450.5  C 1217 1446.86  1219.86 1444  1223.5 1444  Z " fill-rule="nonzero" fill="rgba(255, 255, 255, 1)" stroke="none" class="fill" />
  <path d="M 1223.5 1444.5  C 1226.86 1444.5  1229.5 1447.14  1229.5 1450.5  C 1229.5 1453.86  1226.86 1456.5  1223.5 1456.5  C 1220.14 1456.5  1217.5 1453.86  1217.5 1450.5  C 1217.5 1447.14  1220.14 1444.5  1223.5 1444.5  Z " stroke-width="1" stroke-dasharray="0" stroke="rgba(121, 121, 121, 1)" fill="none" class="stroke" stroke-dashoffset="0.5" />
  <path d="M 1223.5 1453.75  C 1221.68 1453.75  1220.25 1452.32  1220.25 1450.5  C 1220.25 1448.68  1221.68 1447.25  1223.5 1447.25  C 1225.32 1447.25  1226.75 1448.68  1226.75 1450.5  C 1226.75 1452.32  1225.32 1453.75  1223.5 1453.75  " fill-rule="nonzero" fill="rgba(121, 121, 121, 1)" stroke="none" class="stroke btn_check" />
</svg>