<?xml version="1.0" encoding="utf-8"?>
<svg version="1.1" xmlns:xlink="http://www.w3.org/1999/xlink" width="13px" height="13px" viewBox="1335 1444 13 13" xmlns="http://www.w3.org/2000/svg">
  <path d="M 1341.5 1444  C 1345.14 1444  1348 1446.86  1348 1450.5  C 1348 1454.14  1345.14 1457  1341.5 1457  C 1337.86 1457  1335 1454.14  1335 1450.5  C 1335 1446.86  1337.86 1444  1341.5 1444  Z " fill-rule="nonzero" fill="rgba(240, 240, 240, 1)" stroke="none" class="fill" />
  <path d="M 1341.5 1444.5  C 1344.86 1444.5  1347.5 1447.14  1347.5 1450.5  C 1347.5 1453.86  1344.86 1456.5  1341.5 1456.5  C 1338.14 1456.5  1335.5 1453.86  1335.5 1450.5  C 1335.5 1447.14  1338.14 1444.5  1341.5 1444.5  Z " stroke-width="1" stroke-dasharray="0" stroke="rgba(121, 121, 121, 1)" fill="none" class="stroke" stroke-dashoffset="0.5" />
  <path d="M 1341.5 1453.75  C 1339.68 1453.75  1338.25 1452.32  1338.25 1450.5  C 1338.25 1448.68  1339.68 1447.25  1341.5 1447.25  C 1343.32 1447.25  1344.75 1448.68  1344.75 1450.5  C 1344.75 1452.32  1343.32 1453.75  1341.5 1453.75  " fill-rule="nonzero" fill="rgba(121, 121, 121, 1)" stroke="none" class="stroke btn_check" />
</svg>