<?xml version="1.0" encoding="utf-8"?>
<svg version="1.1" xmlns:xlink="http://www.w3.org/1999/xlink" width="13px" height="13px" viewBox="99 1454 13 13" xmlns="http://www.w3.org/2000/svg">
  <path d="M 105.5 1454  C 109.14 1454  112 1456.86  112 1460.5  C 112 1464.14  109.14 1467  105.5 1467  C 101.86 1467  99 1464.14  99 1460.5  C 99 1456.86  101.86 1454  105.5 1454  Z " fill-rule="nonzero" fill="rgba(240, 240, 240, 1)" stroke="none" class="fill" />
  <path d="M 105.5 1454.5  C 108.86 1454.5  111.5 1457.14  111.5 1460.5  C 111.5 1463.86  108.86 1466.5  105.5 1466.5  C 102.14 1466.5  99.5 1463.86  99.5 1460.5  C 99.5 1457.14  102.14 1454.5  105.5 1454.5  Z " stroke-width="1" stroke-dasharray="0" stroke="rgba(121, 121, 121, 1)" fill="none" class="stroke" stroke-dashoffset="0.5" />
  <path d="M 105.5 1463.75  C 103.68 1463.75  102.25 1462.32  102.25 1460.5  C 102.25 1458.68  103.68 1457.25  105.5 1457.25  C 107.32 1457.25  108.75 1458.68  108.75 1460.5  C 108.75 1462.32  107.32 1463.75  105.5 1463.75  " fill-rule="nonzero" fill="rgba(121, 121, 121, 1)" stroke="none" class="stroke btn_check" />
</svg>