<?xml version="1.0" encoding="utf-8"?>
<svg version="1.1" xmlns:xlink="http://www.w3.org/1999/xlink" width="13px" height="13px" viewBox="336 1454 13 13" xmlns="http://www.w3.org/2000/svg">
  <path d="M 342.5 1454  C 346.14 1454  349 1456.86  349 1460.5  C 349 1464.14  346.14 1467  342.5 1467  C 338.86 1467  336 1464.14  336 1460.5  C 336 1456.86  338.86 1454  342.5 1454  Z " fill-rule="nonzero" fill="rgba(240, 240, 240, 1)" stroke="none" class="fill" />
  <path d="M 342.5 1454.5  C 345.86 1454.5  348.5 1457.14  348.5 1460.5  C 348.5 1463.86  345.86 1466.5  342.5 1466.5  C 339.14 1466.5  336.5 1463.86  336.5 1460.5  C 336.5 1457.14  339.14 1454.5  342.5 1454.5  Z " stroke-width="1" stroke-dasharray="0" stroke="rgba(121, 121, 121, 1)" fill="none" class="stroke" stroke-dashoffset="0.5" />
  <path d="M 342.5 1463.75  C 340.68 1463.75  339.25 1462.32  339.25 1460.5  C 339.25 1458.68  340.68 1457.25  342.5 1457.25  C 344.32 1457.25  345.75 1458.68  345.75 1460.5  C 345.75 1462.32  344.32 1463.75  342.5 1463.75  " fill-rule="nonzero" fill="rgba(121, 121, 121, 1)" stroke="none" class="stroke btn_check" />
</svg>