<?xml version="1.0" encoding="utf-8"?>
<svg version="1.1" xmlns:xlink="http://www.w3.org/1999/xlink" width="13px" height="13px" viewBox="2037 1430 13 13" xmlns="http://www.w3.org/2000/svg">
  <path d="M 2043.5 1430  C 2047.14 1430  2050 1432.86  2050 1436.5  C 2050 1440.14  2047.14 1443  2043.5 1443  C 2039.86 1443  2037 1440.14  2037 1436.5  C 2037 1432.86  2039.86 1430  2043.5 1430  Z " fill-rule="nonzero" fill="rgba(255, 255, 255, 1)" stroke="none" class="fill" />
  <path d="M 2043.5 1430.5  C 2046.86 1430.5  2049.5 1433.14  2049.5 1436.5  C 2049.5 1439.86  2046.86 1442.5  2043.5 1442.5  C 2040.14 1442.5  2037.5 1439.86  2037.5 1436.5  C 2037.5 1433.14  2040.14 1430.5  2043.5 1430.5  Z " stroke-width="1" stroke-dasharray="0" stroke="rgba(121, 121, 121, 1)" fill="none" class="stroke" stroke-dashoffset="0.5" />
  <path d="M 2043.5 1439.75  C 2041.68 1439.75  2040.25 1438.32  2040.25 1436.5  C 2040.25 1434.68  2041.68 1433.25  2043.5 1433.25  C 2045.32 1433.25  2046.75 1434.68  2046.75 1436.5  C 2046.75 1438.32  2045.32 1439.75  2043.5 1439.75  " fill-rule="nonzero" fill="rgba(121, 121, 121, 1)" stroke="none" class="stroke btn_check" />
</svg>