<?xml version="1.0" encoding="utf-8"?>
<svg version="1.1" xmlns:xlink="http://www.w3.org/1999/xlink" width="13px" height="13px" viewBox="2156 1430 13 13" xmlns="http://www.w3.org/2000/svg">
  <path d="M 2162.5 1430  C 2166.14 1430  2169 1432.86  2169 1436.5  C 2169 1440.14  2166.14 1443  2162.5 1443  C 2158.86 1443  2156 1440.14  2156 1436.5  C 2156 1432.86  2158.86 1430  2162.5 1430  Z " fill-rule="nonzero" fill="rgba(255, 255, 255, 1)" stroke="none" class="fill" />
  <path d="M 2162.5 1430.5  C 2165.86 1430.5  2168.5 1433.14  2168.5 1436.5  C 2168.5 1439.86  2165.86 1442.5  2162.5 1442.5  C 2159.14 1442.5  2156.5 1439.86  2156.5 1436.5  C 2156.5 1433.14  2159.14 1430.5  2162.5 1430.5  Z " stroke-width="1" stroke-dasharray="0" stroke="rgba(121, 121, 121, 1)" fill="none" class="stroke" stroke-dashoffset="0.5" />
  <path d="M 2162.5 1439.75  C 2160.68 1439.75  2159.25 1438.32  2159.25 1436.5  C 2159.25 1434.68  2160.68 1433.25  2162.5 1433.25  C 2164.32 1433.25  2165.75 1434.68  2165.75 1436.5  C 2165.75 1438.32  2164.32 1439.75  2162.5 1439.75  " fill-rule="nonzero" fill="rgba(121, 121, 121, 1)" stroke="none" class="stroke btn_check" />
</svg>