<?xml version="1.0" encoding="utf-8"?>
<svg version="1.1" xmlns:xlink="http://www.w3.org/1999/xlink" width="13px" height="13px" viewBox="2274 1430 13 13" xmlns="http://www.w3.org/2000/svg">
  <path d="M 2280.5 1430  C 2284.14 1430  2287 1432.86  2287 1436.5  C 2287 1440.14  2284.14 1443  2280.5 1443  C 2276.86 1443  2274 1440.14  2274 1436.5  C 2274 1432.86  2276.86 1430  2280.5 1430  Z " fill-rule="nonzero" fill="rgba(240, 240, 240, 1)" stroke="none" class="fill" />
  <path d="M 2280.5 1430.5  C 2283.86 1430.5  2286.5 1433.14  2286.5 1436.5  C 2286.5 1439.86  2283.86 1442.5  2280.5 1442.5  C 2277.14 1442.5  2274.5 1439.86  2274.5 1436.5  C 2274.5 1433.14  2277.14 1430.5  2280.5 1430.5  Z " stroke-width="1" stroke-dasharray="0" stroke="rgba(121, 121, 121, 1)" fill="none" class="stroke" stroke-dashoffset="0.5" />
  <path d="M 2280.5 1439.75  C 2278.68 1439.75  2277.25 1438.32  2277.25 1436.5  C 2277.25 1434.68  2278.68 1433.25  2280.5 1433.25  C 2282.32 1433.25  2283.75 1434.68  2283.75 1436.5  C 2283.75 1438.32  2282.32 1439.75  2280.5 1439.75  " fill-rule="nonzero" fill="rgba(121, 121, 121, 1)" stroke="none" class="stroke btn_check" />
</svg>