<?xml version="1.0" encoding="utf-8"?>
<svg version="1.1" xmlns:xlink="http://www.w3.org/1999/xlink" width="20px" height="21px" preserveAspectRatio="xMidYMin meet" viewBox="2203 1483 18 21" xmlns="http://www.w3.org/2000/svg">
  <path d="M 2212 1496  L 2212 1607  " stroke-width="2" stroke-dasharray="0" stroke="rgba(217, 0, 27, 1)" fill="none" class="stroke" />
  <path d="M 2212 1490  A 3.5 3.5 0 0 0 2208.5 1493.5 A 3.5 3.5 0 0 0 2212 1497 A 3.5 3.5 0 0 0 2215.5 1493.5 A 3.5 3.5 0 0 0 2212 1490 Z M 2212 1492  A 1.5 1.5 0 0 1 2213.5 1493.5 A 1.5 1.5 0 0 1 2212 1495 A 1.5 1.5 0 0 1 2210.5 1493.5 A 1.5 1.5 0 0 1 2212 1492 Z M 2204 1599.6  L 2212 1609  L 2220 1599.6  L 2212 1603.2  L 2204 1599.6  Z " fill-rule="nonzero" fill="rgba(217, 0, 27, 1)" stroke="none" class="fill" />
</svg>