<?xml version="1.0" encoding="utf-8"?>
<svg version="1.1" xmlns:xlink="http://www.w3.org/1999/xlink" width="11px" height="11px" xmlns="http://www.w3.org/2000/svg">
  <defs>
    <pattern id="BGPattern" patternUnits="userSpaceOnUse" alignment="0 0" imageRepeat="None" />
    <mask fill="white" id="Clip104">
      <path d="M 8.092447916666668 7.447916666666666  C 8.183159722222223 7.357204861111112  8.228515625 7.247395833333334  8.228515625 7.118489583333334  C 8.228515625 6.994357638888888  8.183159722222223 6.886935763888888  8.092447916666668 6.796223958333334  L 6.796223958333333 5.5  L 8.092447916666668 4.203776041666667  C 8.183159722222223 4.11306423611111  8.228515625 4.00564236111111  8.228515625 3.881510416666667  C 8.228515625 3.752604166666667  8.183159722222223 3.6427951388888875  8.092447916666668 3.552083333333333  L 7.447916666666667 2.907552083333333  C 7.3572048611111125 2.8168402777777772  7.247395833333333 2.771484375  7.118489583333333 2.771484375  C 6.99435763888889 2.771484375  6.88693576388889 2.8168402777777772  6.796223958333333 2.907552083333333  L 5.5 4.203776041666667  L 4.203776041666666 2.907552083333333  C 4.113064236111112 2.8168402777777772  4.005642361111112 2.771484375  3.8815104166666665 2.771484375  C 3.7526041666666665 2.771484375  3.6427951388888893 2.8168402777777772  3.5520833333333335 2.907552083333333  L 2.9075520833333335 3.552083333333333  C 2.8168402777777777 3.6427951388888875  2.7714843750000004 3.752604166666667  2.771484375 3.881510416666667  C 2.7714843750000004 4.00564236111111  2.8168402777777777 4.11306423611111  2.9075520833333335 4.203776041666667  L 4.203776041666666 5.5  L 2.9075520833333335 6.796223958333334  C 2.8168402777777777 6.886935763888888  2.7714843750000004 6.994357638888888  2.771484375 7.118489583333334  C 2.7714843750000004 7.247395833333334  2.8168402777777777 7.357204861111112  2.9075520833333335 7.447916666666666  L 3.5520833333333335 8.092447916666666  C 3.6427951388888893 8.18315972222222  3.7526041666666665 8.228515625  3.8815104166666665 8.228515625  C 4.005642361111112 8.228515625  4.113064236111112 8.18315972222222  4.203776041666666 8.092447916666666  L 5.5 6.796223958333334  L 6.796223958333333 8.092447916666666  C 6.88693576388889 8.18315972222222  6.99435763888889 8.228515625  7.118489583333333 8.228515625  C 7.247395833333333 8.228515625  7.3572048611111125 8.18315972222222  7.447916666666667 8.092447916666666  L 8.092447916666668 7.447916666666666  Z M 10.262369791666668 2.7392578125  C 10.754123263888888 3.5819227430555545  11 4.5021701388888875  11 5.5  C 11 6.497829861111112  10.754123263888888 7.418077256944443  10.262369791666668 8.2607421875  C 9.770616319444446 9.103407118055555  9.103407118055555 9.770616319444445  8.2607421875 10.262369791666668  C 7.4180772569444455 10.75412326388889  6.497829861111112 11  5.5 11  C 4.502170138888889 11  3.581922743055556 10.75412326388889  2.7392578125 10.262369791666668  C 1.8965928819444446 9.770616319444445  1.2293836805555558 9.103407118055555  0.7376302083333334 8.2607421875  C 0.24587673611111108 7.418077256944443  0 6.497829861111112  0 5.5  C 0 4.5021701388888875  0.24587673611111108 3.5819227430555545  0.7376302083333334 2.7392578125  C 1.2293836805555558 1.8965928819444442  1.8965928819444446 1.2293836805555545  2.7392578125 0.7376302083333329  C 3.581922743055556 0.24587673611111016  4.502170138888889 0  5.5 0  C 6.497829861111112 0  7.4180772569444455 0.24587673611111016  8.2607421875 0.7376302083333329  C 9.103407118055555 1.2293836805555545  9.770616319444446 1.8965928819444442  10.262369791666668 2.7392578125  Z " fill-rule="evenodd" />
    </mask>
  </defs>
  <g transform="matrix(1 0 0 1 -3332 -438 )">
    <path d="M 8.092447916666668 7.447916666666666  C 8.183159722222223 7.357204861111112  8.228515625 7.247395833333334  8.228515625 7.118489583333334  C 8.228515625 6.994357638888888  8.183159722222223 6.886935763888888  8.092447916666668 6.796223958333334  L 6.796223958333333 5.5  L 8.092447916666668 4.203776041666667  C 8.183159722222223 4.11306423611111  8.228515625 4.00564236111111  8.228515625 3.881510416666667  C 8.228515625 3.752604166666667  8.183159722222223 3.6427951388888875  8.092447916666668 3.552083333333333  L 7.447916666666667 2.907552083333333  C 7.3572048611111125 2.8168402777777772  7.247395833333333 2.771484375  7.118489583333333 2.771484375  C 6.99435763888889 2.771484375  6.88693576388889 2.8168402777777772  6.796223958333333 2.907552083333333  L 5.5 4.203776041666667  L 4.203776041666666 2.907552083333333  C 4.113064236111112 2.8168402777777772  4.005642361111112 2.771484375  3.8815104166666665 2.771484375  C 3.7526041666666665 2.771484375  3.6427951388888893 2.8168402777777772  3.5520833333333335 2.907552083333333  L 2.9075520833333335 3.552083333333333  C 2.8168402777777777 3.6427951388888875  2.7714843750000004 3.752604166666667  2.771484375 3.881510416666667  C 2.7714843750000004 4.00564236111111  2.8168402777777777 4.11306423611111  2.9075520833333335 4.203776041666667  L 4.203776041666666 5.5  L 2.9075520833333335 6.796223958333334  C 2.8168402777777777 6.886935763888888  2.7714843750000004 6.994357638888888  2.771484375 7.118489583333334  C 2.7714843750000004 7.247395833333334  2.8168402777777777 7.357204861111112  2.9075520833333335 7.447916666666666  L 3.5520833333333335 8.092447916666666  C 3.6427951388888893 8.18315972222222  3.7526041666666665 8.228515625  3.8815104166666665 8.228515625  C 4.005642361111112 8.228515625  4.113064236111112 8.18315972222222  4.203776041666666 8.092447916666666  L 5.5 6.796223958333334  L 6.796223958333333 8.092447916666666  C 6.88693576388889 8.18315972222222  6.99435763888889 8.228515625  7.118489583333333 8.228515625  C 7.247395833333333 8.228515625  7.3572048611111125 8.18315972222222  7.447916666666667 8.092447916666666  L 8.092447916666668 7.447916666666666  Z M 10.262369791666668 2.7392578125  C 10.754123263888888 3.5819227430555545  11 4.5021701388888875  11 5.5  C 11 6.497829861111112  10.754123263888888 7.418077256944443  10.262369791666668 8.2607421875  C 9.770616319444446 9.103407118055555  9.103407118055555 9.770616319444445  8.2607421875 10.262369791666668  C 7.4180772569444455 10.75412326388889  6.497829861111112 11  5.5 11  C 4.502170138888889 11  3.581922743055556 10.75412326388889  2.7392578125 10.262369791666668  C 1.8965928819444446 9.770616319444445  1.2293836805555558 9.103407118055555  0.7376302083333334 8.2607421875  C 0.24587673611111108 7.418077256944443  0 6.497829861111112  0 5.5  C 0 4.5021701388888875  0.24587673611111108 3.5819227430555545  0.7376302083333334 2.7392578125  C 1.2293836805555558 1.8965928819444442  1.8965928819444446 1.2293836805555545  2.7392578125 0.7376302083333329  C 3.581922743055556 0.24587673611111016  4.502170138888889 0  5.5 0  C 6.497829861111112 0  7.4180772569444455 0.24587673611111016  8.2607421875 0.7376302083333329  C 9.103407118055555 1.2293836805555545  9.770616319444446 1.8965928819444442  10.262369791666668 2.7392578125  Z " fill-rule="nonzero" fill="rgba(217, 0, 27, 1)" stroke="none" transform="matrix(1 0 0 1 3332 438 )" class="fill" />
    <path d="M 8.092447916666668 7.447916666666666  C 8.183159722222223 7.357204861111112  8.228515625 7.247395833333334  8.228515625 7.118489583333334  C 8.228515625 6.994357638888888  8.183159722222223 6.886935763888888  8.092447916666668 6.796223958333334  L 6.796223958333333 5.5  L 8.092447916666668 4.203776041666667  C 8.183159722222223 4.11306423611111  8.228515625 4.00564236111111  8.228515625 3.881510416666667  C 8.228515625 3.752604166666667  8.183159722222223 3.6427951388888875  8.092447916666668 3.552083333333333  L 7.447916666666667 2.907552083333333  C 7.3572048611111125 2.8168402777777772  7.247395833333333 2.771484375  7.118489583333333 2.771484375  C 6.99435763888889 2.771484375  6.88693576388889 2.8168402777777772  6.796223958333333 2.907552083333333  L 5.5 4.203776041666667  L 4.203776041666666 2.907552083333333  C 4.113064236111112 2.8168402777777772  4.005642361111112 2.771484375  3.8815104166666665 2.771484375  C 3.7526041666666665 2.771484375  3.6427951388888893 2.8168402777777772  3.5520833333333335 2.907552083333333  L 2.9075520833333335 3.552083333333333  C 2.8168402777777777 3.6427951388888875  2.7714843750000004 3.752604166666667  2.771484375 3.881510416666667  C 2.7714843750000004 4.00564236111111  2.8168402777777777 4.11306423611111  2.9075520833333335 4.203776041666667  L 4.203776041666666 5.5  L 2.9075520833333335 6.796223958333334  C 2.8168402777777777 6.886935763888888  2.7714843750000004 6.994357638888888  2.771484375 7.118489583333334  C 2.7714843750000004 7.247395833333334  2.8168402777777777 7.357204861111112  2.9075520833333335 7.447916666666666  L 3.5520833333333335 8.092447916666666  C 3.6427951388888893 8.18315972222222  3.7526041666666665 8.228515625  3.8815104166666665 8.228515625  C 4.005642361111112 8.228515625  4.113064236111112 8.18315972222222  4.203776041666666 8.092447916666666  L 5.5 6.796223958333334  L 6.796223958333333 8.092447916666666  C 6.88693576388889 8.18315972222222  6.99435763888889 8.228515625  7.118489583333333 8.228515625  C 7.247395833333333 8.228515625  7.3572048611111125 8.18315972222222  7.447916666666667 8.092447916666666  L 8.092447916666668 7.447916666666666  Z " stroke-width="0" stroke-dasharray="0" stroke="rgba(255, 255, 255, 0)" fill="none" transform="matrix(1 0 0 1 3332 438 )" class="stroke" mask="url(#Clip104)" />
    <path d="M 10.262369791666668 2.7392578125  C 10.754123263888888 3.5819227430555545  11 4.5021701388888875  11 5.5  C 11 6.497829861111112  10.754123263888888 7.418077256944443  10.262369791666668 8.2607421875  C 9.770616319444446 9.103407118055555  9.103407118055555 9.770616319444445  8.2607421875 10.262369791666668  C 7.4180772569444455 10.75412326388889  6.497829861111112 11  5.5 11  C 4.502170138888889 11  3.581922743055556 10.75412326388889  2.7392578125 10.262369791666668  C 1.8965928819444446 9.770616319444445  1.2293836805555558 9.103407118055555  0.7376302083333334 8.2607421875  C 0.24587673611111108 7.418077256944443  0 6.497829861111112  0 5.5  C 0 4.5021701388888875  0.24587673611111108 3.5819227430555545  0.7376302083333334 2.7392578125  C 1.2293836805555558 1.8965928819444442  1.8965928819444446 1.2293836805555545  2.7392578125 0.7376302083333329  C 3.581922743055556 0.24587673611111016  4.502170138888889 0  5.5 0  C 6.497829861111112 0  7.4180772569444455 0.24587673611111016  8.2607421875 0.7376302083333329  C 9.103407118055555 1.2293836805555545  9.770616319444446 1.8965928819444442  10.262369791666668 2.7392578125  Z " stroke-width="0" stroke-dasharray="0" stroke="rgba(255, 255, 255, 0)" fill="none" transform="matrix(1 0 0 1 3332 438 )" class="stroke" mask="url(#Clip104)" />
  </g>
</svg>