<?xml version="1.0" encoding="utf-8"?>
<svg version="1.1" xmlns:xlink="http://www.w3.org/1999/xlink" width="34px" height="34px" preserveAspectRatio="xMinYMid meet" viewBox="1975 551 34 32" xmlns="http://www.w3.org/2000/svg">
  <path d="M 1992 608  L 1992 567  " stroke-width="2" stroke-dasharray="0" stroke="rgba(217, 0, 27, 1)" fill="none" class="stroke" />
  <path d="M 1992 607  A 3.5 3.5 0 0 0 1988.5 610.5 A 3.5 3.5 0 0 0 1992 614 A 3.5 3.5 0 0 0 1995.5 610.5 A 3.5 3.5 0 0 0 1992 607 Z M 1992 609  A 1.5 1.5 0 0 1 1993.5 610.5 A 1.5 1.5 0 0 1 1992 612 A 1.5 1.5 0 0 1 1990.5 610.5 A 1.5 1.5 0 0 1 1992 609 Z M 2000 574.4  L 1992 565  L 1984 574.4  L 1992 570.8  L 2000 574.4  Z " fill-rule="nonzero" fill="rgba(217, 0, 27, 1)" stroke="none" class="fill" />
</svg>