<?xml version="1.0" encoding="utf-8"?>
<svg version="1.1" xmlns:xlink="http://www.w3.org/1999/xlink" width="21px" height="20px" preserveAspectRatio="xMinYMid meet" viewBox="2506 666 21 18" xmlns="http://www.w3.org/2000/svg">
  <path d="M 2519 675  L 2576 675  " stroke-width="2" stroke-dasharray="0" stroke="rgba(217, 0, 27, 1)" fill="none" class="stroke" />
  <path d="M 2516.5 671.5  A 3.5 3.5 0 0 0 2513 675 A 3.5 3.5 0 0 0 2516.5 678.5 A 3.5 3.5 0 0 0 2520 675 A 3.5 3.5 0 0 0 2516.5 671.5 Z M 2516.5 673.5  A 1.5 1.5 0 0 1 2518 675 A 1.5 1.5 0 0 1 2516.5 676.5 A 1.5 1.5 0 0 1 2515 675 A 1.5 1.5 0 0 1 2516.5 673.5 Z M 2568.6 683  L 2578 675  L 2568.6 667  L 2572.2 675  L 2568.6 683  Z " fill-rule="nonzero" fill="rgba(217, 0, 27, 1)" stroke="none" class="fill" />
</svg>