<?xml version="1.0" encoding="utf-8"?>
<svg version="1.1" xmlns:xlink="http://www.w3.org/1999/xlink" width="102px" height="98px" xmlns="http://www.w3.org/2000/svg">
  <defs>
    <pattern id="BGPattern" patternUnits="userSpaceOnUse" alignment="0 0" imageRepeat="None" />
    <mask fill="white" id="Clip3">
      <path d="M 80.05263157894737 32.241402562373565  C 81.35087719298248 33.60890087660148  82.00000000000001 35.20431557653405  82 37.02764666217127  C 82.00000000000001 38.88604180714768  81.35087719298248 40.46392447741065  80.05263157894737 41.76129467296022  L 45.78947368421053 76.05394470667565  C 44.421052631578945 77.35131490222523  42.824561403508774 78  41 78  C 39.140350877192986 78  37.56140350877193 77.35131490222523  36.26315789473684 76.05394470667565  L 2 41.76129467296022  C 0.6666666666666669 40.498988536749835  0 38.921105866486855  0 37.02764666217127  C 0 35.16925151719487  0.6666666666666669 33.573836817262304  2 32.241402562373565  L 5.894736842105264 28.29669588671612  C 7.263157894736843 26.999325691166547  8.859649122807019 26.350640593391777  10.68421052631579 26.350640593391777  C 12.54385964912281 26.350640593391777  14.122807017543861 26.999325691166547  15.421052631578947 28.29669588671612  L 31 43.75994605529333  L 31 6.732299393122049  C 30.89473684210526 4.908968307484828  31.56140350877193 3.33108563722184  32.89473684210526 1.9986513823331127  C 34.2280701754386 0.6662171274443593  35.80701754385965 0  37.63157894736842 0  L 44.36842105263158 0  C 46.192982456140356 0  47.77192982456141 0.6662171274443593  49.10526315789474 1.9986513823331127  C 50.438596491228076 3.33108563722184  51.10526315789473 4.908968307484828  51 6.732299393122049  L 51 43.75994605529333  L 66.57894736842105 28.29669588671612  C 67.87719298245614 26.999325691166547  69.4561403508772 26.350640593391777  71.3157894736842 26.350640593391777  C 73.14035087719299 26.350640593391777  74.73684210526316 26.999325691166547  76.10526315789474 28.29669588671612  L 80.05263157894737 32.241402562373565  Z " fill-rule="evenodd" />
    </mask>
  </defs>
  <g transform="matrix(1 0 0 1 -855 -1073 )">
    <path d="M 80.05263157894737 32.241402562373565  C 81.35087719298248 33.60890087660148  82.00000000000001 35.20431557653405  82 37.02764666217127  C 82.00000000000001 38.88604180714768  81.35087719298248 40.46392447741065  80.05263157894737 41.76129467296022  L 45.78947368421053 76.05394470667565  C 44.421052631578945 77.35131490222523  42.824561403508774 78  41 78  C 39.140350877192986 78  37.56140350877193 77.35131490222523  36.26315789473684 76.05394470667565  L 2 41.76129467296022  C 0.6666666666666669 40.498988536749835  0 38.921105866486855  0 37.02764666217127  C 0 35.16925151719487  0.6666666666666669 33.573836817262304  2 32.241402562373565  L 5.894736842105264 28.29669588671612  C 7.263157894736843 26.999325691166547  8.859649122807019 26.350640593391777  10.68421052631579 26.350640593391777  C 12.54385964912281 26.350640593391777  14.122807017543861 26.999325691166547  15.421052631578947 28.29669588671612  L 31 43.75994605529333  L 31 6.732299393122049  C 30.89473684210526 4.908968307484828  31.56140350877193 3.33108563722184  32.89473684210526 1.9986513823331127  C 34.2280701754386 0.6662171274443593  35.80701754385965 0  37.63157894736842 0  L 44.36842105263158 0  C 46.192982456140356 0  47.77192982456141 0.6662171274443593  49.10526315789474 1.9986513823331127  C 50.438596491228076 3.33108563722184  51.10526315789473 4.908968307484828  51 6.732299393122049  L 51 43.75994605529333  L 66.57894736842105 28.29669588671612  C 67.87719298245614 26.999325691166547  69.4561403508772 26.350640593391777  71.3157894736842 26.350640593391777  C 73.14035087719299 26.350640593391777  74.73684210526316 26.999325691166547  76.10526315789474 28.29669588671612  L 80.05263157894737 32.241402562373565  Z " fill-rule="nonzero" fill="rgba(0, 170, 170, 1)" stroke="none" transform="matrix(1 0 0 1 865 1083 )" class="fill" />
    <path d="M 80.05263157894737 32.241402562373565  C 81.35087719298248 33.60890087660148  82.00000000000001 35.20431557653405  82 37.02764666217127  C 82.00000000000001 38.88604180714768  81.35087719298248 40.46392447741065  80.05263157894737 41.76129467296022  L 45.78947368421053 76.05394470667565  C 44.421052631578945 77.35131490222523  42.824561403508774 78  41 78  C 39.140350877192986 78  37.56140350877193 77.35131490222523  36.26315789473684 76.05394470667565  L 2 41.76129467296022  C 0.6666666666666669 40.498988536749835  0 38.921105866486855  0 37.02764666217127  C 0 35.16925151719487  0.6666666666666669 33.573836817262304  2 32.241402562373565  L 5.894736842105264 28.29669588671612  C 7.263157894736843 26.999325691166547  8.859649122807019 26.350640593391777  10.68421052631579 26.350640593391777  C 12.54385964912281 26.350640593391777  14.122807017543861 26.999325691166547  15.421052631578947 28.29669588671612  L 31 43.75994605529333  L 31 6.732299393122049  C 30.89473684210526 4.908968307484828  31.56140350877193 3.33108563722184  32.89473684210526 1.9986513823331127  C 34.2280701754386 0.6662171274443593  35.80701754385965 0  37.63157894736842 0  L 44.36842105263158 0  C 46.192982456140356 0  47.77192982456141 0.6662171274443593  49.10526315789474 1.9986513823331127  C 50.438596491228076 3.33108563722184  51.10526315789473 4.908968307484828  51 6.732299393122049  L 51 43.75994605529333  L 66.57894736842105 28.29669588671612  C 67.87719298245614 26.999325691166547  69.4561403508772 26.350640593391777  71.3157894736842 26.350640593391777  C 73.14035087719299 26.350640593391777  74.73684210526316 26.999325691166547  76.10526315789474 28.29669588671612  L 80.05263157894737 32.241402562373565  Z " stroke-width="0" stroke-dasharray="0" stroke="rgba(255, 255, 255, 0)" fill="none" transform="matrix(1 0 0 1 865 1083 )" class="stroke" mask="url(#Clip3)" />
  </g>
  <style>svg { filter: drop-shadow(0px 0px 5px rgba(0, 0, 0, 0.3137254901960784)); }</style>
</svg>