<?xml version="1.0" encoding="utf-8"?>
<svg version="1.1" xmlns:xlink="http://www.w3.org/1999/xlink" width="10px" height="104px" preserveAspectRatio="xMidYMin meet" viewBox="1473 661 8 104" xmlns="http://www.w3.org/2000/svg">
  <path d="M 1644 760  L 1482 760  A 5 5 0 0 1 1477 755 L 1477 671  A 5 5 0 0 0 1472 666 L 1417 666  " stroke-width="2" stroke-dasharray="0" stroke="rgba(217, 0, 27, 1)" fill="none" class="stroke" />
  <path d="M 1646.5 756.5  A 3.5 3.5 0 0 0 1643 760 A 3.5 3.5 0 0 0 1646.5 763.5 A 3.5 3.5 0 0 0 1650 760 A 3.5 3.5 0 0 0 1646.5 756.5 Z M 1646.5 758.5  A 1.5 1.5 0 0 1 1648 760 A 1.5 1.5 0 0 1 1646.5 761.5 A 1.5 1.5 0 0 1 1645 760 A 1.5 1.5 0 0 1 1646.5 758.5 Z M 1424.4 658  L 1415 666  L 1424.4 674  L 1420.8 666  L 1424.4 658  Z " fill-rule="nonzero" fill="rgba(217, 0, 27, 1)" stroke="none" class="fill" />
</svg>