<?xml version="1.0" encoding="utf-8"?>
<svg version="1.1" xmlns:xlink="http://www.w3.org/1999/xlink" width="34px" height="34px" preserveAspectRatio="xMinYMid meet" viewBox="1712 1115 34 32" xmlns="http://www.w3.org/2000/svg">
  <path d="M 1668 830  L 1668 973  A 5 5 0 0 0 1673 978 L 1724 978  A 5 5 0 0 1 1729 983 L 1729 1131  " stroke-width="2" stroke-dasharray="0" stroke="rgba(217, 0, 27, 1)" fill="none" class="stroke" />
  <path d="M 1668 824  A 3.5 3.5 0 0 0 1664.5 827.5 A 3.5 3.5 0 0 0 1668 831 A 3.5 3.5 0 0 0 1671.5 827.5 A 3.5 3.5 0 0 0 1668 824 Z M 1668 826  A 1.5 1.5 0 0 1 1669.5 827.5 A 1.5 1.5 0 0 1 1668 829 A 1.5 1.5 0 0 1 1666.5 827.5 A 1.5 1.5 0 0 1 1668 826 Z M 1721 1123.6  L 1729 1133  L 1737 1123.6  L 1729 1127.2  L 1721 1123.6  Z " fill-rule="nonzero" fill="rgba(217, 0, 27, 1)" stroke="none" class="fill" />
</svg>