<?xml version="1.0" encoding="utf-8"?>
<svg version="1.1" xmlns:xlink="http://www.w3.org/1999/xlink" width="13px" height="13px" viewBox="1940 1512 13 13" xmlns="http://www.w3.org/2000/svg">
  <path d="M 1946.5 1512  C 1950.14 1512  1953 1514.86  1953 1518.5  C 1953 1522.14  1950.14 1525  1946.5 1525  C 1942.86 1525  1940 1522.14  1940 1518.5  C 1940 1514.86  1942.86 1512  1946.5 1512  Z " fill-rule="nonzero" fill="rgba(240, 240, 240, 1)" stroke="none" class="fill" />
  <path d="M 1946.5 1512.5  C 1949.86 1512.5  1952.5 1515.14  1952.5 1518.5  C 1952.5 1521.86  1949.86 1524.5  1946.5 1524.5  C 1943.14 1524.5  1940.5 1521.86  1940.5 1518.5  C 1940.5 1515.14  1943.14 1512.5  1946.5 1512.5  Z " stroke-width="1" stroke-dasharray="0" stroke="rgba(121, 121, 121, 1)" fill="none" class="stroke" stroke-dashoffset="0.5" />
  <path d="M 1946.5 1521.75  C 1944.68 1521.75  1943.25 1520.32  1943.25 1518.5  C 1943.25 1516.68  1944.68 1515.25  1946.5 1515.25  C 1948.32 1515.25  1949.75 1516.68  1949.75 1518.5  C 1949.75 1520.32  1948.32 1521.75  1946.5 1521.75  " fill-rule="nonzero" fill="rgba(121, 121, 121, 1)" stroke="none" class="stroke btn_check" />
</svg>