<?xml version="1.0" encoding="utf-8"?>
<svg version="1.1" xmlns:xlink="http://www.w3.org/1999/xlink" width="13px" height="13px" viewBox="2272 1534 13 13" xmlns="http://www.w3.org/2000/svg">
  <path d="M 2278.5 1534  C 2282.14 1534  2285 1536.86  2285 1540.5  C 2285 1544.14  2282.14 1547  2278.5 1547  C 2274.86 1547  2272 1544.14  2272 1540.5  C 2272 1536.86  2274.86 1534  2278.5 1534  Z " fill-rule="nonzero" fill="rgba(255, 255, 255, 1)" stroke="none" class="fill" />
  <path d="M 2278.5 1534.5  C 2281.86 1534.5  2284.5 1537.14  2284.5 1540.5  C 2284.5 1543.86  2281.86 1546.5  2278.5 1546.5  C 2275.14 1546.5  2272.5 1543.86  2272.5 1540.5  C 2272.5 1537.14  2275.14 1534.5  2278.5 1534.5  Z " stroke-width="1" stroke-dasharray="0" stroke="rgba(121, 121, 121, 1)" fill="none" class="stroke" stroke-dashoffset="0.5" />
  <path d="M 2278.5 1543.75  C 2276.68 1543.75  2275.25 1542.32  2275.25 1540.5  C 2275.25 1538.68  2276.68 1537.25  2278.5 1537.25  C 2280.32 1537.25  2281.75 1538.68  2281.75 1540.5  C 2281.75 1542.32  2280.32 1543.75  2278.5 1543.75  " fill-rule="nonzero" fill="rgba(121, 121, 121, 1)" stroke="none" class="stroke btn_check" />
</svg>