<?xml version="1.0" encoding="utf-8"?>
<svg version="1.1" xmlns:xlink="http://www.w3.org/1999/xlink" width="26px" height="10px" preserveAspectRatio="xMinYMid meet" viewBox="2189 1362 26 8" xmlns="http://www.w3.org/2000/svg">
  <path d="M 2195 1366  L 2205 1366  A 5 5 0 0 0 2210 1361 L 2210 1233  A 5 5 0 0 1 2215 1228 L 2223 1228  " stroke-width="2" stroke-dasharray="0" stroke="rgba(217, 0, 27, 1)" fill="none" class="stroke" />
  <path d="M 2192.5 1362.5  A 3.5 3.5 0 0 0 2189 1366 A 3.5 3.5 0 0 0 2192.5 1369.5 A 3.5 3.5 0 0 0 2196 1366 A 3.5 3.5 0 0 0 2192.5 1362.5 Z M 2192.5 1364.5  A 1.5 1.5 0 0 1 2194 1366 A 1.5 1.5 0 0 1 2192.5 1367.5 A 1.5 1.5 0 0 1 2191 1366 A 1.5 1.5 0 0 1 2192.5 1364.5 Z M 2215.6 1236  L 2225 1228  L 2215.6 1220  L 2219.2 1228  L 2215.6 1236  Z " fill-rule="nonzero" fill="rgba(217, 0, 27, 1)" stroke="none" class="fill" />
</svg>