<?xml version="1.0" encoding="utf-8"?>
<svg version="1.1" xmlns:xlink="http://www.w3.org/1999/xlink" width="34px" height="34px" preserveAspectRatio="xMinYMid meet" viewBox="2206 1420 34 32" xmlns="http://www.w3.org/2000/svg">
  <path d="M 2195 1546  L 2205 1546  A 5 5 0 0 0 2210 1541 L 2210 1441  A 5 5 0 0 1 2215 1436 L 2223 1436  " stroke-width="2" stroke-dasharray="0" stroke="rgba(217, 0, 27, 1)" fill="none" class="stroke" />
  <path d="M 2192.5 1542.5  A 3.5 3.5 0 0 0 2189 1546 A 3.5 3.5 0 0 0 2192.5 1549.5 A 3.5 3.5 0 0 0 2196 1546 A 3.5 3.5 0 0 0 2192.5 1542.5 Z M 2192.5 1544.5  A 1.5 1.5 0 0 1 2194 1546 A 1.5 1.5 0 0 1 2192.5 1547.5 A 1.5 1.5 0 0 1 2191 1546 A 1.5 1.5 0 0 1 2192.5 1544.5 Z M 2215.6 1444  L 2225 1436  L 2215.6 1428  L 2219.2 1436  L 2215.6 1444  Z " fill-rule="nonzero" fill="rgba(217, 0, 27, 1)" stroke="none" class="fill" />
</svg>