<?xml version="1.0" encoding="utf-8"?>
<svg version="1.1" xmlns:xlink="http://www.w3.org/1999/xlink" width="34px" height="34px" preserveAspectRatio="xMinYMid meet" viewBox="2559 1016 34 32" xmlns="http://www.w3.org/2000/svg">
  <path d="M 2210 699  L 2210 1027  A 5 5 0 0 0 2215 1032 L 2576 1032  " stroke-width="2" stroke-dasharray="0" stroke="rgba(217, 0, 27, 1)" fill="none" class="stroke" />
  <path d="M 2210 693  A 3.5 3.5 0 0 0 2206.5 696.5 A 3.5 3.5 0 0 0 2210 700 A 3.5 3.5 0 0 0 2213.5 696.5 A 3.5 3.5 0 0 0 2210 693 Z M 2210 695  A 1.5 1.5 0 0 1 2211.5 696.5 A 1.5 1.5 0 0 1 2210 698 A 1.5 1.5 0 0 1 2208.5 696.5 A 1.5 1.5 0 0 1 2210 695 Z M 2568.6 1040  L 2578 1032  L 2568.6 1024  L 2572.2 1032  L 2568.6 1040  Z " fill-rule="nonzero" fill="rgba(217, 0, 27, 1)" stroke="none" class="fill" />
</svg>