<?xml version="1.0" encoding="utf-8"?>
<svg version="1.1" xmlns:xlink="http://www.w3.org/1999/xlink" width="10px" height="80px" preserveAspectRatio="xMidYMin meet" viewBox="2274 693 8 80" xmlns="http://www.w3.org/2000/svg">
  <path d="M 2278 699  L 2278 763  A 5 5 0 0 0 2283 768 L 2576 768  " stroke-width="2" stroke-dasharray="0" stroke="rgba(217, 0, 27, 1)" fill="none" class="stroke" />
  <path d="M 2278 693  A 3.5 3.5 0 0 0 2274.5 696.5 A 3.5 3.5 0 0 0 2278 700 A 3.5 3.5 0 0 0 2281.5 696.5 A 3.5 3.5 0 0 0 2278 693 Z M 2278 695  A 1.5 1.5 0 0 1 2279.5 696.5 A 1.5 1.5 0 0 1 2278 698 A 1.5 1.5 0 0 1 2276.5 696.5 A 1.5 1.5 0 0 1 2278 695 Z M 2568.6 776  L 2578 768  L 2568.6 760  L 2572.2 768  L 2568.6 776  Z " fill-rule="nonzero" fill="rgba(217, 0, 27, 1)" stroke="none" class="fill" />
</svg>