<?xml version="1.0" encoding="utf-8"?>
<svg version="1.1" xmlns:xlink="http://www.w3.org/1999/xlink" width="34px" height="34px" preserveAspectRatio="xMinYMid meet" viewBox="2198 1666 34 32" xmlns="http://www.w3.org/2000/svg">
  <path d="M 2122 1615  L 2122 1641  A 5 5 0 0 0 2127 1646 L 2210 1646  A 5 5 0 0 1 2215 1651 L 2215 1682  " stroke-width="2" stroke-dasharray="0" stroke="rgba(217, 0, 27, 1)" fill="none" class="stroke" />
  <path d="M 2122 1609  A 3.5 3.5 0 0 0 2118.5 1612.5 A 3.5 3.5 0 0 0 2122 1616 A 3.5 3.5 0 0 0 2125.5 1612.5 A 3.5 3.5 0 0 0 2122 1609 Z M 2122 1611  A 1.5 1.5 0 0 1 2123.5 1612.5 A 1.5 1.5 0 0 1 2122 1614 A 1.5 1.5 0 0 1 2120.5 1612.5 A 1.5 1.5 0 0 1 2122 1611 Z M 2207 1674.6  L 2215 1684  L 2223 1674.6  L 2215 1678.2  L 2207 1674.6  Z " fill-rule="nonzero" fill="rgba(217, 0, 27, 1)" stroke="none" class="fill" />
</svg>