<?xml version="1.0" encoding="utf-8"?>
<svg version="1.1" xmlns:xlink="http://www.w3.org/1999/xlink" width="112px" height="10px" preserveAspectRatio="xMinYMid meet" viewBox="1415 329 112 8" xmlns="http://www.w3.org/2000/svg">
  <path d="M 1610 675  L 1527 675  A 5 5 0 0 1 1522 670 L 1522 338  A 5 5 0 0 0 1517 333 L 1417 333  " stroke-width="2" stroke-dasharray="0" stroke="rgba(217, 0, 27, 1)" fill="none" class="stroke" />
  <path d="M 1612.5 671.5  A 3.5 3.5 0 0 0 1609 675 A 3.5 3.5 0 0 0 1612.5 678.5 A 3.5 3.5 0 0 0 1616 675 A 3.5 3.5 0 0 0 1612.5 671.5 Z M 1612.5 673.5  A 1.5 1.5 0 0 1 1614 675 A 1.5 1.5 0 0 1 1612.5 676.5 A 1.5 1.5 0 0 1 1611 675 A 1.5 1.5 0 0 1 1612.5 673.5 Z M 1424.4 325  L 1415 333  L 1424.4 341  L 1420.8 333  L 1424.4 325  Z " fill-rule="nonzero" fill="rgba(217, 0, 27, 1)" stroke="none" class="fill" />
</svg>